<?xml version="1.0" encoding="UTF-8" standalone="no"?>
<!-- Created with Inkscape (http://www.inkscape.org/) -->

<svg
   xmlns:dc="http://purl.org/dc/elements/1.1/"
   xmlns:cc="http://creativecommons.org/ns#"
   xmlns:rdf="http://www.w3.org/1999/02/22-rdf-syntax-ns#"
   xmlns:svg="http://www.w3.org/2000/svg"
   xmlns="http://www.w3.org/2000/svg"
   xmlns:sodipodi="http://sodipodi.sourceforge.net/DTD/sodipodi-0.dtd"
   xmlns:inkscape="http://www.inkscape.org/namespaces/inkscape"
   width="256"
   height="256"
   viewBox="0 0 256 256"
   id="svg2"
   version="1.1"
   inkscape:version="0.91 r13725"
   sodipodi:docname="amarok.svg">
  <defs
     id="defs4" />
  <sodipodi:namedview
     id="base"
     pagecolor="#ffffff"
     bordercolor="#666666"
     borderopacity="1.0"
     inkscape:pageopacity="0.0"
     inkscape:pageshadow="2"
     inkscape:zoom="0.98994949"
     inkscape:cx="211.88047"
     inkscape:cy="71.408516"
     inkscape:document-units="px"
     inkscape:current-layer="layer1"
     showgrid="false"
     units="px"
     inkscape:window-width="1366"
     inkscape:window-height="711"
     inkscape:window-x="0"
     inkscape:window-y="31"
     inkscape:window-maximized="1"
     showguides="false" />
  <metadata
     id="metadata7">
    <rdf:RDF>
      <cc:Work
         rdf:about="">
        <dc:format>image/svg+xml</dc:format>
        <dc:type
           rdf:resource="http://purl.org/dc/dcmitype/StillImage" />
        <dc:title></dc:title>
      </cc:Work>
    </rdf:RDF>
  </metadata>
  <g
     inkscape:label="Layer 1"
     inkscape:groupmode="layer"
     id="layer1"
     transform="translate(0,-796.36216)">
    <rect
       style="fill:#2c89a0;fill-rule:evenodd;stroke:#000000;stroke-width:0;stroke-linecap:butt;stroke-linejoin:miter;stroke-opacity:1;stroke-miterlimit:4;stroke-dasharray:none;fill-opacity:1"
       id="rect3336"
       width="202.61562"
       height="202.61562"
       x="-664.62292"
       y="642.82465"
       ry="46.696564"
       transform="matrix(0.70710678,-0.70710678,0.70710678,0.70710678,0,0)" />
    <path
       style="fill:#ffffff;fill-opacity:1;fill-rule:evenodd;stroke:#000000;stroke-width:0;stroke-linecap:butt;stroke-linejoin:miter;stroke-miterlimit:4;stroke-dasharray:none;stroke-opacity:1"
       d="m 127.83221,800.15617 c -11.95373,0 -23.90753,4.57894 -33.067107,13.73851 l -77.343678,77.34367 c -18.31912912,18.31912 -18.31912912,47.81505 0,66.13417 l 77.343678,77.34368 c 18.319137,18.3192 47.815067,18.3192 66.134187,0 l 77.34368,-77.34368 c 18.31912,-18.31912 18.31912,-47.81505 0,-66.13417 l -77.34368,-77.34367 c -9.15956,-9.15957 -21.11336,-13.73851 -33.06708,-13.73851 z m 0.0606,7.38757 c 11.26499,0 22.53018,4.3165 31.162,12.94832 l 72.88804,72.88608 c 17.26364,17.26363 17.26364,45.06038 0,62.32401 l -72.88804,72.88615 c -17.26362,17.2636 -45.06037,17.2636 -62.32402,0 L 23.844694,955.70216 c -17.2636309,-17.26363 -17.2636309,-45.06038 0,-62.32402 L 96.73078,820.49206 c 8.63183,-8.63182 19.89703,-12.94832 31.16202,-12.94832 z"
       id="rect3336-36"
       inkscape:connector-curvature="0" />
    <path
       style="opacity:1;fill:#808000;fill-opacity:1;stroke-width:0;stroke-miterlimit:4;stroke-dasharray:none"
       d=""
       id="path4916"
       inkscape:connector-curvature="0"
       transform="translate(0,796.36216)" />
    <path
       style="opacity:1;fill:#808000;fill-opacity:1;stroke-width:0;stroke-miterlimit:4;stroke-dasharray:none"
       d=""
       id="path4918"
       inkscape:connector-curvature="0"
       transform="translate(0,796.36216)" />
    <path
       style="opacity:1;fill:#808000;fill-opacity:1;stroke-width:0;stroke-miterlimit:4;stroke-dasharray:none"
       d=""
       id="path4920"
       inkscape:connector-curvature="0"
       transform="translate(0,796.36216)" />
    <path
       style="opacity:1;fill:#808000;fill-opacity:1;stroke-width:0;stroke-miterlimit:4;stroke-dasharray:none"
       d=""
       id="path4974"
       inkscape:connector-curvature="0"
       transform="translate(0,796.36216)" />
    <path
       style="opacity:1;fill:#808000;fill-opacity:1;stroke-width:0;stroke-miterlimit:4;stroke-dasharray:none"
       d=""
       id="path4976"
       inkscape:connector-curvature="0"
       transform="translate(0,796.36216)" />
    <path
       style="opacity:1;fill:#808000;fill-opacity:1;stroke-width:0;stroke-miterlimit:4;stroke-dasharray:none"
       d=""
       id="path4978"
       inkscape:connector-curvature="0"
       transform="translate(0,796.36216)" />
    <path
       style="opacity:1;fill:#808000;fill-opacity:1;stroke-width:0;stroke-miterlimit:4;stroke-dasharray:none"
       d=""
       id="path4980"
       inkscape:connector-curvature="0"
       transform="translate(0,796.36216)" />
    <path
       style="opacity:1;fill:#808000;fill-opacity:1;stroke-width:0;stroke-miterlimit:4;stroke-dasharray:none"
       d=""
       id="path4982"
       inkscape:connector-curvature="0"
       transform="translate(0,796.36216)" />
    <path
       style="opacity:1;fill:#808000;fill-opacity:1;stroke-width:0;stroke-miterlimit:4;stroke-dasharray:none"
       d=""
       id="path5006"
       inkscape:connector-curvature="0"
       transform="translate(0,796.36216)" />
    <path
       style="opacity:1;fill:#ffffff;fill-opacity:1;stroke-width:0;stroke-miterlimit:4;stroke-dasharray:none"
       d="m 173.10958,867.54057 -11.01112,6.76252 c -6.05562,3.71941 -14.27192,8.85049 -18.25953,11.40311 -4.76857,3.05253 -9.17256,4.28487 -12.86312,3.59605 -3.64967,-0.68116 -10.18946,1.09452 -18.71021,5.08186 -7.60002,3.55647 -18.512416,6.697 -25.989146,7.47846 -7.088216,0.74087 -14.479026,2.50952 -16.423964,3.9317 -3.266376,2.38842 -3.088532,3.2303 2.321477,11.03694 l 5.856469,8.45257 -10.79282,14.56022 c -5.15019,6.94721 -10.061435,12.78208 -11.893691,14.21046 a 99.578558,99.578558 0 0 0 76.145935,46.32614 c 0.39361,-1.16724 2.62181,-4.59164 5.31426,-8.12164 2.96746,-3.8906 5.88742,-10.7382 6.4879,-15.21518 0.60051,-4.4771 1.9002,-8.14039 2.8895,-8.14039 0.98931,0 1.80037,-2.82529 1.80037,-6.27899 0,-3.46809 1.2967,-6.77768 2.89656,-7.3916 1.59323,-0.61137 3.89646,-5.08396 5.11942,-9.94075 2.24301,-8.90781 14.07432,-23.08707 25.75208,-30.86211 7.45646,-4.96453 8.02896,-16.91838 0.92717,-19.33459 -2.56347,-0.87217 -5.35879,-1.40172 -6.21326,-1.176 -2.02609,0.53523 -1.96273,-0.31271 0.50466,-6.80243 1.49932,-3.94347 1.25427,-7.33547 -0.90135,-12.4946 l -2.95759,-7.08175 z"
       id="path5133"
       inkscape:connector-curvature="0" />
  </g>
</svg>
