<?xml version="1.0" encoding="UTF-8" standalone="no"?>
<!-- Created with Inkscape (http://www.inkscape.org/) -->

<svg
   xmlns:dc="http://purl.org/dc/elements/1.1/"
   xmlns:cc="http://creativecommons.org/ns#"
   xmlns:rdf="http://www.w3.org/1999/02/22-rdf-syntax-ns#"
   xmlns:svg="http://www.w3.org/2000/svg"
   xmlns="http://www.w3.org/2000/svg"
   xmlns:sodipodi="http://sodipodi.sourceforge.net/DTD/sodipodi-0.dtd"
   xmlns:inkscape="http://www.inkscape.org/namespaces/inkscape"
   width="256"
   height="256"
   viewBox="0 0 256 256"
   id="svg2"
   version="1.1"
   inkscape:version="0.91 r13725"
   sodipodi:docname="anjuta.svg">
  <defs
     id="defs4" />
  <sodipodi:namedview
     id="base"
     pagecolor="#ffffff"
     bordercolor="#666666"
     borderopacity="1.0"
     inkscape:pageopacity="0.0"
     inkscape:pageshadow="2"
     inkscape:zoom="2.8"
     inkscape:cx="106.82022"
     inkscape:cy="132.31798"
     inkscape:document-units="px"
     inkscape:current-layer="layer1"
     showgrid="false"
     units="px"
     inkscape:window-width="1366"
     inkscape:window-height="714"
     inkscape:window-x="0"
     inkscape:window-y="32"
     inkscape:window-maximized="1" />
  <metadata
     id="metadata7">
    <rdf:RDF>
      <cc:Work
         rdf:about="">
        <dc:format>image/svg+xml</dc:format>
        <dc:type
           rdf:resource="http://purl.org/dc/dcmitype/StillImage" />
        <dc:title></dc:title>
      </cc:Work>
    </rdf:RDF>
  </metadata>
  <g
     inkscape:label="Layer 1"
     inkscape:groupmode="layer"
     id="layer1"
     transform="translate(0,-796.36216)">
    <rect
       style="fill:#4d4d4d;fill-rule:evenodd;stroke:#000000;stroke-width:0;stroke-linecap:butt;stroke-linejoin:miter;stroke-opacity:1;stroke-miterlimit:4;stroke-dasharray:none;fill-opacity:1"
       id="rect3336"
       width="202.61562"
       height="202.61562"
       x="-664.62292"
       y="642.82465"
       ry="46.696564"
       transform="matrix(0.70710678,-0.70710678,0.70710678,0.70710678,0,0)" />
    <path
       style="fill:#ffffff;fill-opacity:1;fill-rule:evenodd;stroke:#000000;stroke-width:0;stroke-linecap:butt;stroke-linejoin:miter;stroke-miterlimit:4;stroke-dasharray:none;stroke-opacity:1"
       d="m 127.83221,800.15617 c -11.95373,0 -23.90753,4.57894 -33.067107,13.73851 l -77.343678,77.34367 c -18.31912912,18.31912 -18.31912912,47.81505 0,66.13417 l 77.343678,77.34368 c 18.319137,18.3192 47.815067,18.3192 66.134187,0 l 77.34368,-77.34368 c 18.31912,-18.31912 18.31912,-47.81505 0,-66.13417 l -77.34368,-77.34367 c -9.15956,-9.15957 -21.11336,-13.73851 -33.06708,-13.73851 z m 0.0606,7.38757 c 11.26499,0 22.53018,4.3165 31.162,12.94832 l 72.88804,72.88608 c 17.26364,17.26363 17.26364,45.06038 0,62.32401 l -72.88804,72.88615 c -17.26362,17.2636 -45.06037,17.2636 -62.32402,0 L 23.844694,955.70216 c -17.2636309,-17.26363 -17.2636309,-45.06038 0,-62.32402 L 96.73078,820.49206 c 8.63183,-8.63182 19.89703,-12.94832 31.16202,-12.94832 z"
       id="rect3336-36"
       inkscape:connector-curvature="0" />
    <path
       style="opacity:1;fill:#ffffff;fill-opacity:1;stroke-width:0;stroke-miterlimit:4;stroke-dasharray:none"
       d="m 71.37802,960.6501 c -4.400883,-6.7232 -8.572038,-22.35673 -8.54155,-32.01384 0.01731,-5.47695 1.806952,-19.32789 2.960519,-22.91273 1.951166,-6.06347 3.527447,-5.26609 3.54522,1.79339 0.0125,4.9741 2.499932,19.77382 3.489775,20.76367 0.378347,0.37834 0.943665,0.25752 1.362672,-0.29125 0.827023,-1.08316 3.866693,-12.9837 3.866693,-15.13842 0,-2.62938 4.362724,-12.81877 6.81584,-15.91876 3.381322,-4.27297 16.481301,-13.22413 17.647181,-12.05824 0.20641,0.20641 -1.13144,2.51505 -2.973003,5.1303 -1.84156,2.61526 -4.81777,6.84148 -6.6138,9.3916 -1.79603,2.55012 -3.265681,5.08089 -3.265882,5.62394 -2.01e-4,0.54303 -0.68788,2.78337 -1.528186,4.97852 -0.840298,2.19515 -2.155062,8.23634 -2.921691,13.42487 -1.749984,11.84388 -6.774081,33.30861 -8.483463,36.24438 -1.626108,2.79276 -3.902288,3.20999 -5.360325,0.98257 z"
       id="path4416"
       inkscape:connector-curvature="0" />
    <path
       style="opacity:1;fill:#ffffff;fill-opacity:1;stroke-width:0;stroke-miterlimit:4;stroke-dasharray:none"
       d="m 95.891737,875.59873 c -1.29506,-4.45483 -1.44281,-11.49873 -0.39722,-18.93712 1.02934,-7.32272 1.46173,-9.07086 2.24366,-9.07086 0.38176,0 1.9233,2.53077 3.425623,5.62393 1.50233,3.09317 4.42955,8.17868 6.50492,11.30114 2.07537,3.12246 3.7734,5.81651 3.7734,5.98677 0,1.17341 -2.07633,-0.19612 -4.53907,-2.99395 -3.56564,-4.05078 -5.65801,-4.15594 -6.46315,-0.32483 -0.29357,1.39691 -0.34615,3.76072 -0.11685,5.2529 0.46556,3.02961 -0.874973,7.08347 -2.342343,7.08347 -0.52381,0 -1.45973,-1.75692 -2.08897,-3.92145 z"
       id="path4418"
       inkscape:connector-curvature="0" />
    <path
       style="opacity:1;fill:#ffffff;fill-opacity:1;stroke-width:0;stroke-miterlimit:4;stroke-dasharray:none"
       d="m 131.67408,865.5731 c 0,-1.95783 0.37696,-4.62811 0.83768,-5.93393 0.4889,-1.3857 0.83767,-4.32136 0.83767,-7.05083 0,-5.75002 0.36207,-5.87016 5.91576,-1.96311 5.13382,3.61169 6.37014,5.82946 6.37014,11.42704 0,2.31857 -0.28735,4.92303 -0.63855,5.78767 l -0.63854,1.5721 -0.54788,-1.95457 c -2.64963,-9.45252 -2.65959,-9.47662 -4.05964,-9.82801 -2.07197,-0.52004 -2.84023,0.0169 -3.81529,2.66646 -0.48874,1.32811 -1.41424,3.85971 -2.05666,5.62581 -0.64242,1.7661 -1.40128,3.21109 -1.68636,3.21109 -0.28508,0 -0.51833,-1.60187 -0.51833,-3.55972 z"
       id="path4420"
       inkscape:connector-curvature="0" />
    <path
       style="opacity:1;fill:#ffffff;fill-opacity:1;stroke-width:0;stroke-miterlimit:4;stroke-dasharray:none"
       d="m 184.62001,965.90108 c -3.38387,-0.61322 -9.1813,-3.55411 -10.76281,-5.45971 -0.71551,-0.86214 0.49851,-0.95036 8.12123,-0.59019 9.69993,0.45833 10.93892,0.15629 16.40532,-3.99923 3.57453,-2.71733 4.51331,-5.1427 4.66893,-12.06232 0.1655,-7.3593 -0.0284,-7.64402 -7.93865,-11.65869 -6.32032,-3.20773 -13.08969,-9.23899 -23.53105,-20.96527 -5.0411,-5.66147 -6.87135,-8.34423 -8.66375,-12.69921 -1.24985,-3.03677 -2.64896,-5.91525 -3.10912,-6.39663 -0.46017,-0.48138 -3.56615,-1.84928 -6.90218,-3.03977 -7.32668,-2.6146 -11.28074,-5.11698 -12.83516,-8.12288 -0.63923,-1.23615 -1.02535,-2.38442 -0.85805,-2.55173 0.1673,-0.1673 1.7425,0.95545 3.50043,2.495 4.18795,3.66769 4.87838,3.98187 12.99278,5.91244 8.30393,1.97565 9.87895,2.86863 10.54073,5.97616 0.90746,4.2612 7.33523,13.93017 12.49424,18.79447 4.50226,4.24506 11.75512,9.79078 20.43107,15.62211 4.10336,2.75797 7.9281,6.88817 10.59859,11.44503 2.39503,4.08681 3.2682,11.42189 1.78571,15.00094 -1.01979,2.46199 -8.82008,9.3077 -12.70752,11.15241 -2.96666,1.40777 -9.76724,1.95593 -14.23074,1.14707 z"
       id="path4422"
       inkscape:connector-curvature="0" />
    <path
       style="opacity:1;fill:#ffffff;fill-opacity:1;stroke-width:0;stroke-miterlimit:4;stroke-dasharray:none"
       d="m 121.24579,948.16271 c -6.69772,-1.88557 -9.27683,-7.34048 -10.15306,-21.47404 -0.4349,-7.01521 -0.38276,-7.49546 0.65745,-6.05513 0.62141,0.86042 1.42875,3.63611 1.79412,6.16819 0.85751,5.94289 4.3945,13.0211 7.80748,15.6243 l 2.64695,2.01893 13.49618,0.0609 c 11.01475,0.0496 14.22999,0.30469 17.48735,1.387 3.7732,1.25371 3.88274,1.35642 2.00557,1.8806 -1.09208,0.30495 -8.76603,0.74668 -17.05321,0.98161 -11.77744,0.33387 -15.85835,0.20453 -18.68883,-0.59232 z"
       id="path4424"
       inkscape:connector-curvature="0" />
    <path
       style="opacity:1;fill:#ffffff;fill-opacity:1;stroke-width:0;stroke-miterlimit:4;stroke-dasharray:none"
       d="m 139.14218,981.15973 c -5.62508,-4.68122 -7.38133,-8.27492 -7.38133,-15.10398 0,-2.84139 0.39364,-6.08544 0.87475,-7.20899 0.81935,-1.91343 0.89992,-1.72107 1.27201,3.03685 0.47812,6.11369 1.03057,6.98807 9.08694,14.38214 6.208,5.69763 7.16157,7.21972 5.03451,8.03594 -2.67194,1.02534 -4.77125,0.28311 -8.88688,-3.14196 z"
       id="path4426"
       inkscape:connector-curvature="0" />
  </g>
</svg>
