<?xml version="1.0" encoding="UTF-8" standalone="no"?>
<!-- Created with Inkscape (http://www.inkscape.org/) -->

<svg
   xmlns:dc="http://purl.org/dc/elements/1.1/"
   xmlns:cc="http://creativecommons.org/ns#"
   xmlns:rdf="http://www.w3.org/1999/02/22-rdf-syntax-ns#"
   xmlns:svg="http://www.w3.org/2000/svg"
   xmlns="http://www.w3.org/2000/svg"
   xmlns:sodipodi="http://sodipodi.sourceforge.net/DTD/sodipodi-0.dtd"
   xmlns:inkscape="http://www.inkscape.org/namespaces/inkscape"
   width="256"
   height="256"
   viewBox="0 0 256 256"
   id="svg2"
   version="1.1"
   inkscape:version="0.91 r13725"
   sodipodi:docname="ardunio.svg">
  <defs
     id="defs4" />
  <sodipodi:namedview
     id="base"
     pagecolor="#ffffff"
     bordercolor="#666666"
     borderopacity="1.0"
     inkscape:pageopacity="0.0"
     inkscape:pageshadow="2"
     inkscape:zoom="0.98994949"
     inkscape:cx="176.55999"
     inkscape:cy="126.43945"
     inkscape:document-units="px"
     inkscape:current-layer="layer1"
     showgrid="false"
     units="px"
     inkscape:window-width="1366"
     inkscape:window-height="711"
     inkscape:window-x="0"
     inkscape:window-y="31"
     inkscape:window-maximized="1" />
  <metadata
     id="metadata7">
    <rdf:RDF>
      <cc:Work
         rdf:about="">
        <dc:format>image/svg+xml</dc:format>
        <dc:type
           rdf:resource="http://purl.org/dc/dcmitype/StillImage" />
        <dc:title></dc:title>
      </cc:Work>
    </rdf:RDF>
  </metadata>
  <g
     inkscape:label="Layer 1"
     inkscape:groupmode="layer"
     id="layer1"
     transform="translate(0,-796.36216)">
    <rect
       style="fill:#02a3a3;fill-rule:evenodd;stroke:#000000;stroke-width:0;stroke-linecap:butt;stroke-linejoin:miter;stroke-opacity:1;stroke-miterlimit:4;stroke-dasharray:none;fill-opacity:1"
       id="rect3336"
       width="202.61562"
       height="202.61562"
       x="-664.62292"
       y="642.82465"
       ry="46.696564"
       transform="matrix(0.70710678,-0.70710678,0.70710678,0.70710678,0,0)" />
    <path
       style="fill:#ffffff;fill-opacity:1;fill-rule:evenodd;stroke:#000000;stroke-width:0;stroke-linecap:butt;stroke-linejoin:miter;stroke-miterlimit:4;stroke-dasharray:none;stroke-opacity:1"
       d="m 127.83221,800.15617 c -11.95373,0 -23.90753,4.57894 -33.067107,13.73851 l -77.343678,77.34367 c -18.31912912,18.31912 -18.31912912,47.81505 0,66.13417 l 77.343678,77.34368 c 18.319137,18.3192 47.815067,18.3192 66.134187,0 l 77.34368,-77.34368 c 18.31912,-18.31912 18.31912,-47.81505 0,-66.13417 l -77.34368,-77.34367 c -9.15956,-9.15957 -21.11336,-13.73851 -33.06708,-13.73851 z m 0.0606,7.38757 c 11.26499,0 22.53018,4.3165 31.162,12.94832 l 72.88804,72.88608 c 17.26364,17.26363 17.26364,45.06038 0,62.32401 l -72.88804,72.88615 c -17.26362,17.2636 -45.06037,17.2636 -62.32402,0 L 23.844694,955.70216 c -17.2636309,-17.26363 -17.2636309,-45.06038 0,-62.32402 L 96.73078,820.49206 c 8.63183,-8.63182 19.89703,-12.94832 31.16202,-12.94832 z"
       id="rect3336-36"
       inkscape:connector-curvature="0" />
    <path
       style="opacity:1;fill:#ffffff;fill-opacity:1;stroke-width:0;stroke-miterlimit:4;stroke-dasharray:none"
       d="m 86.18041,959.09859 c -1.142222,-0.0799 -2.788793,-0.28822 -3.659058,-0.46283 -0.870258,-0.17467 -1.849318,-0.37102 -2.175662,-0.43625 -1.139632,-0.22793 -3.363909,-0.90866 -3.550295,-1.08657 -0.103336,-0.0987 -0.345667,-0.17937 -0.538501,-0.17937 -1.104816,0 -6.62579,-3.06707 -9.360759,-5.20018 -0.780311,-0.60862 -4.450207,-4.22615 -4.450207,-4.38669 0,-0.0456 -0.311736,-0.42138 -0.692741,-0.83536 -0.381007,-0.41405 -0.747248,-0.93074 -0.813872,-1.1483 -0.06664,-0.21757 -0.30534,-0.59679 -0.530433,-0.84271 -0.588255,-0.64258 -1.18103,-1.65441 -2.287386,-3.90422 -1.147471,-2.33342 -1.80802,-3.83327 -1.770264,-4.01949 0.01494,-0.0738 -0.088,-0.40104 -0.228735,-0.72738 -0.394097,-0.91389 -1.016673,-3.43354 -1.490506,-6.03251 -0.726911,-3.98711 -0.526739,-9.79041 0.490435,-14.21899 1.15702,-5.03734 3.232874,-9.61297 6.107193,-13.46168 1.054925,-1.41253 3.363506,-4.01301 3.985334,-4.48926 0.163162,-0.12497 0.56369,-0.46698 0.890032,-0.75996 0.887905,-0.79723 3.306531,-2.58938 4.387575,-3.25101 1.568889,-0.96027 4.672538,-2.41946 6.187259,-2.90891 0.493264,-0.15941 1.074851,-0.366 1.292416,-0.45907 0.440785,-0.18848 4.192942,-1.03634 6.329202,-1.4301 2.025869,-0.37341 8.586442,-0.31808 11.127824,0.0939 2.34767,0.38048 5.015059,0.99974 6.574159,1.52613 2.09112,0.70604 3.8506,1.39733 4.04086,1.58753 0.10547,0.10555 0.29184,0.19179 0.41415,0.19179 0.19144,0 1.97927,0.9694 4.44542,2.41036 3.40804,1.99127 9.88128,8.06918 12.99837,12.20451 0.45987,0.61008 1.08327,1.40672 1.38536,1.77034 0.50625,0.60928 1.50595,1.99723 2.76483,3.83861 0.79552,1.16357 0.80237,1.15993 2.58144,-1.36739 3.63438,-5.16297 8.60937,-10.669 12.26235,-13.57119 3.16858,-2.51741 7.80929,-5.27889 10.53195,-6.26706 0.38075,-0.13818 0.97274,-0.37432 1.31551,-0.52474 0.3428,-0.15042 0.7964,-0.27348 1.00801,-0.27348 0.2116,0 0.64318,-0.12762 0.95904,-0.28353 1.36393,-0.67331 8.50262,-1.69955 11.80005,-1.69625 3.08717,0 9.16285,1.05188 12.21208,2.10819 1.94575,0.67405 5.72483,2.50545 7.21923,3.49858 2.52369,1.67707 6.03253,4.70787 6.03253,5.21061 0,0.14335 0.0893,0.2606 0.19829,0.2606 0.25235,0 1.49026,1.36044 2.31797,2.54741 0.35049,0.50267 0.71593,1.00766 0.81212,1.12233 1.10866,1.32138 4.23296,7.82583 4.24631,8.84031 0.004,0.29918 0.075,0.54392 0.15795,0.54392 0.16636,0 0.54267,1.28887 1.03947,3.56016 0.44306,2.02557 0.91588,7.4638 0.81683,9.39493 -0.22466,4.37976 -1.49003,9.74943 -3.19272,13.54846 -0.62318,1.39046 -1.49555,3.07309 -1.7432,3.36235 -0.1397,0.16318 -0.41119,0.60824 -0.60334,0.98898 -0.19213,0.38072 -0.60338,1.00177 -0.91389,1.38014 -0.31051,0.3783 -0.56456,0.75923 -0.56456,0.84653 0,0.21049 -2.05164,2.63413 -2.97057,3.50916 -1.82632,1.73907 -4.16138,3.65996 -5.16928,4.25245 -2.57774,1.51516 -3.55813,2.06416 -4.22187,2.36434 -0.43514,0.19682 -1.14164,0.52409 -1.57,0.72738 -0.42837,0.20323 -0.89685,0.36951 -1.04107,0.36951 -0.14421,0 -0.41676,0.0841 -0.60567,0.18677 -1.07765,0.58588 -4.57751,1.40109 -7.76045,1.80768 -3.68262,0.47034 -11.2289,0.23171 -13.35067,-0.42225 -0.32634,-0.10058 -1.3944,-0.37183 -2.37345,-0.6028 -0.97905,-0.23098 -1.86909,-0.4882 -1.97788,-0.57161 -0.10878,-0.0834 -0.87001,-0.38153 -1.69161,-0.66241 -1.33886,-0.45781 -3.3609,-1.35919 -4.441,-1.97971 -3.19569,-1.8361 -3.55742,-2.05987 -4.74494,-2.93608 -2.12129,-1.56514 -4.11572,-3.31882 -6.23106,-5.47888 -1.87924,-1.91898 -3.95903,-4.24486 -4.23808,-4.7396 -0.10089,-0.17883 -0.28484,-0.41419 -0.40879,-0.52297 -0.33107,-0.29052 -1.88012,-2.21319 -1.88012,-2.33361 0,-0.20303 -2.61093,-3.60333 -2.88639,-3.7591 -0.31893,-0.18029 -0.67378,-0.0232 -0.67378,0.29873 0,0.11836 -0.29346,0.58039 -0.65215,1.0267 -0.35869,0.4463 -1.12586,1.47907 -1.70484,2.29495 -0.57897,0.81587 -1.15656,1.57239 -1.28353,1.68117 -0.12698,0.10879 -0.4481,0.50929 -0.71363,0.89003 -1.23584,1.77212 -5.23548,5.98836 -7.50765,7.91427 -0.7041,0.59679 -1.54963,1.33006 -1.87897,1.6295 -0.32936,0.29946 -0.77684,0.5985 -0.9944,0.66459 -0.21756,0.0661 -0.66259,0.36726 -0.98894,0.66917 -1.16641,1.07896 -3.86727,2.59856 -8.10929,4.56261 -0.61165,0.28319 -4.21352,1.38298 -5.538039,1.69102 -2.337802,0.54365 -3.203455,0.66975 -5.93362,0.86438 -2.997119,0.21367 -3.672249,0.21294 -6.823681,-0.007 l 0,0 z m 8.801002,-11.77785 c 2.936327,-0.45933 5.698558,-1.46237 8.950428,-3.25015 0.46234,-0.25418 0.8406,-0.53465 0.8406,-0.62322 0,-0.0886 0.0847,-0.16113 0.18832,-0.16113 0.24052,0 2.53103,-1.59864 3.62322,-2.52883 1.24299,-1.05856 4.20111,-4.13086 5.25403,-5.45675 0.50748,-0.63901 1.30097,-1.59883 1.76328,-2.13276 0.46234,-0.53408 0.84061,-1.03635 0.84061,-1.11632 0,-0.08 0.33377,-0.55548 0.7417,-1.05677 0.40793,-0.50128 0.87521,-1.1107 1.03839,-1.3543 0.16317,-0.24367 0.45244,-0.64695 0.6428,-0.89631 0.19038,-0.24928 0.34614,-0.54312 0.34614,-0.65283 0,-0.10976 0.0747,-0.22926 0.16585,-0.26547 0.28487,-0.11329 2.40538,-3.40817 2.40538,-3.73756 0,-0.51304 -4.46592,-7.06448 -6.55298,-9.61302 -0.63839,-0.7796 -1.16073,-1.46256 -1.16073,-1.51769 0,-0.11512 -0.30217,-0.43922 -3.21846,-3.45158 -1.17183,-1.21042 -2.6849,-2.62308 -3.36238,-3.13924 -0.67747,-0.5161 -1.27627,-0.99293 -1.33066,-1.05961 -0.47772,-0.58529 -4.66483,-2.84693 -6.530511,-3.5274 -3.318333,-1.21022 -5.8495,-1.61125 -10.170243,-1.61125 -2.702275,0 -3.663195,0.0828 -5.500156,0.47353 -3.360373,0.71489 -4.960595,1.29278 -7.025663,2.53737 -0.681817,0.41087 -1.295252,0.74707 -1.363192,0.74707 -0.06795,0 -0.622654,0.42053 -1.232685,0.93458 -5.194578,4.37669 -7.867629,9.7793 -8.540643,17.26188 -0.633038,7.03819 1.704352,13.92807 6.433138,18.96269 3.424269,3.64575 8.732381,6.02709 14.645675,6.57033 2.105911,0.19345 5.671433,0.0462 8.108742,-0.33526 z m 78.324398,-0.008 c 4.76711,-0.80649 8.74836,-2.81297 12.01349,-6.05459 2.49088,-2.47292 4.2482,-5.45177 5.45766,-9.25138 0.88381,-2.77656 1.05055,-3.76023 1.16884,-6.89623 0.13636,-3.61509 -0.17957,-6.14525 -1.13968,-9.1272 -0.76229,-2.36752 -2.09376,-5.33229 -2.39471,-5.33229 -0.095,0 -0.17265,-0.09 -0.17265,-0.20006 0,-0.44491 -1.65118,-2.5595 -3.10372,-3.97475 -3.19313,-3.11122 -7.32804,-5.18226 -12.02702,-6.02397 -1.84757,-0.33091 -7.73738,-0.38438 -9.50693,-0.0862 -1.8257,0.30757 -3.32995,0.64628 -3.54705,0.79862 -0.10878,0.0764 -0.54574,0.20164 -0.97102,0.27837 -2.1201,0.38265 -6.635,2.98275 -9.61061,5.53459 -3.01328,2.58416 -8.41041,8.91578 -10.59136,12.42519 -0.321,0.5165 -0.65038,0.93927 -0.73197,0.93946 -0.0816,1.4e-4 -0.14833,0.08 -0.14833,0.17718 0,0.0973 -0.48954,0.89988 -1.08785,1.78356 -0.59829,0.88368 -1.08761,1.67194 -1.08735,1.75164 9e-4,0.35767 4.82155,7.27894 6.76509,9.71356 7.06877,8.85484 14.02064,13.13486 22.40809,13.79588 0.87027,0.0686 1.62681,0.1676 1.68119,0.22008 0.17426,0.16813 4.78435,-0.15987 6.62589,-0.47142 z"
       id="path4380"
       inkscape:connector-curvature="0" />
    <path
       style="opacity:1;fill:#ffffff;fill-opacity:1;stroke-width:0;stroke-miterlimit:4;stroke-dasharray:none"
       d="m 77.464532,928.6994 c -0.08358,-0.93643 -0.105664,-7.21623 -0.02921,-8.30703 l 0.100489,-1.43396 12.233803,0 12.233806,0 0,4.94468 0,4.94468 -12.262826,0 c -6.744559,0 -12.268778,-0.0668 -12.27606,-0.14837 z"
       id="path4382"
       inkscape:connector-curvature="0" />
    <path
       style="opacity:1;fill:#ffffff;fill-opacity:1;stroke-width:0;stroke-miterlimit:4;stroke-dasharray:none"
       d="m 161.19132,936.03491 c -0.184,-0.0742 -0.24724,-0.94916 -0.24724,-3.42144 0,-2.50015 -0.0642,-3.37498 -0.25954,-3.5371 -0.14573,-0.12094 -1.295,-0.23998 -2.62069,-0.27142 -2.10296,-0.0503 -2.35934,-0.0939 -2.34467,-0.40222 0.009,-0.19034 0.0313,-2.39324 0.0495,-4.89525 l 0.0329,-4.54907 2.33389,0 c 1.55154,0 2.41345,-0.0795 2.57124,-0.23739 0.1663,-0.16627 0.23734,-1.26144 0.23734,-3.65903 l 0,-3.42172 7.02146,0 c 3.86181,0 7.03644,0.0225 7.05476,0.0495 0.0183,0.0271 0.0851,1.6515 0.14835,3.6096 l 0.11504,3.56017 2.52178,0.0555 2.52178,0.0556 0,4.93873 0,4.93879 -2.324,0 c -1.27819,0 -2.44983,0.0827 -2.60366,0.18003 -0.22666,0.14354 -0.27097,0.83629 -0.23379,3.65606 l 0.0459,3.47901 -6.88655,-0.0159 c -3.78759,-0.009 -6.9978,-0.0608 -7.13376,-0.11538 z"
       id="path4384"
       inkscape:connector-curvature="0" />
  </g>
</svg>
