<?xml version="1.0" encoding="UTF-8" standalone="no"?>
<!-- Created with Inkscape (http://www.inkscape.org/) -->

<svg
   xmlns:dc="http://purl.org/dc/elements/1.1/"
   xmlns:cc="http://creativecommons.org/ns#"
   xmlns:rdf="http://www.w3.org/1999/02/22-rdf-syntax-ns#"
   xmlns:svg="http://www.w3.org/2000/svg"
   xmlns="http://www.w3.org/2000/svg"
   xmlns:sodipodi="http://sodipodi.sourceforge.net/DTD/sodipodi-0.dtd"
   xmlns:inkscape="http://www.inkscape.org/namespaces/inkscape"
   width="256"
   height="256"
   viewBox="0 0 256 256"
   id="svg2"
   version="1.1"
   inkscape:version="0.91 r13725"
   sodipodi:docname="atom.svg">
  <defs
     id="defs4" />
  <sodipodi:namedview
     id="base"
     pagecolor="#ffffff"
     bordercolor="#666666"
     borderopacity="1.0"
     inkscape:pageopacity="0.0"
     inkscape:pageshadow="2"
     inkscape:zoom="1.4"
     inkscape:cx="201.69899"
     inkscape:cy="90.194517"
     inkscape:document-units="px"
     inkscape:current-layer="layer1"
     showgrid="false"
     units="px"
     inkscape:window-width="1366"
     inkscape:window-height="719"
     inkscape:window-x="0"
     inkscape:window-y="23"
     inkscape:window-maximized="1" />
  <metadata
     id="metadata7">
    <rdf:RDF>
      <cc:Work
         rdf:about="">
        <dc:format>image/svg+xml</dc:format>
        <dc:type
           rdf:resource="http://purl.org/dc/dcmitype/StillImage" />
        <dc:title />
      </cc:Work>
    </rdf:RDF>
  </metadata>
  <g
     inkscape:label="Layer 1"
     inkscape:groupmode="layer"
     id="layer1"
     transform="translate(0,-796.36216)">
    <rect
       style="fill:#2ca05a;fill-rule:evenodd;stroke:#000000;stroke-width:0;stroke-linecap:butt;stroke-linejoin:miter;stroke-opacity:1;stroke-miterlimit:4;stroke-dasharray:none;fill-opacity:1"
       id="rect3336"
       width="202.61562"
       height="202.61562"
       x="-664.62292"
       y="642.82465"
       ry="46.696564"
       transform="matrix(0.70710678,-0.70710678,0.70710678,0.70710678,0,0)" />
    <path
       style="fill:#ffffff;fill-opacity:1;stroke-width:0;stroke-miterlimit:4;stroke-dasharray:none"
       d="m 124.46081,932.49532 c -2.37011,-0.98035 -4.67505,-3.9635 -5.1038,-6.60557 -0.80529,-4.96242 3.1771,-9.14155 8.71119,-9.14155 3.68371,0 7.46404,3.78033 7.46404,7.46404 0,6.3588 -5.59808,10.54701 -11.07143,8.28308 z"
       id="path4272"
       inkscape:connector-curvature="0" />
    <path
       style="fill:#ffffff;fill-opacity:1;stroke-width:0;stroke-miterlimit:4;stroke-dasharray:none"
       d="m 145.67701,989.37208 c -12.08907,-5.08733 -26.3724,-20.13989 -38.97178,-41.07058 -2.52437,-4.1936 -5.87826,-10.27803 -7.453104,-13.52093 -1.574839,-3.24291 -3.1052,-5.74672 -3.400802,-5.56403 -0.98766,0.61041 -7.084143,15.66686 -8.930108,22.05464 -3.45612,11.95957 -4.026548,19.16987 -1.982709,25.06175 1.604178,4.62444 3.894353,6.27639 8.650215,6.23954 3.963687,-0.0307 9.239058,-2.08666 15.255928,-5.94567 2.7799,-1.78293 3.59592,-2.02053 4.46429,-1.29985 2.70695,2.24658 0.28248,5.04744 -7.91619,9.14512 -20.905349,10.44848 -31.817264,-3.97212 -24.221309,-32.00959 2.052964,-7.57771 6.023982,-17.85886 9.755688,-25.25793 l 2.471701,-4.90079 -3.263651,-9.5586 c -2.403788,-7.04023 -3.571931,-9.55989 -4.433745,-9.5635 -2.304392,-0.01 -13.617158,3.61886 -17.685314,5.67246 -9.32783,4.70867 -12.663967,10.05052 -9.770861,15.64517 1.367423,2.6443 6.749012,7.52306 10.292511,9.33081 3.393856,1.73142 3.938113,2.44252 3.33173,4.35306 -0.633861,1.99711 -2.914781,1.78424 -7.196478,-0.67163 -4.600178,-2.63854 -9.617184,-7.50376 -11.210456,-10.87128 -1.551457,-3.27915 -1.585386,-8.5783 -0.0753,-11.76057 2.785926,-5.8709 12.087409,-11.67195 24.02904,-14.98618 3.628944,-1.00716 6.944749,-1.93492 7.368453,-2.06169 0.541896,-0.16213 0.497345,-1.78693 -0.150219,-5.47848 -1.30949,-7.46497 -1.22791,-19.26109 0.167603,-24.23466 2.110312,-7.52109 6.788181,-11.37047 13.817704,-11.37047 4.468303,0 8.310913,1.46785 14.560043,5.56183 5.1849,3.39678 6.14404,4.6489 4.97876,6.49954 -1.184,1.88036 -2.64227,1.69806 -5.6193,-0.70249 -1.54587,-1.24652 -4.83942,-3.22678 -7.31899,-4.40058 -5.639113,-2.66947 -10.202148,-2.49677 -12.76535,0.48313 -2.327619,2.70601 -3.797766,8.43595 -3.797766,14.80189 0,5.85954 1.19924,15.51558 2.109987,16.9892 0.416209,0.67345 1.796546,0.69754 6.051999,0.10567 3.032047,-0.42172 7.39631,-0.76677 9.69836,-0.76677 l 4.18554,0 5.31684,-6.26676 c 11.55187,-13.61578 24.86823,-24.28042 34.6115,-27.71922 7.87178,-2.77827 13.41073,-2.03897 17.68319,2.36023 3.68085,3.79006 4.91424,8.70599 4.43342,17.67047 -0.4397,8.1977 -0.78875,9.43208 -2.8524,10.08706 -1.74165,0.55278 -3.65627,-1.52879 -2.99313,-3.25414 0.23083,-0.60056 0.59753,-3.66335 0.8149,-6.80621 0.47294,-6.83837 -0.49287,-10.96833 -3.2996,-14.1096 -1.79982,-2.01436 -2.4548,-2.26784 -5.85779,-2.26697 -8.58974,0.002 -22.50138,9.28048 -35.20133,23.47733 -5.8176,6.50329 -5.68929,6.80076 2.9405,6.81688 16.96947,0.0317 41.24165,5.25053 54.91245,11.80691 12.25245,5.87614 18.15985,12.21492 18.15985,19.48592 0,4.85255 -1.42038,7.87021 -5.45486,11.58906 -4.29594,3.95986 -12.81961,8.05252 -14.6881,7.05254 -2.68785,-1.4385 -1.25878,-3.56801 4.27649,-6.37257 7.83877,-3.97167 10.86647,-7.37848 10.86647,-12.22706 0,-7.48242 -13.7293,-16.12658 -33.80693,-21.28533 -11.31812,-2.90807 -21.92797,-4.36501 -35.21712,-4.83599 l -11.52405,-0.40842 -3.32484,4.56722 c -1.82866,2.51198 -5.13588,7.55957 -7.34938,11.21687 l -4.024543,6.64965 5.414313,10.85035 c 16.63784,33.34248 41.2266,57.49244 52.56644,51.62838 3.7372,-1.93258 5.31339,-6.01281 5.68591,-14.71889 0.53205,-12.43484 -3.57998,-29.63977 -11.2494,-47.06799 -3.187,-7.2422 -3.35245,-8.07087 -1.85891,-9.31039 1.98169,-1.64467 3.74368,0.44748 7.12656,8.46197 8.68235,20.56958 12.60906,39.01178 11.03522,51.8281 -0.8323,6.77772 -2.899,11.26068 -6.55579,14.22036 -3.73423,3.02237 -9.78701,3.38397 -15.612,0.9327 z m -43.23896,-82.06082 c 2.27588,-3.54961 3.98998,-6.60181 3.80911,-6.78267 -0.36008,-0.36009 -13.435896,1.1132 -13.887427,1.56473 -0.15341,0.15341 0.769158,3.42491 2.05015,7.27 1.952668,5.86122 2.455226,6.78184 3.109647,5.69642 0.429314,-0.71206 2.64265,-4.19888 4.91852,-7.74848 z"
       id="path4274"
       inkscape:connector-curvature="0" />
    <path
       style="fill:#ffffff;fill-opacity:1;fill-rule:evenodd;stroke:#000000;stroke-width:0;stroke-linecap:butt;stroke-linejoin:miter;stroke-miterlimit:4;stroke-dasharray:none;stroke-opacity:1"
       d="m 127.84314,800.24997 c -11.95373,0 -23.90753,4.57894 -33.067105,13.73851 l -77.343678,77.34367 c -18.31912902,18.31913 -18.31912902,47.81505 0,66.13418 L 94.776035,1034.81 c 18.319135,18.3192 47.815065,18.3192 66.134185,0 l 77.34368,-77.34367 c 18.31912,-18.31913 18.31912,-47.81505 0,-66.13418 l -77.34368,-77.34367 c -9.15956,-9.15957 -21.11336,-13.73851 -33.06708,-13.73851 z m 0.0606,7.38757 c 11.26499,0 22.53018,4.3165 31.162,12.94832 l 72.88804,72.88608 c 17.26364,17.26364 17.26364,45.06039 0,62.32402 l -72.88804,72.88614 c -17.26362,17.2636 -45.06037,17.2636 -62.324018,0 L 23.855626,955.79596 c -17.2636309,-17.26363 -17.2636309,-45.06038 0,-62.32402 l 72.886086,-72.88608 c 8.631828,-8.63182 19.897028,-12.94832 31.162018,-12.94832 z"
       id="rect3336-36"
       inkscape:connector-curvature="0" />
  </g>
</svg>
