<?xml version="1.0" encoding="UTF-8" standalone="no"?>
<!-- Created with Inkscape (http://www.inkscape.org/) -->

<svg
   xmlns:dc="http://purl.org/dc/elements/1.1/"
   xmlns:cc="http://creativecommons.org/ns#"
   xmlns:rdf="http://www.w3.org/1999/02/22-rdf-syntax-ns#"
   xmlns:svg="http://www.w3.org/2000/svg"
   xmlns="http://www.w3.org/2000/svg"
   xmlns:sodipodi="http://sodipodi.sourceforge.net/DTD/sodipodi-0.dtd"
   xmlns:inkscape="http://www.inkscape.org/namespaces/inkscape"
   width="256"
   height="256"
   viewBox="0 0 256 256"
   id="svg2"
   version="1.1"
   inkscape:version="0.91 r13725"
   sodipodi:docname="blender.svg">
  <defs
     id="defs4" />
  <sodipodi:namedview
     id="base"
     pagecolor="#ffffff"
     bordercolor="#666666"
     borderopacity="1.0"
     inkscape:pageopacity="0.0"
     inkscape:pageshadow="2"
     inkscape:zoom="1.4"
     inkscape:cx="170.9519"
     inkscape:cy="76.613623"
     inkscape:document-units="px"
     inkscape:current-layer="layer1"
     showgrid="false"
     units="px"
     inkscape:window-width="1366"
     inkscape:window-height="714"
     inkscape:window-x="0"
     inkscape:window-y="32"
     inkscape:window-maximized="1" />
  <metadata
     id="metadata7">
    <rdf:RDF>
      <cc:Work
         rdf:about="">
        <dc:format>image/svg+xml</dc:format>
        <dc:type
           rdf:resource="http://purl.org/dc/dcmitype/StillImage" />
        <dc:title></dc:title>
      </cc:Work>
    </rdf:RDF>
  </metadata>
  <g
     inkscape:label="Layer 1"
     inkscape:groupmode="layer"
     id="layer1"
     transform="translate(0,-796.36216)">
    <rect
       style="fill:#ff5321;fill-rule:evenodd;stroke:#000000;stroke-width:0;stroke-linecap:butt;stroke-linejoin:miter;stroke-opacity:1;stroke-miterlimit:4;stroke-dasharray:none;fill-opacity:1"
       id="rect3336"
       width="202.61562"
       height="202.61562"
       x="-664.62292"
       y="642.82465"
       ry="46.696564"
       transform="matrix(0.70710678,-0.70710678,0.70710678,0.70710678,0,0)" />
    <path
       style="fill:#ffffff;fill-opacity:1;fill-rule:evenodd;stroke:#000000;stroke-width:0;stroke-linecap:butt;stroke-linejoin:miter;stroke-miterlimit:4;stroke-dasharray:none;stroke-opacity:1"
       d="m 127.83221,800.15617 c -11.95373,0 -23.90753,4.57894 -33.067107,13.73851 l -77.343678,77.34367 c -18.31912912,18.31912 -18.31912912,47.81505 0,66.13417 l 77.343678,77.34368 c 18.319137,18.3192 47.815067,18.3192 66.134187,0 l 77.34368,-77.34368 c 18.31912,-18.31912 18.31912,-47.81505 0,-66.13417 l -77.34368,-77.34367 c -9.15956,-9.15957 -21.11336,-13.73851 -33.06708,-13.73851 z m 0.0606,7.38757 c 11.26499,0 22.53018,4.3165 31.162,12.94832 l 72.88804,72.88608 c 17.26364,17.26363 17.26364,45.06038 0,62.32401 l -72.88804,72.88615 c -17.26362,17.2636 -45.06037,17.2636 -62.32402,0 L 23.844694,955.70216 c -17.2636309,-17.26363 -17.2636309,-45.06038 0,-62.32402 L 96.73078,820.49206 c 8.63183,-8.63182 19.89703,-12.94832 31.16202,-12.94832 z"
       id="rect3336-36"
       inkscape:connector-curvature="0" />
    <path
       style="opacity:1;fill:#ffffff;fill-opacity:1;stroke-width:0;stroke-miterlimit:4;stroke-dasharray:none"
       d="m 144.02793,942.82258 c -6.49397,-1.41087 -12.39667,-6.15064 -14.56075,-11.69196 -1.56622,-4.01057 -1.48681,-9.44043 0.191,-13.05847 7.18254,-15.48831 30.60927,-15.71024 37.88453,-0.35889 1.28716,2.716 1.47426,3.62688 1.47426,7.17699 0,3.41077 -0.20665,4.50711 -1.28206,6.80158 -2.62384,5.59814 -8.09059,9.76981 -14.61444,11.15217 -3.89942,0.82633 -5.20468,0.82323 -9.09254,-0.0212 z"
       id="path4284"
       inkscape:connector-curvature="0" />
    <path
       style="opacity:1;fill:#ffffff;fill-opacity:1;stroke-width:0;stroke-miterlimit:4;stroke-dasharray:none"
       d="m 137.79575,977.30263 c -11.20417,-2.1246 -20.17672,-6.6228 -27.86851,-13.9716 -5.1379,-4.9087 -7.79934,-8.5154 -10.539334,-14.2828 -2.976373,-6.26497 -3.99699,-10.34778 -3.976149,-15.90598 0.0092,-2.43376 -0.01134,-4.42498 -0.04517,-4.42498 -0.03396,0 -7.156083,5.81024 -15.826939,12.91168 -17.356424,14.21488 -18.85002,15.14568 -23.547486,14.67538 -1.386055,-0.1388 -3.254406,-0.7061 -4.151851,-1.2608 -1.841964,-1.1384 -3.613102,-4.3563 -3.613102,-6.5646 0,-1.9333 1.113876,-5.01404 2.483964,-6.8702 0.607123,-0.82255 13.911606,-11.3249 29.565542,-23.33864 L 108.7384,896.42692 91.996914,896.18774 c -11.214613,-0.16022 -17.150321,-0.423 -17.979851,-0.79597 -0.681106,-0.30623 -1.834425,-1.26517 -2.562942,-2.13096 -1.14247,-1.35776 -1.294542,-1.88676 -1.106091,-3.84802 0.284407,-2.95975 2.008102,-5.20518 5.227111,-6.80929 l 2.499195,-1.24539 31.997094,0 c 18.20802,0 31.92836,-0.1813 31.83761,-0.42069 -0.0877,-0.23137 -4.8107,-4.20239 -10.49553,-8.82446 -10.71292,-8.71018 -11.80859,-9.94742 -11.21253,-12.66129 0.91914,-4.18479 8.29291,-6.79566 12.7171,-4.5028 3.23558,1.67685 51.41623,39.03277 54.85047,42.52725 5.93262,6.03663 9.88091,13.02525 12.19739,21.58971 1.47953,5.47016 1.46871,15.56586 -0.0227,21.13242 -2.41271,9.00538 -5.81689,14.82558 -12.74802,21.79558 -7.5682,7.6106 -14.64938,11.6882 -25.03361,14.4153 -3.87452,1.0175 -5.94628,1.2422 -12.75803,1.3836 -5.56654,0.1156 -9.22895,-0.039 -11.60785,-0.4901 l 0,0 z m 15.67403,-22.3058 c 4.09399,-0.6613 9.00311,-2.3932 12.35862,-4.36 3.38236,-1.9826 9.04564,-7.52904 10.84427,-10.62054 9.58485,-16.4747 1.39445,-35.81832 -17.9511,-42.39574 -4.77982,-1.62513 -13.79886,-1.87993 -19.09919,-0.53959 -5.98146,1.51259 -10.51181,3.95737 -14.77953,7.97573 -6.54145,6.1592 -9.39582,12.58549 -9.34069,21.0295 0.0347,5.31401 1.00058,8.92362 3.64817,13.63368 1.83427,3.26319 7.40647,8.80226 10.98218,10.91696 6.7805,4.0099 15.46254,5.6319 23.33727,4.36 z"
       id="path4286"
       inkscape:connector-curvature="0" />
  </g>
</svg>
