<?xml version="1.0" encoding="UTF-8" standalone="no"?>
<!-- Created with Inkscape (http://www.inkscape.org/) -->

<svg
   xmlns:dc="http://purl.org/dc/elements/1.1/"
   xmlns:cc="http://creativecommons.org/ns#"
   xmlns:rdf="http://www.w3.org/1999/02/22-rdf-syntax-ns#"
   xmlns:svg="http://www.w3.org/2000/svg"
   xmlns="http://www.w3.org/2000/svg"
   xmlns:sodipodi="http://sodipodi.sourceforge.net/DTD/sodipodi-0.dtd"
   xmlns:inkscape="http://www.inkscape.org/namespaces/inkscape"
   width="256"
   height="256"
   viewBox="0 0 256 256"
   id="svg2"
   version="1.1"
   inkscape:version="0.91 r13725"
   sodipodi:docname="chromium-browser-old.svg">
  <defs
     id="defs4" />
  <sodipodi:namedview
     id="base"
     pagecolor="#ffffff"
     bordercolor="#666666"
     borderopacity="1.0"
     inkscape:pageopacity="0.0"
     inkscape:pageshadow="2"
     inkscape:zoom="0.98994949"
     inkscape:cx="-10.611063"
     inkscape:cy="68.338591"
     inkscape:document-units="px"
     inkscape:current-layer="layer1"
     showgrid="false"
     units="px"
     inkscape:window-width="1366"
     inkscape:window-height="711"
     inkscape:window-x="0"
     inkscape:window-y="31"
     inkscape:window-maximized="1" />
  <metadata
     id="metadata7">
    <rdf:RDF>
      <cc:Work
         rdf:about="">
        <dc:format>image/svg+xml</dc:format>
        <dc:type
           rdf:resource="http://purl.org/dc/dcmitype/StillImage" />
        <dc:title></dc:title>
      </cc:Work>
    </rdf:RDF>
  </metadata>
  <g
     inkscape:label="Layer 1"
     inkscape:groupmode="layer"
     id="layer1"
     transform="translate(0,-796.36216)">
    <rect
       style="fill:#5fbcd3;fill-rule:evenodd;stroke:#000000;stroke-width:0;stroke-linecap:butt;stroke-linejoin:miter;stroke-opacity:1;stroke-miterlimit:4;stroke-dasharray:none;fill-opacity:1"
       id="rect3336"
       width="202.61562"
       height="202.61562"
       x="-664.62292"
       y="642.82465"
       ry="46.696564"
       transform="matrix(0.70710678,-0.70710678,0.70710678,0.70710678,0,0)" />
    <path
       style="fill:#ffffff;fill-opacity:1;fill-rule:evenodd;stroke:#000000;stroke-width:0;stroke-linecap:butt;stroke-linejoin:miter;stroke-miterlimit:4;stroke-dasharray:none;stroke-opacity:1"
       d="m 127.83221,800.15617 c -11.95373,0 -23.90753,4.57894 -33.067107,13.73851 l -77.343678,77.34367 c -18.31912912,18.31912 -18.31912912,47.81505 0,66.13417 l 77.343678,77.34368 c 18.319137,18.3192 47.815067,18.3192 66.134187,0 l 77.34368,-77.34368 c 18.31912,-18.31912 18.31912,-47.81505 0,-66.13417 l -77.34368,-77.34367 c -9.15956,-9.15957 -21.11336,-13.73851 -33.06708,-13.73851 z m 0.0606,7.38757 c 11.26499,0 22.53018,4.3165 31.162,12.94832 l 72.88804,72.88608 c 17.26364,17.26363 17.26364,45.06038 0,62.32401 l -72.88804,72.88615 c -17.26362,17.2636 -45.06037,17.2636 -62.32402,0 L 23.844694,955.70216 c -17.2636309,-17.26363 -17.2636309,-45.06038 0,-62.32402 L 96.73078,820.49206 c 8.63183,-8.63182 19.89703,-12.94832 31.16202,-12.94832 z"
       id="rect3336-36"
       inkscape:connector-curvature="0" />
    <path
       style="fill:#ffffff;fill-opacity:1;stroke-width:0;stroke-miterlimit:4;stroke-dasharray:none"
       d="m 142.44813,968.38137 c 7.27543,-12.77686 14.17793,-25.16007 15.33887,-27.51828 4.58726,-9.31786 3.40678,-23.92258 -2.60436,-32.2207 l -3.17412,-4.38174 17.42281,0 17.42282,0 1.91252,6.26981 c 2.91761,9.56479 2.60873,25.91118 -0.68151,36.06786 -7.6488,23.61106 -28.85785,41.11509 -53.73383,44.34705 l -5.13125,0.6666 13.22805,-23.2306 z"
       id="path4343"
       inkscape:connector-curvature="0" />
    <path
       style="fill:#ffffff;fill-opacity:1;stroke-width:0;stroke-miterlimit:4;stroke-dasharray:none"
       d="m 85.98766,901.52488 -8.567324,-15.06888 6.730933,-6.19073 c 27.188281,-25.00628 69.270511,-22.09378 92.120791,6.37564 2.24258,2.79407 4.08263,5.41444 4.08901,5.82305 0.007,0.40862 -14.09549,0.89931 -31.33747,1.09041 l -31.34907,0.34746 -5.452,2.9044 c -6.3876,3.4028 -12.523938,9.53864 -15.530414,15.52917 l -2.137131,4.25835 -8.567325,-15.06887 z"
       id="path4345"
       inkscape:connector-curvature="0" />
    <path
       style="fill:#ffffff;fill-opacity:1;stroke-width:0;stroke-miterlimit:4;stroke-dasharray:none"
       d="M 109.61899,988.67506 C 99.85279,986.0551 90.966516,980.61364 82.146214,971.85227 64.677187,954.49994 58.764258,931.37326 65.894465,908.28835 c 4.106935,-13.29671 3.377037,-13.81563 19.056563,13.54827 7.691096,13.42248 15.746842,26.26838 17.901642,28.54646 6.23497,6.5916 14.38513,10.03328 23.75965,10.03328 l 7.84738,0 -2.83534,4.84136 c -1.55944,2.66276 -5.39218,9.26476 -8.5172,14.67111 -3.12501,5.40634 -6.11644,9.94056 -6.64764,10.07598 -0.53118,0.13542 -3.60942,-0.46296 -6.84053,-1.32975 z"
       id="path4347"
       inkscape:connector-curvature="0" />
    <path
       style="fill:#ffffff;fill-opacity:1;stroke-width:0;stroke-miterlimit:4;stroke-dasharray:none"
       d="m 121.88151,949.01737 c -14.506,-3.45919 -21.72436,-20.26037 -14.21198,-33.07931 7.13978,-12.18311 23.56772,-14.81828 34.42777,-5.5225 2.49154,2.13268 5.3023,5.3709 6.24613,7.19607 2.22606,4.30474 2.22606,14.79019 0,19.09492 -2.77523,5.3667 -10.09448,10.90327 -16.12318,12.19619 -5.92516,1.27072 -5.50998,1.26612 -10.33874,0.11463 z"
       id="path4349"
       inkscape:connector-curvature="0" />
  </g>
</svg>
