<?xml version="1.0" encoding="UTF-8" standalone="no"?>
<!-- Created with Inkscape (http://www.inkscape.org/) -->

<svg
   xmlns:dc="http://purl.org/dc/elements/1.1/"
   xmlns:cc="http://creativecommons.org/ns#"
   xmlns:rdf="http://www.w3.org/1999/02/22-rdf-syntax-ns#"
   xmlns:svg="http://www.w3.org/2000/svg"
   xmlns="http://www.w3.org/2000/svg"
   xmlns:sodipodi="http://sodipodi.sourceforge.net/DTD/sodipodi-0.dtd"
   xmlns:inkscape="http://www.inkscape.org/namespaces/inkscape"
   width="256"
   height="256"
   viewBox="0 0 256 256"
   id="svg2"
   version="1.1"
   inkscape:version="0.91 r13725"
   sodipodi:docname="clion.svg">
  <defs
     id="defs4" />
  <sodipodi:namedview
     id="base"
     pagecolor="#ffffff"
     bordercolor="#666666"
     borderopacity="1.0"
     inkscape:pageopacity="0.0"
     inkscape:pageshadow="2"
     inkscape:zoom="0.98994949"
     inkscape:cx="-7.9322925"
     inkscape:cy="118.4798"
     inkscape:document-units="px"
     inkscape:current-layer="layer1"
     showgrid="false"
     units="px"
     inkscape:window-width="1366"
     inkscape:window-height="711"
     inkscape:window-x="0"
     inkscape:window-y="31"
     inkscape:window-maximized="1" />
  <metadata
     id="metadata7">
    <rdf:RDF>
      <cc:Work
         rdf:about="">
        <dc:format>image/svg+xml</dc:format>
        <dc:type
           rdf:resource="http://purl.org/dc/dcmitype/StillImage" />
        <dc:title></dc:title>
      </cc:Work>
    </rdf:RDF>
  </metadata>
  <g
     inkscape:label="Layer 1"
     inkscape:groupmode="layer"
     id="layer1"
     transform="translate(0,-796.36216)">
    <rect
       style="fill:#214478;fill-rule:evenodd;stroke:#000000;stroke-width:0;stroke-linecap:butt;stroke-linejoin:miter;stroke-opacity:1;stroke-miterlimit:4;stroke-dasharray:none;fill-opacity:1"
       id="rect3336"
       width="202.61562"
       height="202.61562"
       x="-664.62292"
       y="642.82465"
       ry="46.696564"
       transform="matrix(0.70710678,-0.70710678,0.70710678,0.70710678,0,0)" />
    <path
       style="fill:#ffffff;fill-opacity:1;fill-rule:evenodd;stroke:#000000;stroke-width:0;stroke-linecap:butt;stroke-linejoin:miter;stroke-miterlimit:4;stroke-dasharray:none;stroke-opacity:1"
       d="m 127.83221,800.15617 c -11.95373,0 -23.90753,4.57894 -33.067107,13.73851 l -77.343678,77.34367 c -18.31912912,18.31912 -18.31912912,47.81505 0,66.13417 l 77.343678,77.34368 c 18.319137,18.3192 47.815067,18.3192 66.134187,0 l 77.34368,-77.34368 c 18.31912,-18.31912 18.31912,-47.81505 0,-66.13417 l -77.34368,-77.34367 c -9.15956,-9.15957 -21.11336,-13.73851 -33.06708,-13.73851 z m 0.0606,7.38757 c 11.26499,0 22.53018,4.3165 31.162,12.94832 l 72.88804,72.88608 c 17.26364,17.26363 17.26364,45.06038 0,62.32401 l -72.88804,72.88615 c -17.26362,17.2636 -45.06037,17.2636 -62.32402,0 L 23.844694,955.70216 c -17.2636309,-17.26363 -17.2636309,-45.06038 0,-62.32402 L 96.73078,820.49206 c 8.63183,-8.63182 19.89703,-12.94832 31.16202,-12.94832 z"
       id="rect3336-36"
       inkscape:connector-curvature="0" />
    <path
       style="opacity:1;fill:#ffffff;fill-opacity:1;stroke-width:0;stroke-miterlimit:4;stroke-dasharray:none"
       d="m 119.46624,989.03012 c -6.77678,-0.8799 -11.86055,-2.53493 -19.714095,-6.41798 -19.526527,-9.65472 -32.87825,-28.71637 -35.310044,-50.4105 -3.136086,-27.97719 12.390149,-55.74608 37.457319,-66.99296 9.70625,-4.3549 16.63108,-5.7595 28.24099,-5.72826 14.93676,0.0402 27.92713,2.26043 35.96281,6.14659 5.94807,2.87656 7.63438,4.89289 9.00469,10.76688 1.26759,5.43363 2.12151,6.9685 4.73627,8.51308 2.8607,1.68986 2.74683,3.82236 -0.34927,6.54077 -3.89651,3.42118 -6.90807,4.01713 -13.58488,2.68829 -7.44624,-1.48198 -16.73139,-2.58244 -21.78941,-2.58244 -9.69179,0 -18.84714,3.85868 -24.67829,10.40109 -4.68799,5.25979 -6.52034,9.1992 -6.52034,14.01812 0,3.17261 0.47313,4.57456 2.90414,8.60522 1.59728,2.64833 3.55224,6.78934 4.34436,9.20225 1.48315,4.51791 3.01407,7.16087 6.21385,10.72746 l 1.84314,2.05444 -3.38372,-0.4394 c -3.77798,-0.49059 -7.80141,-2.33445 -11.03962,-5.05923 -2.54317,-2.13993 -3.72969,-2.30476 -3.72969,-0.51811 0,1.93282 4.33234,6.62971 9.97037,10.80936 6.58505,4.8817 13.13257,7.1514 22.03192,7.63736 10.84489,0.5922 18.90934,-2.17926 27.47581,-9.44243 l 3.59522,-3.04827 2.03807,5.80664 c 1.12093,3.19365 2.16839,6.17624 2.32769,6.62797 0.15929,0.45174 -1.17439,1.82861 -2.96373,3.0597 -5.27515,3.62941 -3.9434,5.77612 1.77387,2.85939 l 2.83483,-1.44623 1.46841,3.40391 c 2.76489,6.40929 2.73885,6.44953 -6.12698,9.45202 -4.3069,1.45851 -11.6749,4.62542 -16.37333,7.0375 -6.99602,3.59157 -9.68721,4.57617 -14.86484,5.43837 -6.74555,1.1233 -16.46192,1.2415 -23.79552,0.2894 z m 49.55218,-108.29716 c 1.44112,-1.44112 0.98093,-4.01311 -0.94369,-5.27416 -1.68365,-1.10317 -1.8873,-1.0972 -3.20347,0.0939 -2.53207,2.29149 -1.41687,6.03451 1.79795,6.03451 0.82222,0 1.87937,-0.38443 2.34921,-0.85427 z"
       id="path4182"
       inkscape:connector-curvature="0" />
    <path
       style="opacity:1;fill:#ffffff;fill-opacity:1;stroke-width:0;stroke-miterlimit:4;stroke-dasharray:none"
       d="m 143.17704,944.70552 c -4.74082,-1.57352 -7.20774,-3.1377 -9.88922,-6.27042 -7.23736,-8.45521 -7.07362,-19.83635 0.40306,-28.01703 4.4257,-4.84242 9.20198,-6.96745 15.57308,-6.92867 7.85872,0.0478 14.23439,3.89381 18.13771,10.94113 1.88011,3.39449 2.11507,4.49089 2.11507,9.86972 0,4.85043 -0.32014,6.70071 -1.61351,9.32557 -2.06602,4.19296 -5.86688,7.98274 -9.91401,9.88511 -4.01694,1.88818 -11.02065,2.45303 -14.81218,1.19459 z"
       id="path4184"
       inkscape:connector-curvature="0" />
  </g>
</svg>
