<?xml version="1.0" encoding="UTF-8" standalone="no"?>
<!-- Created with Inkscape (http://www.inkscape.org/) -->

<svg
   xmlns:dc="http://purl.org/dc/elements/1.1/"
   xmlns:cc="http://creativecommons.org/ns#"
   xmlns:rdf="http://www.w3.org/1999/02/22-rdf-syntax-ns#"
   xmlns:svg="http://www.w3.org/2000/svg"
   xmlns="http://www.w3.org/2000/svg"
   xmlns:sodipodi="http://sodipodi.sourceforge.net/DTD/sodipodi-0.dtd"
   xmlns:inkscape="http://www.inkscape.org/namespaces/inkscape"
   width="256"
   height="256"
   viewBox="0 0 256 256"
   id="svg2"
   version="1.1"
   inkscape:version="0.91 r13725"
   sodipodi:docname="deluge.svg">
  <defs
     id="defs4" />
  <sodipodi:namedview
     id="base"
     pagecolor="#ffffff"
     bordercolor="#666666"
     borderopacity="1.0"
     inkscape:pageopacity="0.0"
     inkscape:pageshadow="2"
     inkscape:zoom="0.7"
     inkscape:cx="309.17258"
     inkscape:cy="195.26152"
     inkscape:document-units="px"
     inkscape:current-layer="layer1"
     showgrid="false"
     units="px"
     inkscape:window-width="1366"
     inkscape:window-height="711"
     inkscape:window-x="0"
     inkscape:window-y="31"
     inkscape:window-maximized="1" />
  <metadata
     id="metadata7">
    <rdf:RDF>
      <cc:Work
         rdf:about="">
        <dc:format>image/svg+xml</dc:format>
        <dc:type
           rdf:resource="http://purl.org/dc/dcmitype/StillImage" />
        <dc:title></dc:title>
      </cc:Work>
    </rdf:RDF>
  </metadata>
  <g
     inkscape:label="Layer 1"
     inkscape:groupmode="layer"
     id="layer1"
     transform="translate(0,-796.36216)">
    <rect
       style="fill:#3f71aa;fill-rule:evenodd;stroke:#000000;stroke-width:0;stroke-linecap:butt;stroke-linejoin:miter;stroke-opacity:1;stroke-miterlimit:4;stroke-dasharray:none;fill-opacity:1"
       id="rect3336"
       width="202.61562"
       height="202.61562"
       x="-664.62292"
       y="642.82465"
       ry="46.696564"
       transform="matrix(0.70710678,-0.70710678,0.70710678,0.70710678,0,0)" />
    <path
       style="fill:#ffffff;fill-opacity:1;fill-rule:evenodd;stroke:#000000;stroke-width:0;stroke-linecap:butt;stroke-linejoin:miter;stroke-miterlimit:4;stroke-dasharray:none;stroke-opacity:1"
       d="m 127.83221,800.15617 c -11.95373,0 -23.90753,4.57894 -33.067107,13.73851 l -77.343678,77.34367 c -18.31912912,18.31912 -18.31912912,47.81505 0,66.13417 l 77.343678,77.34368 c 18.319137,18.3192 47.815067,18.3192 66.134187,0 l 77.34368,-77.34368 c 18.31912,-18.31912 18.31912,-47.81505 0,-66.13417 l -77.34368,-77.34367 c -9.15956,-9.15957 -21.11336,-13.73851 -33.06708,-13.73851 z m 0.0606,7.38757 c 11.26499,0 22.53018,4.3165 31.162,12.94832 l 72.88804,72.88608 c 17.26364,17.26363 17.26364,45.06038 0,62.32401 l -72.88804,72.88615 c -17.26362,17.2636 -45.06037,17.2636 -62.32402,0 L 23.844694,955.70216 c -17.2636309,-17.26363 -17.2636309,-45.06038 0,-62.32402 L 96.73078,820.49206 c 8.63183,-8.63182 19.89703,-12.94832 31.16202,-12.94832 z"
       id="rect3336-36"
       inkscape:connector-curvature="0" />
    <path
       style="opacity:1;fill:#ffffff;fill-opacity:1;stroke-width:0;stroke-miterlimit:4;stroke-dasharray:none"
       d="m 121.42201,992.33203 c -7.45944,-1.3524 -13.48953,-3.8856 -20.4552,-8.59323 -4.659841,-3.14986 -5.852317,-4.26004 -10.515592,-9.79071 -7.512578,-8.91012 -11.620312,-20.39232 -11.637267,-32.53002 -0.01514,-11.07144 6.730715,-26.76017 20.710596,-48.16477 2.605723,-3.98955 5.334323,-8.06489 6.063503,-9.05597 0.72918,-0.99108 2.78597,-3.82959 4.57068,-6.30779 6.80872,-9.45412 19.89158,-25.90685 20.60038,-25.90685 0.61392,0 9.96974,11.70928 17.8676,22.36238 20.55108,27.72096 32.50944,50.15803 34.19488,64.1583 0.47535,3.94716 -0.5682,12.62213 -2.07975,17.29242 -1.65855,5.12445 -5.29668,12.54292 -7.81284,15.93096 -7.95755,10.71466 -20.19012,18.37231 -32.88554,20.5866 -4.79981,0.83667 -14.05622,0.84626 -18.62145,0 z m 5.43046,-2.32077 c 0.93859,-0.15643 1.64825,-0.42388 1.57695,-0.59344 -0.0712,-0.17157 -1.54885,-1.48965 -3.28348,-2.92933 -6.931,-5.75119 -13.08715,-12.37387 -17.2674,-18.57568 -6.10086,-9.05143 -8.934816,-19.89326 -7.77357,-29.73947 0.5895,-4.9988 2.55192,-11.28741 4.75198,-15.22801 5.86353,-10.50273 17.60348,-19.97905 27.97944,-22.58542 1.59365,-0.39865 2.89759,-0.89672 2.89759,-1.10361 0,-1.29386 -9.41041,-1.00673 -15.09362,0.4592 -8.11031,2.09419 -17.53884,7.749 -24.360594,14.61086 -4.925377,4.95439 -7.253654,8.21022 -10.350123,14.47512 -5.421924,10.969 -5.034475,21.7871 1.190607,33.24508 3.142895,5.7845 5.6315,9.05244 10.407597,13.6667 8.170003,7.89333 15.283733,12.03477 23.877013,13.90086 3.46268,0.75189 3.34722,0.74332 5.44761,0.39362 z"
       id="path4735"
       inkscape:connector-curvature="0" />
  </g>
</svg>
