<?xml version="1.0" encoding="UTF-8" standalone="no"?>
<!-- Created with Inkscape (http://www.inkscape.org/) -->

<svg
   xmlns:dc="http://purl.org/dc/elements/1.1/"
   xmlns:cc="http://creativecommons.org/ns#"
   xmlns:rdf="http://www.w3.org/1999/02/22-rdf-syntax-ns#"
   xmlns:svg="http://www.w3.org/2000/svg"
   xmlns="http://www.w3.org/2000/svg"
   xmlns:sodipodi="http://sodipodi.sourceforge.net/DTD/sodipodi-0.dtd"
   xmlns:inkscape="http://www.inkscape.org/namespaces/inkscape"
   width="256"
   height="256"
   viewBox="0 0 256 256"
   id="svg2"
   version="1.1"
   inkscape:version="0.91 r13725"
   sodipodi:docname="dolphin.svg">
  <defs
     id="defs4" />
  <sodipodi:namedview
     id="base"
     pagecolor="#ffffff"
     bordercolor="#666666"
     borderopacity="1.0"
     inkscape:pageopacity="0.0"
     inkscape:pageshadow="2"
     inkscape:zoom="0.7"
     inkscape:cx="369.8276"
     inkscape:cy="1.3725858"
     inkscape:document-units="px"
     inkscape:current-layer="layer1"
     showgrid="false"
     units="px"
     inkscape:window-width="1366"
     inkscape:window-height="711"
     inkscape:window-x="0"
     inkscape:window-y="31"
     inkscape:window-maximized="1"
     showguides="false" />
  <metadata
     id="metadata7">
    <rdf:RDF>
      <cc:Work
         rdf:about="">
        <dc:format>image/svg+xml</dc:format>
        <dc:type
           rdf:resource="http://purl.org/dc/dcmitype/StillImage" />
        <dc:title></dc:title>
      </cc:Work>
    </rdf:RDF>
  </metadata>
  <g
     inkscape:label="Layer 1"
     inkscape:groupmode="layer"
     id="layer1"
     transform="translate(0,-796.36216)">
    <rect
       style="fill:#74c0eb;fill-rule:evenodd;stroke:#000000;stroke-width:0;stroke-linecap:butt;stroke-linejoin:miter;stroke-opacity:1;stroke-miterlimit:4;stroke-dasharray:none;fill-opacity:1"
       id="rect3336"
       width="202.61562"
       height="202.61562"
       x="-664.62292"
       y="642.82465"
       ry="46.696564"
       transform="matrix(0.70710678,-0.70710678,0.70710678,0.70710678,0,0)" />
    <path
       style="fill:#ffffff;fill-opacity:1;fill-rule:evenodd;stroke:#000000;stroke-width:0;stroke-linecap:butt;stroke-linejoin:miter;stroke-miterlimit:4;stroke-dasharray:none;stroke-opacity:1"
       d="m 127.83221,800.15617 c -11.95373,0 -23.90753,4.57894 -33.067107,13.73851 l -77.343678,77.34367 c -18.31912912,18.31912 -18.31912912,47.81505 0,66.13417 l 77.343678,77.34368 c 18.319137,18.3192 47.815067,18.3192 66.134187,0 l 77.34368,-77.34368 c 18.31912,-18.31912 18.31912,-47.81505 0,-66.13417 l -77.34368,-77.34367 c -9.15956,-9.15957 -21.11336,-13.73851 -33.06708,-13.73851 z m 0.0606,7.38757 c 11.26499,0 22.53018,4.3165 31.162,12.94832 l 72.88804,72.88608 c 17.26364,17.26363 17.26364,45.06038 0,62.32401 l -72.88804,72.88615 c -17.26362,17.2636 -45.06037,17.2636 -62.32402,0 L 23.844694,955.70216 c -17.2636309,-17.26363 -17.2636309,-45.06038 0,-62.32402 L 96.73078,820.49206 c 8.63183,-8.63182 19.89703,-12.94832 31.16202,-12.94832 z"
       id="rect3336-36"
       inkscape:connector-curvature="0" />
    <path
       style="opacity:1;fill:#808000;fill-opacity:1;stroke-width:0;stroke-miterlimit:4;stroke-dasharray:none"
       d=""
       id="path4916"
       inkscape:connector-curvature="0"
       transform="translate(0,796.36216)" />
    <path
       style="opacity:1;fill:#808000;fill-opacity:1;stroke-width:0;stroke-miterlimit:4;stroke-dasharray:none"
       d=""
       id="path4918"
       inkscape:connector-curvature="0"
       transform="translate(0,796.36216)" />
    <path
       style="opacity:1;fill:#808000;fill-opacity:1;stroke-width:0;stroke-miterlimit:4;stroke-dasharray:none"
       d=""
       id="path4920"
       inkscape:connector-curvature="0"
       transform="translate(0,796.36216)" />
    <path
       style="opacity:1;fill:#808000;fill-opacity:1;stroke-width:0;stroke-miterlimit:4;stroke-dasharray:none"
       d=""
       id="path4974"
       inkscape:connector-curvature="0"
       transform="translate(0,796.36216)" />
    <path
       style="opacity:1;fill:#808000;fill-opacity:1;stroke-width:0;stroke-miterlimit:4;stroke-dasharray:none"
       d=""
       id="path4976"
       inkscape:connector-curvature="0"
       transform="translate(0,796.36216)" />
    <path
       style="opacity:1;fill:#808000;fill-opacity:1;stroke-width:0;stroke-miterlimit:4;stroke-dasharray:none"
       d=""
       id="path4978"
       inkscape:connector-curvature="0"
       transform="translate(0,796.36216)" />
    <path
       style="opacity:1;fill:#808000;fill-opacity:1;stroke-width:0;stroke-miterlimit:4;stroke-dasharray:none"
       d=""
       id="path4980"
       inkscape:connector-curvature="0"
       transform="translate(0,796.36216)" />
    <path
       style="opacity:1;fill:#808000;fill-opacity:1;stroke-width:0;stroke-miterlimit:4;stroke-dasharray:none"
       d=""
       id="path4982"
       inkscape:connector-curvature="0"
       transform="translate(0,796.36216)" />
    <path
       style="opacity:1;fill:#808000;fill-opacity:1;stroke-width:0;stroke-miterlimit:4;stroke-dasharray:none"
       d=""
       id="path5006"
       inkscape:connector-curvature="0"
       transform="translate(0,796.36216)" />
    <path
       style="opacity:1;fill:#ffffff;fill-opacity:1;stroke-width:0;stroke-miterlimit:4;stroke-dasharray:none"
       d="m 140.88073,960.78486 c -3.27878,-3.16909 -5.79348,-4.873 -8.11358,-5.49774 -3.70911,-0.99874 -3.83804,-1.89428 -0.61874,-4.29778 3.01825,-2.2535 11.61861,-2.68242 17.12324,-0.85408 l 4.10412,1.36315 -0.35572,4.28967 c -0.43044,5.1905 0.82161,4.44935 2.84881,-1.68646 6.87493,-20.80873 -5.02018,-42.75186 -26.54272,-48.96389 -2.48813,-0.71816 -5.67257,-1.19384 -7.07654,-1.05708 -2.27171,0.2213 -2.66961,0.63973 -3.6153,3.80195 -0.99757,3.33567 -0.91719,7.02298 0.28829,13.2261 0.40593,2.08884 0.24762,2.56629 -0.85085,2.56629 -3.83224,0 -8.5116,-5.88904 -9.92833,-12.49498 -0.98459,-4.591 -2.06922,-5.05824 -6.50959,-2.80427 -7.165337,3.63721 -14.916844,13.3046 -20.694318,25.80921 -3.066117,6.63617 -3.616427,7.21372 -6.245226,6.55393 -1.481618,-0.37188 -2.003398,-1.32734 -2.816059,-5.15678 -0.548616,-2.58525 -0.762805,-5.95135 -0.475967,-7.48032 0.431107,-2.29799 0.12537,-3.32679 -1.763577,-5.93443 -9.765066,-13.48028 -1.748562,-35.86248 16.228045,-45.30891 8.270118,-4.34583 15.662732,-6.1337 26.886172,-6.50232 l 9.69802,-0.31851 2.57627,-3.37772 c 6.72314,-8.81464 17.43279,-13.2035 30.75957,-12.60542 4.4651,0.20039 4.51928,1.88572 0.20873,6.49405 -3.73548,3.99353 -7.17939,10.34766 -7.92088,14.61432 -0.37173,2.13898 0.0399,2.62654 5.29237,6.2675 3.13251,2.17146 7.41713,6.08008 9.52139,8.68583 4.59692,5.69248 9.54438,15.47553 11.38073,22.50415 1.80351,6.90298 1.78994,20.03095 -0.0278,26.84705 -1.4623,5.48341 -6.03369,16.06482 -6.66682,15.43168 -0.20948,-0.20949 -2.73092,0.83553 -5.6032,2.32238 -2.87227,1.48676 -7.72361,3.93005 -10.78073,5.42945 l -5.55843,2.72632 -4.75141,-4.59234 2e-5,0 z M 84.415745,909.16711 c 1.324937,-1.59644 0.198761,-3.65336 -2.000254,-3.65336 -2.041685,0 -3.114735,1.60956 -2.368858,3.55328 0.56883,1.48234 3.172436,1.54199 4.369112,0.10008 z"
       id="path5049"
       inkscape:connector-curvature="0" />
    <path
       style="opacity:1;fill:#ffffff;fill-opacity:1;stroke-width:0;stroke-miterlimit:4;stroke-dasharray:none"
       d="m 165.04,989.63784 c 0,-3.43738 -1.97025,-6.90914 -6.70835,-11.82093 -4.33233,-4.49114 -4.50329,-4.82548 -4.13562,-8.08735 l 0.38351,-3.4025 -2.86337,0.41608 c -2.57556,0.37419 -5.75301,-0.60263 -4.81455,-1.4802 0.93818,-0.87731 19.92177,-10.06222 20.20709,-9.77693 0.17725,0.17728 -0.4169,1.26205 -1.32034,2.41059 l -1.64261,2.08822 2.79258,4.54666 c 5.56819,9.06569 6.69495,16.66133 3.43159,23.13282 -2.13839,4.2406 -5.32993,5.4223 -5.32993,1.97354 z"
       id="path5051"
       inkscape:connector-curvature="0" />
    <path
       style="opacity:1;fill:#ffffff;fill-opacity:1;stroke-width:0;stroke-miterlimit:4;stroke-dasharray:none"
       d="m 159.64808,958.46511 c 4.25309,-2.18908 6.7236,-3.31777 7.55862,-3.45325 0.4763,-0.0773 0.49477,-0.0655 0.39502,0.25381 -0.13012,0.41658 -0.39274,0.59926 -0.48573,0.33788 -0.0562,-0.15798 -0.26054,-0.11956 -1.04895,0.19751 -1.24255,0.49966 -6.32872,2.8613 -8.47571,3.93544 -0.9009,0.45062 -1.71748,0.81775 -1.81462,0.81572 -0.0971,0 1.64497,-0.94126 3.87137,-2.08711 z"
       id="path5053"
       inkscape:connector-curvature="0" />
    <path
       style="opacity:1;fill:#ffffff;fill-opacity:1;stroke-width:0;stroke-miterlimit:4;stroke-dasharray:none"
       d="m 165.75205,991.4507 c -0.33858,-0.1362 -0.56626,-0.8285 -0.65925,-2.00464 -0.17655,-2.23305 -0.83704,-4.08475 -2.20177,-6.17262 -1.08857,-1.66548 -2.16392,-2.95449 -4.93816,-5.91962 -2.5015,-2.67357 -3.42609,-3.87512 -3.67706,-4.77864 -0.1952,-0.70272 -0.1811,-1.29364 0.0927,-3.88429 0.13163,-1.24528 0.20439,-2.29912 0.16172,-2.34184 -0.0426,-0.043 -0.66742,0.0185 -1.3883,0.13499 -2.71867,0.44093 -5.48964,0.15697 -6.20738,-0.63617 -0.26414,-0.29187 -0.26279,-0.29752 0.1515,-0.63321 0.80272,-0.65057 13.85737,-7.08188 18.28506,-9.00797 0.8445,-0.36746 1.45608,-0.66979 1.35907,-0.67198 -0.20818,-0.008 -2.96535,1.20509 -5.60391,2.45871 -1.02953,0.48913 -1.89992,0.8613 -1.93419,0.82701 -0.15079,-0.15083 6.36876,-3.24873 7.60979,-3.616 0.62022,-0.18356 0.73283,-0.18671 0.73283,-0.0205 0,0.108 -0.11436,0.30877 -0.25414,0.44611 -0.13977,0.13734 -0.41889,0.5375 -0.62026,0.88928 -0.20137,0.35179 -0.84078,1.24679 -1.4209,1.98887 -0.58012,0.74216 -1.05477,1.4181 -1.05477,1.5021 0,0.0843 0.68249,1.26188 1.51665,2.61745 2.92048,4.74603 4.11154,7.10033 5.1092,10.0988 0.98576,2.96275 1.23826,4.39795 1.24775,7.09221 0.0111,3.17753 -0.37525,4.95153 -1.65709,7.60749 -1.37629,2.85173 -3.3397,4.55123 -4.6491,4.02443 z"
       id="path5055"
       inkscape:connector-curvature="0" />
    <path
       style="opacity:1;fill:#ffffff;fill-opacity:1;stroke-width:0;stroke-miterlimit:4;stroke-dasharray:none"
       d="m 165.44982,991.1064 c -0.17583,-0.2891 -0.29937,-0.8457 -0.36401,-1.64011 -0.13342,-1.63962 -0.50989,-3.03707 -1.17764,-4.37124 -1.14904,-2.29566 -2.4072,-3.92423 -6.07112,-7.85852 -3.96802,-4.26086 -3.95816,-4.23609 -3.46939,-8.68846 0.12847,-1.17037 0.20451,-2.15706 0.16896,-2.19253 -0.0356,-0.0354 -0.6902,0.0312 -1.45479,0.1483 -1.54847,0.23727 -4.25567,0.19826 -5.12387,-0.0741 -0.28778,-0.0902 -0.69606,-0.31859 -0.90732,-0.5075 l -0.38409,-0.34336 0.41877,-0.35793 c 0.23031,-0.19692 3.49663,-1.89189 7.25848,-3.76676 3.76185,-1.87487 6.79084,-3.40932 6.73106,-3.40991 -0.0597,-5.9e-4 -0.49012,0.19135 -0.95633,0.42677 -0.46621,0.23526 -0.88132,0.39417 -0.92244,0.35305 -0.16217,-0.1622 6.89905,-3.50206 7.95475,-3.76251 0.42551,-0.10496 0.5331,0.15808 0.202,0.4939 -0.10003,0.10145 -0.46817,0.62412 -0.8181,1.16152 -0.34991,0.53741 -1.02183,1.47219 -1.49315,2.07735 -0.47132,0.60515 -0.85695,1.14442 -0.85695,1.19834 0,0.0539 0.32133,0.62673 0.71408,1.27275 3.33345,5.48338 4.34357,7.34721 5.34719,9.86641 0.64774,1.62597 1.24852,3.64205 1.5694,5.26684 0.33135,1.67769 0.32932,5.54517 -0.004,7.02645 -0.97954,4.35767 -3.52199,8.1187 -5.48819,8.1187 -0.53115,0 -0.64091,-0.056 -0.87364,-0.4377 z m -3.07981,-33.55155 c 0.49903,-0.26121 0.84451,-0.47498 0.76773,-0.47498 -0.0768,0 -0.54788,0.21377 -1.0469,0.47498 -0.49902,0.26129 -0.84449,0.47497 -0.76772,0.47497 0.0768,0 0.54787,-0.21368 1.04689,-0.47497 z m 2.3398,-1.05578 c 0.55755,-0.24916 0.98929,-0.47742 0.95943,-0.50725 -0.0298,-0.0303 -0.58025,0.20037 -1.2231,0.51171 -1.35492,0.65605 -1.20893,0.65369 0.26367,-0.008 z m 1.56862,-0.68908 c 0.11516,-0.0741 0.14657,-0.13532 0.0698,-0.13532 -0.0768,0 -0.2338,0.0607 -0.34897,0.13532 -0.11515,0.0742 -0.14656,0.13532 -0.0698,0.13532 0.0768,0 0.23382,-0.0607 0.34897,-0.13532 z"
       id="path5057"
       inkscape:connector-curvature="0" />
    <path
       style="opacity:1;fill:#ffffff;fill-opacity:1;stroke-width:0;stroke-miterlimit:4;stroke-dasharray:none"
       d="m 165.44885,991.1049 c -0.16719,-0.275 -0.30056,-0.8364 -0.35647,-1.5006 -0.33322,-3.95853 -1.83652,-6.5255 -7.20206,-12.29801 -2.5361,-2.72842 -2.96016,-3.25167 -3.39846,-4.19327 -0.43021,-0.92425 -0.44946,-1.59235 -0.13168,-4.57169 0.12523,-1.17408 0.20418,-2.15529 0.17545,-2.18057 -0.0287,-0.0253 -0.68038,0.0447 -1.4481,0.15496 -1.94608,0.28016 -4.53521,0.18967 -5.37408,-0.18782 -0.34547,-0.15554 -0.71719,-0.39063 -0.82603,-0.52241 -0.17353,-0.21014 -0.16273,-0.27485 0.0876,-0.52519 0.15703,-0.15698 2.93312,-1.61745 6.16909,-3.24552 3.23596,-1.62799 5.84378,-2.99983 5.79513,-3.04844 -0.10018,-0.10019 5.18223,-2.75758 6.78083,-3.41118 1.51016,-0.61747 1.81462,-0.67335 1.81462,-0.33309 0,0.15117 -0.0791,0.32508 -0.17584,0.38651 -0.0967,0.0615 -0.35631,0.39425 -0.57687,0.7398 -0.22058,0.34547 -0.90257,1.30443 -1.51554,2.13102 l -1.11449,1.50286 1.95365,3.24308 c 4.2023,6.97579 5.73437,10.99996 5.98739,15.72677 0.16632,3.1072 -0.36053,5.73872 -1.69263,8.45424 -1.27003,2.58895 -2.78412,4.11775 -4.07814,4.11775 -0.53025,0 -0.63974,-0.056 -0.87339,-0.4392 z m -5.94134,-32.22237 c 0.0489,-0.0792 -0.007,-0.10255 -0.13135,-0.0548 -0.24182,0.0928 -0.28606,0.19287 -0.0853,0.19287 0.0722,0 0.16972,-0.0624 0.21663,-0.13802 z m 2.8625,-1.32768 c 0.34548,-0.18504 0.56533,-0.33637 0.48856,-0.33637 -0.0768,0 -0.42225,0.15133 -0.76773,0.33637 -0.34547,0.18495 -0.56532,0.33636 -0.48855,0.33636 0.0768,0 0.42225,-0.15141 0.76772,-0.33636 z m 2.93132,-1.32609 c 0.11516,-0.0741 0.14656,-0.13532 0.0698,-0.13532 -0.0768,0 -0.23381,0.0607 -0.34896,0.13532 -0.11517,0.0742 -0.14657,0.13532 -0.0698,0.13532 0.0768,0 0.2338,-0.0607 0.34896,-0.13532 z"
       id="path5059"
       inkscape:connector-curvature="0" />
    <path
       style="opacity:1;fill:#ffffff;fill-opacity:1;stroke-width:0;stroke-miterlimit:4;stroke-dasharray:none"
       d="m 165.44755,991.1028 c -0.15399,-0.2533 -0.30416,-0.8335 -0.35223,-1.36107 -0.37386,-4.10278 -1.76677,-6.52736 -7.01413,-12.20878 -4.25244,-4.60421 -4.22659,-4.54152 -3.73012,-9.0426 0.11916,-1.0803 0.18464,-1.9962 0.14551,-2.0353 -0.0391,-0.0396 -0.78361,0.008 -1.6544,0.10533 -2.94891,0.32869 -5.30536,0.0312 -5.95062,-0.74983 -0.16721,-0.20265 -0.15932,-0.27275 0.0576,-0.51256 0.13828,-0.15284 2.69091,-1.50429 5.67251,-3.00327 2.9816,-1.49907 5.42109,-2.7746 5.42109,-2.83442 0,-0.17433 0.9811,-0.59336 1.14785,-0.49039 0.0892,0.0556 0.11154,0.0286 0.0543,-0.064 -0.1531,-0.24773 6.5815,-3.54406 7.9059,-3.86964 0.32459,-0.0798 0.38386,-0.0503 0.38386,0.19174 0,0.15735 -0.0631,0.32503 -0.14026,0.3728 -0.0772,0.0472 -0.40095,0.47531 -0.71957,0.95037 -0.31863,0.47506 -1.01589,1.44169 -1.54949,2.14804 l -0.97017,1.2842 1.99455,3.32212 c 4.09108,6.8141 5.72064,11.10604 5.94895,15.66821 0.1562,3.12144 -0.37144,5.7474 -1.69834,8.45231 -1.27002,2.58898 -2.78411,4.11778 -4.07813,4.11778 -0.53088,0 -0.63964,-0.055 -0.8747,-0.4414 z m -3.07754,-33.54795 c 0.19194,-0.10971 0.28616,-0.19953 0.20939,-0.19953 -0.0768,0 -0.29663,0.0898 -0.48856,0.19953 -0.19192,0.1097 -0.28615,0.19944 -0.20937,0.19944 0.0768,0 0.29662,-0.0897 0.48854,-0.19944 z"
       id="path5061"
       inkscape:connector-curvature="0" />
    <path
       style="opacity:1;fill:#ffffff;fill-opacity:1;stroke-width:0;stroke-miterlimit:4;stroke-dasharray:none"
       d="m 165.54885,991.2999 c -0.28838,-0.3284 -0.35145,-0.5789 -0.53615,-2.12878 -0.4482,-3.76085 -1.8782,-6.15198 -6.97946,-11.67035 -2.56294,-2.77249 -3.09899,-3.43747 -3.54732,-4.40056 -0.42147,-0.90537 -0.45162,-1.92273 -0.13972,-4.71477 0.115,-1.0294 0.17987,-1.9009 0.14416,-1.93662 -0.0357,-0.0362 -0.77739,0.0143 -1.64818,0.11156 -2.94475,0.32819 -5.30544,0.0312 -5.94844,-0.74731 -0.36451,-0.44152 -0.25501,-0.50918 5.91461,-3.65527 2.07286,-1.05705 3.7899,-1.9759 3.81565,-2.04187 0.0258,-0.0657 0.10427,-0.0846 0.17449,-0.0413 0.0702,0.0438 0.12766,0.008 0.12766,-0.0775 0,-0.0859 0.0628,-0.11729 0.13958,-0.0699 0.0768,0.0472 0.13959,0.016 0.13959,-0.0699 0,-0.0859 0.0628,-0.11729 0.13959,-0.0699 0.0768,0.0472 0.13959,0.016 0.13959,-0.0699 0,-0.0858 0.0628,-0.11721 0.13957,-0.0699 0.0768,0.0472 0.1396,0.032 0.1396,-0.0337 0,-0.18445 1.25427,-0.75169 1.42653,-0.64527 0.0897,0.0556 0.11213,0.0295 0.0547,-0.0632 -0.16337,-0.26432 7.42275,-3.93365 8.13262,-3.93365 0.1977,0 0.20736,0.51093 0.012,0.63167 -0.0799,0.0489 -0.3086,0.35145 -0.50825,0.67122 -0.19965,0.31985 -0.89168,1.28816 -1.53786,2.15183 l -1.17488,1.57026 1.83408,3.03606 c 4.20028,6.95304 5.89295,11.41966 6.09651,16.0874 0.13709,3.14368 -0.35903,5.5718 -1.69701,8.30544 -1.26483,2.58419 -2.77246,4.11779 -4.04798,4.11779 -0.38782,0 -0.6644,-0.084 -0.80523,-0.2443 z"
       id="path5063"
       inkscape:connector-curvature="0" />
    <path
       style="opacity:1;fill:#ffffff;fill-opacity:1;stroke-width:0;stroke-miterlimit:4;stroke-dasharray:none"
       d="m 165.53251,991.2891 c -0.22858,-0.2526 -0.33455,-0.7202 -0.654,-2.88567 -0.47916,-3.24805 -1.91639,-5.51515 -7.02149,-11.07565 -2.20361,-2.40014 -3.00255,-3.38362 -3.38313,-4.16471 -0.3544,-0.72734 -0.40236,-2.19017 -0.15248,-4.65073 0.11306,-1.11316 0.18205,-2.04819 0.15331,-2.07768 -0.0287,-0.0295 -0.60812,0.0177 -1.28752,0.10465 -1.5586,0.19986 -3.85204,0.20391 -4.76384,0.008 -0.78502,-0.16835 -1.61722,-0.66591 -1.61722,-0.96689 0,-0.31336 0.83967,-0.80223 5.16469,-3.0074 2.2264,-1.13515 4.22074,-2.18334 4.43187,-2.32937 0.21112,-0.14602 0.38483,-0.2141 0.386,-0.15133 8.4e-4,0.0632 0.0483,0.0463 0.10469,-0.0362 0.0564,-0.0826 1.09187,-0.66801 2.30104,-1.3003 4.24472,-2.21974 2.12961,-1.23702 -4.88553,2.26996 -3.8962,1.94784 -7.39807,3.68275 -7.78193,3.85549 -0.38386,0.17273 -0.74044,0.33889 -0.79239,0.36914 -0.052,0.0303 -1.39791,-1.20458 -2.99102,-2.74443 -5.28997,-5.11289 -7.04123,-6.36381 -10.32804,-7.37701 -1.83472,-0.56561 -2.34566,-0.90421 -2.4031,-1.59247 -0.039,-0.46718 0.0333,-0.5963 0.71569,-1.2787 1.71787,-1.71784 3.70786,-2.55778 7.11971,-3.00494 1.5603,-0.20451 5.63283,-0.17184 7.35308,0.059 2.03415,0.27299 2.50188,0.38967 5.49532,1.37111 l 2.63378,0.86354 -0.0801,0.77073 c -0.26193,2.52052 -0.41118,5.72728 -0.29267,6.28896 0.27922,1.32363 0.95998,0.66674 2.02321,-1.95214 2.71287,-6.68207 3.52929,-13.90377 2.35205,-20.80504 -1.78072,-10.43893 -7.83187,-19.63957 -16.87754,-25.66189 -2.03118,-1.35231 -5.81351,-3.26459 -8.16351,-4.12735 -5.01488,-1.84112 -10.12871,-2.53021 -11.82653,-1.59364 -0.73422,0.40502 -1.08619,1.00661 -1.70092,2.90729 -0.68382,2.11429 -0.84453,3.24202 -0.82555,5.79283 0.0164,2.21334 0.22866,4.08245 0.87742,7.72905 0.34311,1.92849 0.34756,2.16627 0.0462,2.46762 -0.18999,0.18997 -0.41733,0.22325 -1.1622,0.16991 -2.94272,-0.21054 -6.49514,-4.0102 -8.51114,-9.10352 -0.24162,-0.61046 -0.68122,-2.06363 -0.97688,-3.22928 -0.75145,-2.9626 -1.22827,-3.83478 -2.24635,-4.10892 -1.01829,-0.2742 -3.09164,0.45047 -5.6416,1.97185 -3.853713,2.2992 -8.422015,6.92875 -12.213812,12.3775 -2.258848,3.24598 -4.165607,6.59433 -6.972996,12.24498 -2.757944,5.55116 -3.356687,6.54636 -4.200988,6.98297 -0.760993,0.39354 -2.375817,0.16504 -3.182581,-0.45032 -0.590038,-0.45003 -1.023126,-1.38438 -1.475146,-3.18258 -0.78671,-3.12958 -0.969107,-5.54553 -0.769318,-10.18981 0.05746,-1.33525 0.04103,-1.43595 -0.377316,-2.31895 -0.240562,-0.50768 -0.91711,-1.62646 -1.503458,-2.48619 -2.224361,-3.26146 -3.415973,-6.37699 -3.917462,-10.24242 -0.866057,-6.67536 1.104715,-14.53907 5.28056,-21.07038 1.700423,-2.65958 3.087308,-4.36763 5.528772,-6.80911 3.105003,-3.105 5.460109,-4.87506 9.168169,-6.89065 l 1.696042,-0.92192 30.238714,0 c 24.06925,0 30.24969,0.0355 30.29248,0.17448 0.0296,0.096 0.0936,0.35526 0.14235,0.5762 0.14785,0.67045 1.49438,1.91701 4.02207,3.72347 8.727,6.23693 12.80779,11.01812 17.62611,20.65139 4.52492,9.04668 5.78505,14.42518 5.78505,24.69189 0,7.38575 -0.62539,11.93734 -2.30349,16.76525 -1.34676,3.87462 -3.95161,9.8955 -4.98882,11.53125 -0.29574,0.4664 -0.46555,0.58999 -0.90789,0.66074 -0.29925,0.0481 -0.97926,0.26742 -1.51113,0.48792 -1.30301,0.54036 -4.26374,2.00682 -4.19348,2.077 0.031,0.0312 0.73819,-0.28454 1.5716,-0.70112 1.52783,-0.76382 3.92877,-1.77216 4.21961,-1.77216 0.0865,0 0.15718,0.0918 0.15718,0.20407 0,0.21631 -1.17347,1.94448 -2.53613,3.73508 l -0.8201,1.07752 1.88839,3.14298 c 4.27403,7.11347 5.82354,11.20589 6.02736,15.91897 0.14137,3.26905 -0.32662,5.58527 -1.69218,8.3752 -1.26483,2.58419 -2.77246,4.11789 -4.04797,4.11789 -0.39486,0 -0.66727,-0.085 -0.82158,-0.2552 z M 83.034245,910.0976 c 1.883807,-0.55942 2.584066,-2.59654 1.325265,-3.85534 -1.178509,-1.1785 -3.393315,-1.00615 -4.206709,0.32738 -0.807968,1.32461 -0.285818,3.10229 1.047755,3.56719 0.594731,0.20732 1.0352,0.1979 1.833689,-0.0393 z"
       id="path5065"
       inkscape:connector-curvature="0" />
  </g>
</svg>
