<?xml version="1.0" encoding="UTF-8" standalone="no"?>
<!-- Created with Inkscape (http://www.inkscape.org/) -->

<svg
   xmlns:dc="http://purl.org/dc/elements/1.1/"
   xmlns:cc="http://creativecommons.org/ns#"
   xmlns:rdf="http://www.w3.org/1999/02/22-rdf-syntax-ns#"
   xmlns:svg="http://www.w3.org/2000/svg"
   xmlns="http://www.w3.org/2000/svg"
   xmlns:sodipodi="http://sodipodi.sourceforge.net/DTD/sodipodi-0.dtd"
   xmlns:inkscape="http://www.inkscape.org/namespaces/inkscape"
   width="256"
   height="256"
   viewBox="0 0 256 256"
   id="svg2"
   version="1.1"
   inkscape:version="0.91 r13725"
   sodipodi:docname="firefox-original.svg">
  <defs
     id="defs4" />
  <sodipodi:namedview
     id="base"
     pagecolor="#ffffff"
     bordercolor="#666666"
     borderopacity="1.0"
     inkscape:pageopacity="0.0"
     inkscape:pageshadow="2"
     inkscape:zoom="1.4"
     inkscape:cx="92.694584"
     inkscape:cy="117.16473"
     inkscape:document-units="px"
     inkscape:current-layer="layer1"
     showgrid="false"
     units="px"
     inkscape:window-width="1366"
     inkscape:window-height="711"
     inkscape:window-x="0"
     inkscape:window-y="31"
     inkscape:window-maximized="1" />
  <metadata
     id="metadata7">
    <rdf:RDF>
      <cc:Work
         rdf:about="">
        <dc:format>image/svg+xml</dc:format>
        <dc:type
           rdf:resource="http://purl.org/dc/dcmitype/StillImage" />
        <dc:title></dc:title>
      </cc:Work>
    </rdf:RDF>
  </metadata>
  <g
     inkscape:label="Layer 1"
     inkscape:groupmode="layer"
     id="layer1"
     transform="translate(0,-796.36216)">
    <rect
       style="fill:#ee8f00;fill-rule:evenodd;stroke:#000000;stroke-width:0;stroke-linecap:butt;stroke-linejoin:miter;stroke-opacity:1;stroke-miterlimit:4;stroke-dasharray:none;fill-opacity:1"
       id="rect3336"
       width="202.61562"
       height="202.61562"
       x="-664.62292"
       y="642.82465"
       ry="46.696564"
       transform="matrix(0.70710678,-0.70710678,0.70710678,0.70710678,0,0)" />
    <path
       style="fill:#ffffff;stroke-width:0;stroke-miterlimit:4;stroke-dasharray:none"
       d="m 94.262604,976.41939 c -1.319089,-0.96261 -2.56402,-2.03991 -2.766634,-2.39383 -0.202613,-0.35393 -0.584766,-0.76844 -0.849242,-0.92113 -0.549718,-0.31738 -4.3044,-4.46996 -4.869709,-5.38582 -0.562688,-0.91146 -1.207717,-0.35733 -0.967446,0.83113 0.199522,0.98687 0.192055,0.99723 -0.322534,0.44644 -0.289779,-0.30991 -1.243609,-1.31474 -2.119661,-2.23288 -0.876053,-0.91813 -1.575293,-1.81039 -1.553879,-1.98278 0.02142,-0.1725 -0.173665,-0.43628 -0.433551,-0.58633 -0.967723,-0.55871 -5.499444,-7.35226 -7.796032,-11.68716 -3.902902,-7.36672 -7.415207,-18.20053 -8.180698,-25.23368 -0.423027,-3.88661 -0.539416,-9.27517 -0.212561,-9.8413 0.12095,-0.20949 0.07609,-0.46391 -0.09968,-0.56539 -0.175765,-0.10148 -0.231989,-0.33621 -0.124944,-0.52161 0.10705,-0.18542 0.276166,-1.09445 0.375815,-2.02006 0.09966,-0.92563 0.35401,-2.73365 0.565238,-4.01783 0.21123,-1.28418 0.403896,-2.61104 0.428149,-2.94857 0.02425,-0.33754 0.324401,-1.50646 0.666997,-2.59763 0.342592,-1.09115 0.664959,-2.34313 0.716364,-2.78217 0.09772,-0.83465 1.447101,-4.54304 2.65859,-7.3064 0.389406,-0.88823 0.531711,-1.60967 0.316239,-1.60321 -0.542679,0.0163 5.911757,-11.05728 7.335447,-12.58507 0.868418,-0.93191 1.078353,-1.33738 0.881701,-1.70287 -0.206875,-0.38449 0.08728,-0.8953 1.48195,-2.57301 0.956916,-1.15137 1.905558,-2.10101 2.108081,-2.11029 0.202532,-0.009 0.765411,-0.4587 1.250849,-0.99867 0.485437,-0.53997 1.075245,-1.06231 1.310684,-1.16074 0.235437,-0.0984 0.736448,-0.48027 1.113359,-0.84855 0.918047,-0.89704 6.352224,-4.5307 7.010391,-4.68763 0.287275,-0.0685 1.251947,-0.44591 2.143708,-0.83868 2.34218,-1.0316 6.748053,-2.15166 8.899653,-2.26247 1.02114,-0.0526 1.97654,-0.13727 2.12311,-0.18818 0.5467,-0.18989 3.98381,0.22008 5.48143,0.65381 0.85332,0.24714 2.25271,0.64628 3.10976,0.88699 1.61695,0.45413 7.55243,3.99098 7.71485,4.59715 0.0509,0.1898 -0.29493,0.65488 -0.76841,1.03351 -0.47348,0.37862 -1.44635,1.47728 -2.16194,2.44145 -1.05414,1.42034 -1.20151,1.77406 -0.77651,1.86378 0.28849,0.0609 0.96686,-0.19498 1.50746,-0.56863 3.59815,-2.48694 11.7171,-4.15918 16.53453,-3.40557 2.19433,0.34326 6.44979,2.05707 6.19663,2.49556 -0.0791,0.13709 -0.64436,0.36879 -1.25601,0.5149 -1.64168,0.39215 -5.30627,1.78877 -6.41914,2.44642 -0.53357,0.31532 -1.09134,0.59922 -1.23946,0.63088 -0.62289,0.13313 -3.14921,1.94858 -3.95858,2.84468 -0.4814,0.53298 -1.08023,1.04906 -1.33071,1.14683 -0.73653,0.28751 -3.54201,3.69632 -4.74636,5.76712 -0.61234,1.0526 -1.38077,2.76878 -1.70787,3.81358 -0.65535,2.09325 -1.18688,7.93733 -0.7451,8.19239 0.15343,0.0886 0.17007,0.34966 0.037,0.58017 -0.13308,0.2305 -0.13535,0.88191 -0.005,1.44758 0.1694,0.73533 -0.0938,1.74358 -0.92348,3.53732 -1.66995,3.61044 -2.12938,3.7432 -3.0712,0.88765 -0.41831,-1.26828 -1.07665,-2.61216 -1.46298,-2.9864 -0.38633,-0.37423 -0.70926,-0.90887 -0.71764,-1.18806 -0.0199,-0.66313 -7.54603,-5.05317 -8.15465,-4.7567 -0.23266,0.11333 -1.02484,0.12194 -1.7604,0.0191 -1.6413,-0.22944 -7.611769,1.29575 -8.051099,2.05669 -0.0819,0.14186 -0.803354,0.6442 -1.603245,1.11634 -1.316289,0.77695 -1.699546,1.28314 -4.037446,5.3325 -2.299095,3.98215 -2.599296,4.68469 -2.730349,6.38967 -0.08098,1.05357 -0.234825,2.06729 -0.341875,2.25271 -0.107045,0.1854 -0.05082,0.42012 0.124953,0.5216 0.175768,0.10148 0.230749,0.33837 0.122184,0.52641 -0.315235,0.546 0.04962,3.91022 0.678671,6.2579 1.010348,3.77066 2.056254,4.58024 1.289001,0.99774 -0.225174,-1.05142 -0.42046,-2.44535 -0.433968,-3.09762 -0.0135,-0.65228 -0.110911,-1.23582 -0.216464,-1.29676 -0.105552,-0.0609 -0.0788,-1.2439 0.05946,-2.62881 0.138254,-1.3849 0.291202,-2.95631 0.339888,-3.49201 0.04918,-0.54116 1.041847,-2.61912 2.233697,-4.6758 1.983186,-3.42238 2.294332,-3.80106 4.120872,-5.01691 4.157022,-2.76712 9.090522,-3.16139 12.795092,-1.02256 1.1337,0.65454 2.29766,1.61251 2.74273,2.25733 l 0.7732,1.12022 -1.87195,0.78093 c -1.0844,0.45239 -2.30104,1.30395 -2.89191,2.02408 -0.56099,0.68373 -1.30001,1.35057 -1.64226,1.48187 -0.83492,0.3203 -6.44823,10.01523 -6.322134,10.91926 0.04992,0.35796 -0.118808,1.44063 -0.374957,2.40593 -0.256139,0.9653 -0.340591,1.82734 -0.18766,1.91563 0.152923,0.0883 0.168493,0.35027 0.0346,0.58217 -0.364215,0.63084 0.250487,5.11962 0.959448,7.0062 0.34169,0.90926 0.86845,2.50941 1.17058,3.55587 0.73577,2.54847 1.57352,3.75021 4.12306,5.91439 1.17956,1.00129 2.82821,2.46324 3.66363,3.24878 l 1.51895,1.42827 -1.37344,-0.57325 c -1.96021,-0.81817 -2.17921,0.003 -0.62746,2.35378 1.01785,1.54172 1.87095,2.34756 3.93604,3.71804 2.49093,1.65307 9.44692,4.92414 10.39138,4.88655 0.23987,-0.01 1.28555,0.26605 2.32375,0.61245 1.80903,0.6036 1.8679,0.65526 1.41406,1.2409 -0.36321,0.46871 -0.30958,0.67101 0.23018,0.86827 0.38703,0.14147 0.8296,0.20521 0.98345,0.14169 0.15385,-0.0635 0.65849,-0.10731 1.12144,-0.0973 0.46295,0.01 2.06466,-0.43947 3.55938,-0.99882 2.80752,-1.0506 3.80303,-1.0518 3.198,-0.004 -0.8474,1.46774 1.51354,2.00208 4.80496,1.08745 1.18634,-0.32966 2.21769,-0.70453 2.2919,-0.83306 0.0742,-0.12853 0.44801,-0.31758 0.83069,-0.42012 0.38267,-0.10254 1.57471,-0.81817 2.64897,-1.59029 1.07426,-0.77212 2.21334,-1.56562 2.53127,-1.76332 0.31795,-0.19771 1.00016,-0.85844 1.51603,-1.46829 0.51585,-0.60985 1.1475,-1.19256 1.40364,-1.29491 0.25615,-0.10236 1.39009,-1.32363 2.51987,-2.71395 1.12978,-1.39032 2.18448,-2.56276 2.34376,-2.60544 0.15929,-0.0427 0.20685,0.56645 0.10569,1.3536 -0.20045,1.55967 0.26777,2.2002 0.85933,1.17558 0.20434,-0.35392 0.65579,-0.81232 1.00322,-1.01868 1.7483,-1.03839 7.13956,-8.73251 7.70287,-10.99315 0.17869,-0.71708 1.21407,-3.07889 2.30083,-5.24846 l 1.97596,-3.94467 0.50449,1.32879 c 0.50676,1.33476 0.82578,3.85274 0.65151,5.14206 -0.0514,0.38043 0.14413,0.82889 0.43458,0.99659 0.47506,0.27427 0.74214,-0.11722 2.659,-3.89762 1.172,-2.31139 2.2545,-4.7064 2.40556,-5.32225 0.15108,-0.61585 0.71176,-2.25691 1.24597,-3.6468 0.53421,-1.3899 0.89762,-2.66399 0.8076,-2.83132 -0.09,-0.16734 0.029,-0.85225 0.26455,-1.52204 0.23554,-0.66978 0.34641,-1.32694 0.24639,-1.46033 -0.10002,-0.13338 -0.18397,-1.19949 -0.18656,-2.36909 -0.003,-1.1696 -0.0389,-2.34103 -0.0806,-2.60315 -0.0418,-0.26213 -0.13954,-1.56793 -0.2173,-2.90179 -0.0778,-1.33385 -0.43814,-3.60318 -0.80082,-5.04294 -0.56137,-2.22844 -0.55694,-2.55859 0.0298,-2.21982 0.3791,0.21887 0.69512,0.59308 0.70227,0.83156 0.007,0.23848 0.27072,0.5824 0.5857,0.76425 0.56165,0.32427 2.44884,3.10895 2.8457,4.19904 0.97016,2.66474 1.65263,3.91266 2.07756,3.79881 0.30671,-0.0822 0.42849,-0.54073 0.33477,-1.26055 -0.081,-0.62226 -0.17382,-1.58363 -0.20622,-2.13639 -0.24912,-4.24965 -3.25178,-16.42815 -4.34596,-17.6268 -0.27521,-0.3015 -0.43627,-0.65919 -0.35792,-0.79491 0.0784,-0.1357 -0.13618,-0.63732 -0.47675,-1.1147 -0.34057,-0.47736 -0.49213,-0.90199 -0.33681,-0.94361 0.71423,-0.19139 6.86191,8.17461 8.23125,11.20141 0.47255,1.04449 2.75601,8.77081 3.79602,12.84417 1.18286,4.63285 1.62373,7.92098 1.48942,11.10863 -0.0525,1.2453 0.0122,2.32679 0.14384,2.40332 0.33173,0.19268 0.92669,-0.90896 0.79776,-1.47716 -0.0581,-0.2562 0.0333,-1.10459 0.20325,-1.88534 0.16992,-0.78072 0.17627,-1.4961 0.0142,-1.5897 -0.16215,-0.0936 -0.19364,-0.35148 -0.07,-0.57303 0.57061,-1.02253 -0.49846,-9.09971 -1.90832,-14.41745 -0.79485,-2.99805 -1.06104,-4.77145 -0.78783,-5.24849 0.2266,-0.39648 0.49984,-0.67015 0.60635,-0.60866 0.41024,0.23685 1.70968,3.78688 2.40405,6.56777 0.71408,2.85983 1.19566,3.70158 1.67224,2.92288 0.24455,-0.39958 1.71536,5.31013 1.83625,7.12833 0.0363,0.54598 0.12068,1.43353 0.18751,1.97228 0.0668,0.53876 0.0361,1.36167 -0.0683,1.82869 -0.10443,0.46701 -0.0557,0.92655 0.10817,1.02119 0.16393,0.0946 0.19557,0.35259 0.0703,0.57323 -0.12511,0.2207 -0.28914,1.32442 -0.36422,2.45285 -0.0751,1.12843 -0.26071,2.27719 -0.41251,2.5528 -0.15209,0.27544 -0.21786,0.71805 -0.14682,0.9832 0.25761,0.96139 -2.32142,7.30015 -4.87059,11.97098 -1.43455,2.62852 -2.48267,4.85163 -2.32916,4.94026 0.15351,0.0886 1.08029,-0.38296 2.0595,-1.04798 l 1.78038,-1.20913 -5.69591,9.89261 c -5.40077,9.38001 -5.77429,9.94816 -7.20828,10.96492 -2.08496,1.47835 -3.23435,2.3133 -4.92379,3.57677 -0.79579,0.59515 -1.99003,1.47519 -2.65386,1.95566 -0.89959,0.65111 -1.41622,1.35957 -2.02877,2.7821 -0.45199,1.0497 -0.74235,2.05622 -0.64525,2.2367 0.24556,0.45639 -0.97548,2.48688 -1.50501,2.50277 -0.23849,0.007 -0.69026,0.45753 -1.00393,1.00083 -0.54605,0.94579 -4.06862,3.58671 -4.69564,3.52039 -0.16567,-0.0175 -0.37667,0.0989 -0.46891,0.25867 -0.40118,0.69486 -5.71236,2.71845 -9.7508,3.71508 -5.23263,1.29141 -6.21469,1.43234 -9.8506,1.41352 -1.84918,-0.01 -3.28982,0.2557 -4.29116,0.79024 -2.80142,1.49542 -8.53724,2.91257 -10.90778,2.69502 -1.22408,-0.11238 -2.46611,-0.34125 -2.76004,-0.50869 -0.29294,-0.16913 -0.6465,-0.22096 -0.78353,-0.11894 -0.23982,0.17851 -3.20909,-0.57232 -7.37436,-1.86482 -1.09317,-0.33911 -2.25649,-0.64899 -2.58514,-0.68862 -0.98921,-0.11906 -9.6116,-3.85797 -13.20538,-5.72627 -1.847615,-0.96049 -3.428809,-1.62594 -3.513809,-1.47871 -0.085,0.14722 -0.05901,0.62411 0.05774,1.05975 0.192942,0.72015 0.132421,0.7411 -0.665263,0.22975 -0.482921,-0.30884 -1.956793,-1.34996 -3.275882,-2.31257 l 9e-6,10e-6 z"
       id="path4192"
       inkscape:connector-curvature="0" />
    <path
       style="fill:#ffffff;stroke-width:0;stroke-miterlimit:4;stroke-dasharray:none"
       d="m 104.19526,930.76732 c -0.99196,-2.62779 -1.61762,-6.5077 -1.2547,-7.78084 0.15727,-0.55172 0.20639,-1.15101 0.10914,-1.33175 -0.0972,-0.18075 0.14175,-1.09986 0.5311,-2.04247 0.38936,-0.94261 0.62762,-1.86309 0.52948,-2.04551 -0.0982,-0.18241 0.3634,-1.27018 1.02567,-2.41726 l 1.20412,-2.08561 0.88059,1.98042 c 1.08172,2.43275 2.92811,5.40434 3.59843,5.79135 0.27384,0.1581 0.57297,0.56768 0.66474,0.91017 0.10479,0.39108 1.42985,1.41069 3.56243,2.74123 3.54477,2.2116 4.89065,2.61202 7.61511,2.26556 0.59475,-0.0756 1.6248,0.0536 2.289,0.28717 0.6642,0.23358 1.36006,0.34268 1.54635,0.24244 0.63567,-0.34201 4.14305,2.00414 5.89487,3.94318 1.75547,1.94308 1.90721,2.19863 2.53964,4.27715 0.36043,1.18458 -0.17161,3.41874 -0.90856,3.81527 -0.22375,0.12037 -1.35545,-0.32883 -2.51492,-0.99825 -1.80854,-1.04416 -2.34328,-1.18637 -3.76298,-1.00076 -0.91017,0.11898 -2.25775,0.26297 -2.99462,0.31997 -0.73687,0.057 -2.34528,0.18466 -3.57423,0.2837 -4.80433,0.38715 -8.3407,-0.58315 -13.96948,-3.83293 -2.11948,-1.22368 -2.29002,-1.41187 -3.01118,-3.32223 z"
       id="path4194"
       inkscape:connector-curvature="0" />
    <path
       style="fill:#ffffff;stroke-width:0;stroke-miterlimit:4;stroke-dasharray:none"
       d="m 124.31718,898.88081 c -0.13179,-0.82655 -0.046,-2.78151 0.26785,-6.10299 0.1145,-1.21179 0.59903,-2.38929 1.93633,-4.70556 0.98099,-1.69912 1.95234,-3.13449 2.15854,-3.1897 0.20622,-0.0552 0.51944,0.34931 0.696,0.89905 0.26929,0.83826 1.02842,1.45848 4.70665,3.84537 2.41206,1.56524 5.04124,3.37081 5.84261,4.01238 l 1.45704,1.16649 -1.30935,2.20187 c -1.25952,2.11815 -1.37469,2.21442 -3.02845,2.5311 -0.94552,0.18107 -3.17005,0.24445 -4.94342,0.14086 -1.77337,-0.10359 -4.17823,-0.11024 -5.34414,-0.0148 -1.16592,0.0955 -2.16126,0.14968 -2.21188,0.12045 -0.0507,-0.0292 -0.15313,-0.43629 -0.22781,-0.90457 z"
       id="path4196"
       inkscape:connector-curvature="0" />
    <path
       style="fill:#ffffff;stroke-width:0;stroke-miterlimit:4;stroke-dasharray:none"
       d="m 96.940172,859.45342 c 1.58467,-2.12401 4.654708,-5.40849 5.878568,-6.28919 2.6623,-1.91581 4.23376,-2.86635 5.32439,-3.22061 l 1.15704,-0.37583 -0.32183,1.02803 c -0.17701,0.56543 -0.38125,1.59795 -0.45386,2.29452 -0.0726,0.69656 -0.21581,1.41159 -0.31821,1.58894 -0.1024,0.17737 -0.0322,1.37499 0.15606,2.66139 l 0.34224,2.33891 -1.4484,0.0434 c -0.79662,0.0239 -1.5992,-0.0436 -1.78351,-0.15005 -0.18432,-0.10641 -0.44533,-0.1133 -0.58003,-0.0153 -0.1347,0.098 -1.04547,0.23634 -2.02393,0.30742 -0.97846,0.0711 -2.84603,0.383 -4.150151,0.69315 -1.304116,0.31014 -2.450228,0.51824 -2.546912,0.46242 -0.09669,-0.0558 0.249157,-0.67107 0.768541,-1.36722 z"
       id="path4198"
       inkscape:connector-curvature="0" />
    <path
       style="fill:#ffffff;fill-opacity:1;fill-rule:evenodd;stroke:#000000;stroke-width:0;stroke-linecap:butt;stroke-linejoin:miter;stroke-miterlimit:4;stroke-dasharray:none;stroke-opacity:1"
       d="m 127.56129,800.31198 c -11.95373,0 -23.90753,4.57894 -33.0671,13.73851 l -77.343682,77.34367 c -18.3191287,18.31912 -18.3191287,47.81505 0,66.13417 L 94.49419,1034.872 c 18.31913,18.3192 47.81506,18.3192 66.13418,0 l 77.34368,-77.34367 c 18.31912,-18.31912 18.31912,-47.81505 0,-66.13417 l -77.34368,-77.34367 c -9.15956,-9.15957 -21.11336,-13.73851 -33.06708,-13.73851 z m 0.0606,7.38757 c 11.26499,0 22.53018,4.3165 31.162,12.94832 l 72.88804,72.88608 c 17.26364,17.26363 17.26364,45.06038 0,62.32401 l -72.88804,72.88614 c -17.26362,17.2636 -45.06037,17.2636 -62.32402,0 L 23.573777,955.85797 c -17.2636307,-17.26363 -17.2636307,-45.06038 0,-62.32402 L 96.45986,820.64787 c 8.63183,-8.63182 19.89703,-12.94832 31.16202,-12.94832 z"
       id="rect3336-36"
       inkscape:connector-curvature="0" />
  </g>
</svg>
