<?xml version="1.0" encoding="UTF-8" standalone="no"?>
<!-- Created with Inkscape (http://www.inkscape.org/) -->

<svg
   xmlns:dc="http://purl.org/dc/elements/1.1/"
   xmlns:cc="http://creativecommons.org/ns#"
   xmlns:rdf="http://www.w3.org/1999/02/22-rdf-syntax-ns#"
   xmlns:svg="http://www.w3.org/2000/svg"
   xmlns="http://www.w3.org/2000/svg"
   xmlns:sodipodi="http://sodipodi.sourceforge.net/DTD/sodipodi-0.dtd"
   xmlns:inkscape="http://www.inkscape.org/namespaces/inkscape"
   width="256"
   height="256"
   viewBox="0 0 256 256"
   id="svg2"
   version="1.1"
   inkscape:version="0.91 r13725"
   sodipodi:docname="gimp.svg">
  <defs
     id="defs4" />
  <sodipodi:namedview
     id="base"
     pagecolor="#ffffff"
     bordercolor="#666666"
     borderopacity="1.0"
     inkscape:pageopacity="0.0"
     inkscape:pageshadow="2"
     inkscape:zoom="1.4"
     inkscape:cx="50.770649"
     inkscape:cy="91.431447"
     inkscape:document-units="px"
     inkscape:current-layer="layer1"
     showgrid="false"
     units="px"
     inkscape:window-width="1366"
     inkscape:window-height="714"
     inkscape:window-x="0"
     inkscape:window-y="32"
     inkscape:window-maximized="1" />
  <metadata
     id="metadata7">
    <rdf:RDF>
      <cc:Work
         rdf:about="">
        <dc:format>image/svg+xml</dc:format>
        <dc:type
           rdf:resource="http://purl.org/dc/dcmitype/StillImage" />
        <dc:title />
      </cc:Work>
    </rdf:RDF>
  </metadata>
  <g
     inkscape:label="Layer 1"
     inkscape:groupmode="layer"
     id="layer1"
     transform="translate(0,-796.36216)">
    <rect
       style="fill:#333333;fill-rule:evenodd;stroke:#000000;stroke-width:0;stroke-linecap:butt;stroke-linejoin:miter;stroke-opacity:1;stroke-miterlimit:4;stroke-dasharray:none;fill-opacity:1"
       id="rect3336"
       width="202.61562"
       height="202.61562"
       x="-664.62292"
       y="642.82465"
       ry="46.696564"
       transform="matrix(0.70710678,-0.70710678,0.70710678,0.70710678,0,0)" />
    <path
       style="fill:#ffffff;fill-opacity:1;fill-rule:evenodd;stroke:#000000;stroke-width:0;stroke-linecap:butt;stroke-linejoin:miter;stroke-miterlimit:4;stroke-dasharray:none;stroke-opacity:1"
       d="m 127.83221,800.15617 c -11.95373,0 -23.90753,4.57894 -33.067107,13.73851 l -77.343678,77.34367 c -18.31912912,18.31912 -18.31912912,47.81505 0,66.13417 l 77.343678,77.34368 c 18.319137,18.3192 47.815067,18.3192 66.134187,0 l 77.34368,-77.34368 c 18.31912,-18.31912 18.31912,-47.81505 0,-66.13417 l -77.34368,-77.34367 c -9.15956,-9.15957 -21.11336,-13.73851 -33.06708,-13.73851 z m 0.0606,7.38757 c 11.26499,0 22.53018,4.3165 31.162,12.94832 l 72.88804,72.88608 c 17.26364,17.26363 17.26364,45.06038 0,62.32401 l -72.88804,72.88615 c -17.26362,17.2636 -45.06037,17.2636 -62.32402,0 L 23.844694,955.70216 c -17.2636309,-17.26363 -17.2636309,-45.06038 0,-62.32402 L 96.73078,820.49206 c 8.63183,-8.63182 19.89703,-12.94832 31.16202,-12.94832 z"
       id="rect3336-36"
       inkscape:connector-curvature="0" />
    <path
       style="opacity:1;fill:#ffffff;fill-opacity:1;stroke-width:0;stroke-miterlimit:4;stroke-dasharray:none"
       d="M 199.61133 93.667969 C 199.56951 93.662219 199.51996 93.666284 199.46094 93.677734 L 199.46484 93.671875 C 199.42084 93.680875 199.34977 93.718728 199.29688 93.736328 C 199.29388 93.736148 199.29206 93.730469 199.28906 93.730469 C 199.28854 93.730469 199.28516 93.732422 199.28516 93.732422 L 199.28125 93.730469 L 199.2793 93.730469 L 199.27539 93.730469 C 199.27443 93.730469 199.27053 93.732422 199.26953 93.732422 L 199.26758 93.730469 C 199.26703 93.730469 199.26272 93.732422 199.26172 93.732422 C 199.26072 93.732382 199.25981 93.730469 199.25781 93.730469 L 199.25391 93.730469 L 199.25391 93.732422 L 199.25195 93.732422 L 199.24805 93.730469 L 199.24609 93.730469 L 199.24219 93.730469 C 199.24181 93.730469 199.23828 93.732422 199.23828 93.732422 C 199.23728 93.732382 199.23442 93.730469 199.23242 93.730469 C 199.22742 93.730469 199.17216 93.769284 199.16406 93.771484 C 198.93687 93.839584 198.40633 94.174149 197.78711 94.599609 C 197.66492 94.683909 197.55059 94.762932 197.41992 94.857422 C 197.22158 94.999752 197.052 95.101472 196.84766 95.257812 C 196.79396 95.298913 196.56528 95.474938 196.50195 95.523438 C 196.41235 95.586437 196.25708 95.701888 196.16406 95.767578 C 194.23895 97.116868 191.62099 99.001054 188.74219 101.11523 C 188.60412 101.2166 188.52642 101.26762 188.39062 101.36719 C 182.15811 105.83237 178.27827 108.48162 175.90625 109.82227 C 175.7173 109.9292 175.51837 110.0427 175.35547 110.12891 C 175.07655 110.27816 174.82275 110.40526 174.58203 110.51953 C 174.28947 110.65649 174.02126 110.76937 173.76953 110.86523 C 173.66661 110.90403 173.54674 110.95694 173.45117 110.98828 C 173.42627 110.99628 173.40341 111.00607 173.37891 111.01367 C 172.25098 111.37178 171.39447 111.35816 168.04883 110.21094 C 166.60723 109.7109 163.71439 108.64256 160.78906 107.5332 C 160.51017 107.42769 160.38527 107.38469 160.0918 107.27344 C 160.0222 107.24704 159.96786 107.22747 159.89844 107.20117 C 159.22654 106.93982 158.4129 106.61827 157.75391 106.36133 C 157.03195 106.07061 156.38221 105.81935 155.76562 105.58203 C 155.55794 105.50423 155.22907 105.37129 155.03125 105.29883 C 153.59147 104.76038 152.36799 104.3719 151.20703 104.08203 C 150.86833 103.97639 150.46835 103.84113 150.26172 103.79297 C 149.82144 103.6903 149.13591 103.60186 148.29102 103.52539 C 148.20282 103.51379 148.09724 103.5103 148.00781 103.5 C 146.29491 103.21314 144.52753 103.07252 142.5 103.02148 C 140.25283 102.8564 137.97117 102.8334 135.68555 102.92969 C 135.35191 102.92869 135.10102 102.91797 134.75586 102.91797 L 130.8418 102.91797 L 129.27734 102.88281 L 125.07617 103.73633 C 124.97027 103.75573 124.84137 103.78574 124.73438 103.80664 L 122.72266 104.21484 L 122.66992 104.22656 C 122.63432 104.23456 122.60168 104.23899 122.56641 104.24609 C 120.60531 104.63476 119.07313 104.93264 117.79492 105.16797 C 117.63106 105.19747 117.43139 105.23522 117.2793 105.26172 C 116.62355 105.3799 116.2104 105.43252 115.70117 105.51172 C 114.50519 105.67994 113.62832 105.7496 112.75 105.74805 C 111.80183 105.74705 111.11859 105.6887 110.34375 105.52344 C 109.49772 105.32155 108.1596 104.86673 106.41602 104.19336 C 106.35592 104.16956 106.31181 104.15145 106.25 104.12695 C 105.83408 103.96042 105.44021 103.80209 104.94531 103.59961 C 102.55823 102.62504 97.637219 100.51674 96.730469 100.07422 L 96.064453 99.677734 L 96.255859 100.39062 L 96.224609 108.91016 C 96.216609 110.81901 96.198994 112.25923 96.183594 113.80664 C 96.093394 118.33218 95.981542 122.32917 95.888672 123.91406 C 95.835872 124.59198 95.779358 125.28406 95.710938 125.71289 C 95.580838 126.38691 95.382236 127.00401 95.097656 127.59766 C 95.018156 127.7578 94.936353 127.91936 94.845703 128.07812 C 94.803003 128.15302 94.762477 128.22808 94.716797 128.30273 C 94.647197 128.41755 94.567217 128.52879 94.492188 128.64258 C 94.085077 129.24347 93.581616 129.84818 92.941406 130.5 C 92.408981 131.04208 91.861703 131.52889 91.308594 131.9707 C 91.252604 132.014 91.200982 132.06292 91.144531 132.10547 C 90.884061 132.30808 90.623167 132.50183 90.359375 132.68164 C 90.322785 132.70594 90.284764 132.72805 90.248047 132.75195 C 90.059389 132.87801 89.869689 132.99313 89.679688 133.10742 C 89.499201 133.21383 89.31908 133.31862 89.136719 133.41602 C 89.042719 133.46672 88.949662 133.51483 88.855469 133.5625 C 88.672926 133.6547 88.489765 133.74189 88.306641 133.82422 C 88.150074 133.89382 87.994794 133.96012 87.837891 134.02148 C 87.733419 134.06338 87.627664 134.10433 87.523438 134.14258 C 86.947468 134.34751 86.371823 134.50191 85.796875 134.59375 C 85.451806 134.64885 85.161148 134.66228 84.873047 134.67188 C 84.443908 134.67228 84.207561 134.64705 83.962891 134.62305 C 83.538611 134.5398 83.182031 134.36396 82.857422 134.10742 L 82.857422 158.17383 C 83.119021 158.344 83.383683 158.51937 83.652344 158.69727 C 83.661544 158.70327 83.67838 158.71646 83.6875 158.72266 C 84.546928 159.31206 84.967643 159.57639 85.5 159.92578 C 85.58766 159.98588 85.652142 160.03138 85.734375 160.08789 C 85.748855 160.11359 85.764544 160.13717 85.777344 160.16797 C 85.870444 160.39095 86.067917 160.51083 86.544922 160.64453 C 86.719163 160.76646 87.180558 161.07688 87.261719 161.13672 C 87.296109 161.16202 87.373877 161.20237 87.414062 161.23047 C 87.443152 161.25297 87.503941 161.28939 87.527344 161.30859 C 87.665111 161.46693 87.827117 161.66406 87.865234 161.66406 C 87.895494 161.66406 88.284689 161.83941 88.625 161.98438 C 88.817059 162.08717 89.007492 162.19146 89.292969 162.33594 C 89.327099 162.35944 89.391076 162.39161 89.417969 162.41211 C 89.481969 162.48331 89.548332 162.56513 89.603516 162.6543 C 89.81784 163.00032 89.923033 163.07597 90.287109 163.1582 C 90.414079 163.1869 90.67474 163.21094 90.865234 163.21094 L 91.091797 163.21094 C 91.843649 163.57997 92.643084 163.97196 93.882812 164.57031 C 93.904012 164.58061 93.910241 164.58395 93.931641 164.59375 C 94.049431 164.65385 94.150404 164.70948 94.277344 164.77344 C 94.407984 164.83924 94.509578 164.89833 94.642578 164.96484 C 94.682878 164.98504 94.723422 165.00148 94.763672 165.02148 C 94.908442 165.09398 94.997624 165.14434 95.146484 165.21875 C 95.888024 165.58945 96.618306 165.93524 97.353516 166.29102 C 97.362516 166.29502 97.370206 166.29883 97.378906 166.30273 C 97.740416 166.482 98.104327 166.65479 98.466797 166.83008 C 99.073297 167.11865 99.674357 167.39983 100.27539 167.67773 C 101.04525 168.03456 101.81672 168.39177 102.59375 168.73242 C 110.45022 172.22651 117.70797 174.73754 123.62891 175.99219 C 123.64431 175.99619 123.65843 175.99951 123.67383 176.00391 C 123.8855 176.04861 124.11604 176.10892 124.32422 176.15039 C 124.35332 176.15539 124.39796 176.15796 124.42773 176.16406 C 125.05067 176.30363 125.67656 176.44834 126.27539 176.56445 C 126.57448 176.62235 127.74662 176.65597 129.3457 176.67188 C 130.0213 176.72177 130.84335 176.75008 131.73242 176.76758 C 133.51415 176.86934 135.32084 176.87588 137.13672 176.79688 C 139.00448 176.75747 140.76559 176.6497 142.30469 176.46875 C 142.75831 176.42845 143.15002 176.37429 143.56445 176.32617 C 143.79528 176.30417 144.02179 176.27139 144.24023 176.24609 C 144.40462 176.22399 144.60602 176.20915 144.76172 176.18555 C 144.95787 176.15595 145.15204 176.11606 145.34766 176.08398 C 145.93157 175.99228 146.56867 175.87958 147.15625 175.75 C 147.27262 175.7261 147.38774 175.69873 147.50391 175.67383 C 147.72701 175.62573 148.0077 175.59021 148.21094 175.53906 C 148.29624 175.51756 148.37789 175.4924 148.46289 175.4707 C 149.11771 175.31563 149.76972 175.14504 150.41797 174.96094 C 150.72871 174.87284 151.04218 174.77438 151.35156 174.67773 C 156.65434 173.04923 161.72458 170.44442 166.48633 166.90234 C 166.68261 166.75688 166.88065 166.6082 167.07617 166.45898 C 167.3064 166.28304 167.53688 166.10809 167.76562 165.92773 C 167.88781 165.83143 168.00881 165.72694 168.13086 165.62891 C 168.18216 165.58781 168.2339 165.5472 168.28516 165.50586 C 168.34916 165.45566 168.41077 165.40203 168.47461 165.35156 C 168.49251 165.33706 168.50964 165.32309 168.52734 165.30859 C 168.65212 165.20644 168.77954 165.1098 168.9043 165.00586 C 168.9594 164.96006 169.01535 164.91702 169.07031 164.87109 C 169.20906 164.75717 169.34442 164.63505 169.48242 164.51953 C 169.52602 164.48243 169.56976 164.44743 169.61328 164.41016 C 169.62228 164.40216 169.63122 164.39277 169.64062 164.38477 C 170.2509 163.87491 170.85465 163.35025 171.44922 162.81055 C 172.1897 162.13842 172.91746 161.44256 173.63281 160.72461 C 173.75629 160.60087 173.87935 160.47661 174.00195 160.35156 C 174.64171 159.69844 175.27 159.02569 175.88867 158.33594 C 175.99288 158.21945 176.09766 158.10574 176.20117 157.98828 C 176.59181 157.54627 176.97943 157.09724 177.36133 156.64062 C 177.60539 156.35714 177.84922 156.0739 178.08789 155.78711 C 178.26178 155.57888 178.43047 155.36612 178.60156 155.15625 C 178.92177 154.76174 179.24003 154.36644 179.55078 153.96484 C 179.75324 153.70476 179.95967 153.44655 180.1582 153.18359 C 180.65165 152.54566 181.08005 151.94392 181.48828 151.35156 C 181.58965 151.20731 181.69459 151.06713 181.79492 150.92188 C 181.82102 150.88257 181.85907 150.83591 181.88477 150.79688 C 181.94327 150.70817 182.00032 150.6148 182.05859 150.52539 C 187.95789 141.85181 192.07427 131.38154 195.92969 116.13281 C 196.01409 115.80018 196.08742 115.48192 196.16992 115.15039 C 196.21612 114.96467 196.25545 114.78964 196.30078 114.60547 C 196.44525 114.02348 196.58913 113.43469 196.73047 112.84375 C 196.91476 112.07289 197.09495 111.31396 197.26367 110.57617 C 197.29187 110.45101 197.31595 110.33156 197.34375 110.20703 C 197.57823 109.17331 197.81537 108.13149 198.01758 107.17188 C 198.03778 107.07697 198.06193 106.98969 198.08203 106.89453 C 198.27292 105.9906 198.44403 105.09834 198.60352 104.2207 C 198.88878 102.72312 199.14176 101.31288 199.32227 100.0957 C 199.32313 100.0907 199.32222 100.08813 199.32422 100.08203 C 199.43244 99.351231 199.48092 98.79116 199.54492 98.1875 C 199.68525 97.13125 199.77414 96.247634 199.80664 95.558594 C 199.87234 94.609154 199.87374 93.875691 199.71094 93.712891 C 199.68724 93.689141 199.65315 93.673719 199.61133 93.667969 z M 109.73828 120.43945 C 109.82668 120.44345 109.91598 120.44798 110.00391 120.45508 C 110.24466 120.47138 110.47204 120.50531 110.70117 120.53711 C 112.37682 120.83444 113.94446 121.67141 115.36523 123.07812 C 116.24474 123.94894 116.95458 124.89834 117.4668 125.85156 C 117.4987 125.91436 117.53633 125.97372 117.56641 126.03711 C 117.63211 126.17245 117.68547 126.3098 117.74219 126.44531 C 117.83229 126.66387 117.915 126.88514 117.98633 127.11133 C 118.02423 127.23779 118.06379 127.36285 118.0957 127.49805 C 118.1173 127.58005 118.13109 127.66495 118.15039 127.74805 C 118.15839 127.78475 118.16292 127.82408 118.16992 127.86133 C 118.3322 129.01785 118.34265 130.74572 118.20117 132.04102 C 118.11947 132.58109 118.00306 133.09461 117.85742 133.57422 C 117.80322 133.72363 117.75171 133.87273 117.6875 134.01758 C 117.6584 134.08318 117.63276 134.15016 117.60156 134.21484 C 117.48675 134.45352 117.35427 134.68528 117.21289 134.91016 C 117.16559 134.98536 117.12055 135.06102 117.07031 135.13477 C 116.91815 135.35788 116.75211 135.56988 116.57422 135.77734 C 116.52202 135.83854 116.47038 135.90117 116.41602 135.96094 C 116.2765 136.11358 116.12203 136.25734 115.96875 136.40039 C 115.75674 136.59039 115.54034 136.779 115.30469 136.95508 C 115.29869 136.96008 115.29156 136.96385 115.28516 136.96875 C 115.0324 137.15671 114.7663 137.33225 114.49219 137.5 C 114.41669 137.545 114.33915 137.58969 114.26172 137.63281 C 114.09405 137.72991 113.92121 137.82014 113.74805 137.9082 C 113.11241 138.21435 112.42998 138.46865 111.69336 138.6543 C 110.60645 138.92823 108.80644 139.09817 107.50391 139.08203 C 107.50291 139.08201 107.49905 139.08205 107.49805 139.08203 C 107.15556 139.07803 106.88594 139.04898 106.63477 139.01758 C 106.52772 139.00468 106.41022 138.99542 106.31836 138.97852 C 106.19643 138.95472 106.07889 138.91882 105.95898 138.88672 C 105.82445 138.84882 105.68927 138.81151 105.55664 138.76367 C 105.51074 138.74807 105.46509 138.73144 105.41992 138.71484 C 105.33202 138.68144 105.24674 138.64513 105.16016 138.60742 C 104.92988 138.50554 104.70245 138.3944 104.48047 138.26367 C 104.43457 138.23667 104.38719 138.21395 104.3418 138.18555 C 104.0725 138.01848 103.812 137.82563 103.55859 137.61914 C 103.4377 137.51906 103.32143 137.40951 103.20508 137.30078 C 103.10436 137.20848 103.0056 137.11389 102.9082 137.01562 C 101.45042 135.51071 100.41624 133.33258 100.08398 130.99023 C 100.06658 130.83957 100.05402 130.68728 100.04102 130.5332 C 100.03302 130.22417 100.0306 129.89146 100.0293 129.44922 C 100.02832 128.66384 100.04847 128.25907 100.07617 127.8457 C 100.08117 127.8104 100.08494 127.77545 100.08984 127.74023 C 100.13274 127.46383 100.19754 127.19562 100.26953 126.92773 C 100.28863 126.85803 100.30302 126.78595 100.32422 126.7168 C 100.39382 126.48422 100.48141 126.25787 100.57227 126.0332 C 100.63497 125.88133 100.70122 125.73215 100.77344 125.58398 C 100.85604 125.41172 100.93817 125.2406 101.0332 125.07422 C 101.18296 124.81496 101.34747 124.56259 101.52539 124.31836 C 101.60899 124.20342 101.69723 124.09152 101.78711 123.98047 C 101.97038 123.75298 102.16651 123.53507 102.37305 123.32422 C 102.55533 123.14119 102.74679 122.96361 102.94727 122.79492 C 103.00957 122.74112 103.07286 122.689 103.13672 122.63672 C 103.65553 122.22395 104.22666 121.85786 104.84961 121.55078 C 106.19667 120.88675 107.50231 120.53371 108.75977 120.44531 C 109.08591 120.43021 109.41232 120.42545 109.73828 120.43945 z M 137.40625 121.48438 C 138.72895 121.48838 139.79677 121.51904 140.70703 121.59375 C 140.75513 121.59875 140.8161 121.60057 140.86328 121.60547 C 141.23155 121.63867 141.56175 121.68626 141.88086 121.73828 C 141.9984 121.75888 142.12233 121.77573 142.23438 121.79883 C 142.42036 121.83553 142.58911 121.88427 142.76172 121.92969 C 142.92979 121.97439 143.10391 122.01364 143.26172 122.06641 C 143.56043 122.16726 143.84833 122.27881 144.12305 122.41602 C 144.13335 122.42102 144.144 122.42879 144.1543 122.43359 C 145.05769 122.89057 145.87917 123.56151 146.91211 124.53906 C 149.62493 127.10646 150.83964 129.03835 151.31055 131.5332 C 151.31555 131.5651 151.31932 131.60229 151.32422 131.63477 C 151.63642 133.43 151.56695 137.37425 151.23438 139.375 C 151.17878 139.64886 151.12181 139.91961 151.05273 140.14258 C 151.04973 140.15158 151.04527 140.16032 151.04297 140.16992 C 150.97897 140.37415 150.89628 140.55906 150.82031 140.75 C 150.75641 140.90388 150.70609 141.06342 150.63086 141.21484 C 150.60036 141.27864 150.55801 141.3411 150.52539 141.4043 C 150.36527 141.70538 150.19043 142.00429 149.97461 142.31055 C 149.95441 142.33935 149.93096 142.37149 149.91016 142.40039 C 149.67642 142.72479 149.40522 143.05465 149.0957 143.4043 C 149.0508 143.455 149.00181 143.5108 148.95508 143.5625 C 148.6216 143.93045 148.25546 144.31244 147.82422 144.73047 C 146.66094 145.85813 145.62816 146.70877 144.58398 147.36133 C 144.49838 147.41393 144.41214 147.46364 144.32617 147.51367 C 144.07203 147.66409 143.81759 147.80545 143.55859 147.93359 C 143.38902 148.01639 143.21416 148.08777 143.04102 148.16211 C 142.84211 148.24831 142.6427 148.33678 142.4375 148.41211 C 142.20887 148.49581 141.97029 148.56906 141.73242 148.64062 C 141.55946 148.69242 141.39224 148.74909 141.21289 148.79492 C 141.0045 148.84872 140.77977 148.88933 140.5625 148.93555 C 140.30195 148.99015 140.05044 149.04869 139.77344 149.09375 C 139.75174 149.09775 139.72688 149.09952 139.70508 149.10352 C 139.29678 149.16852 138.86466 149.22382 138.41406 149.27148 C 138.41006 149.27182 138.40429 149.27115 138.40039 149.27148 C 137.06409 149.38009 135.54338 149.41247 134.42773 149.35547 C 133.46335 149.26647 132.64538 149.08546 131.99219 148.79883 C 131.36682 148.51819 130.66004 148.05785 129.93164 147.48438 C 129.91474 147.47108 129.89786 147.46262 129.88086 147.44922 L 129.87695 147.44531 C 129.68848 147.2957 129.49849 147.11849 129.30859 146.95508 C 127.18851 145.11978 125.03995 142.49472 124.4082 140.69727 C 124.12251 139.88434 123.94908 138.49905 123.88281 136.96094 C 123.86001 135.797 123.87128 134.57112 123.92578 133.41992 C 123.93178 133.32462 123.93596 133.22877 123.94336 133.13477 C 124.06917 131.72296 124.29058 130.4368 124.60156 129.47852 C 124.81402 128.87651 125.09258 128.29926 125.42969 127.72852 C 125.55226 127.52922 125.67422 127.33062 125.81445 127.12891 C 126.09815 126.71184 126.41835 126.29591 126.7832 125.875 C 126.8592 125.7857 126.94332 125.69966 127.02148 125.61133 C 127.41683 125.17388 127.84111 124.73327 128.33398 124.27539 C 128.59044 124.03712 128.82754 123.83137 129.06445 123.63086 C 129.20845 123.51255 129.35231 123.39452 129.49609 123.28516 C 129.61608 123.19166 129.73702 123.10381 129.85547 123.01953 C 130.04709 122.88392 130.23257 122.76792 130.41992 122.65234 C 130.59508 122.54813 130.77076 122.43862 130.95117 122.35156 C 130.97187 122.34126 130.99122 122.33472 131.01172 122.32422 C 132.47877 121.63427 134.20659 121.47501 137.40625 121.48438 z M 106.98438 129.41992 C 106.668 129.47652 106.28604 129.8007 105.56836 130.43945 C 104.2934 131.5742 103.93139 132.98738 104.80078 133.36523 C 104.88518 133.51987 104.98606 133.6716 105.12891 133.81445 C 105.16991 133.85545 105.23985 133.89128 105.29688 133.92969 C 105.30848 133.97779 105.32422 134.02697 105.32422 134.07422 C 105.32422 134.91968 107.73816 134.72586 108.73633 133.80078 C 109.65783 132.94675 109.95222 130.6543 109.14062 130.6543 C 108.90511 130.6543 108.39726 130.35918 108.01172 130 C 107.55229 129.57197 107.30073 129.36329 106.98438 129.41992 z M 134.6543 134.24609 C 133.1314 134.24609 132.74718 134.37812 131.99609 135.16211 C 131.51351 135.6658 131.11719 136.25409 131.11719 136.46875 C 131.11719 136.50285 131.10405 136.53295 131.09375 136.56445 C 131.07165 136.60135 131.05265 136.63891 131.03125 136.67578 C 130.94375 136.7831 130.80062 136.85938 130.62891 136.85938 C 129.89886 136.85938 130.01049 138.70895 130.80273 139.74609 C 131.16734 140.22339 131.78886 141.01785 132.18555 141.51172 C 132.81873 142.30006 133.13196 142.41016 134.75 142.41016 C 136.31842 142.41016 136.62029 142.31163 136.76562 141.75586 C 136.85962 141.39669 137.15176 141.10352 137.41797 141.10352 C 137.71398 141.10352 137.98801 140.65278 138.12109 139.94336 C 138.15059 139.78651 138.19173 139.63187 138.24023 139.48633 C 138.38399 139.22238 138.52201 138.96962 138.60547 138.76562 C 138.67197 138.68543 138.73901 138.62797 138.80273 138.60352 C 139.1993 138.45131 139.19681 138.3589 138.78516 137.94727 C 138.67293 137.83503 138.55335 137.64652 138.44336 137.45312 C 138.42116 137.40813 138.38553 137.35341 138.36133 137.30664 C 138.24975 137.08619 138.14993 136.85067 138.09766 136.64258 C 137.98414 136.19004 137.56326 135.46605 137.16211 135.0332 C 136.56332 134.38708 136.11479 134.24609 134.6543 134.24609 z M 89.890625 162.6543 C 89.909048 162.65585 90.022678 162.70701 90.076172 162.72656 C 90.092202 162.75616 90.10457 162.80874 90.125 162.82812 L 90.128906 162.83984 L 90.134766 162.83984 C 90.211826 162.90424 90.342576 162.92878 90.591797 162.9668 C 90.664587 162.9993 90.821565 163.07754 90.919922 163.12305 C 90.781418 163.08475 90.567815 163.0398 90.392578 163.01953 C 90.027959 162.97723 89.974591 162.92958 89.890625 162.6543 z "
       transform="translate(0,796.36216)"
       id="path4767" />
    <path
       style="opacity:1;fill:#808000;fill-opacity:1;stroke-width:0;stroke-miterlimit:4;stroke-dasharray:none"
       d=""
       id="path4916"
       inkscape:connector-curvature="0"
       transform="translate(0,796.36216)" />
    <path
       style="opacity:1;fill:#808000;fill-opacity:1;stroke-width:0;stroke-miterlimit:4;stroke-dasharray:none"
       d=""
       id="path4918"
       inkscape:connector-curvature="0"
       transform="translate(0,796.36216)" />
    <path
       style="opacity:1;fill:#808000;fill-opacity:1;stroke-width:0;stroke-miterlimit:4;stroke-dasharray:none"
       d=""
       id="path4920"
       inkscape:connector-curvature="0"
       transform="translate(0,796.36216)" />
    <path
       style="opacity:1;fill:#808000;fill-opacity:1;stroke-width:0;stroke-miterlimit:4;stroke-dasharray:none"
       d=""
       id="path4974"
       inkscape:connector-curvature="0"
       transform="translate(0,796.36216)" />
    <path
       style="opacity:1;fill:#808000;fill-opacity:1;stroke-width:0;stroke-miterlimit:4;stroke-dasharray:none"
       d=""
       id="path4976"
       inkscape:connector-curvature="0"
       transform="translate(0,796.36216)" />
    <path
       style="opacity:1;fill:#808000;fill-opacity:1;stroke-width:0;stroke-miterlimit:4;stroke-dasharray:none"
       d=""
       id="path4978"
       inkscape:connector-curvature="0"
       transform="translate(0,796.36216)" />
    <path
       style="opacity:1;fill:#808000;fill-opacity:1;stroke-width:0;stroke-miterlimit:4;stroke-dasharray:none"
       d=""
       id="path4980"
       inkscape:connector-curvature="0"
       transform="translate(0,796.36216)" />
    <path
       style="opacity:1;fill:#808000;fill-opacity:1;stroke-width:0;stroke-miterlimit:4;stroke-dasharray:none"
       d=""
       id="path4982"
       inkscape:connector-curvature="0"
       transform="translate(0,796.36216)" />
    <path
       style="opacity:1;fill:#808000;fill-opacity:1;stroke-width:0;stroke-miterlimit:4;stroke-dasharray:none"
       d=""
       id="path5006"
       inkscape:connector-curvature="0"
       transform="translate(0,796.36216)" />
    <circle
       style="opacity:1;fill:#ffffff;fill-opacity:1;stroke-width:0;stroke-miterlimit:4;stroke-dasharray:none"
       id="path4148"
       cx="73.571426"
       cy="942.36218"
       r="15" />
  </g>
</svg>
