<?xml version="1.0" encoding="UTF-8" standalone="no"?>
<!-- Created with Inkscape (http://www.inkscape.org/) -->

<svg
   xmlns:dc="http://purl.org/dc/elements/1.1/"
   xmlns:cc="http://creativecommons.org/ns#"
   xmlns:rdf="http://www.w3.org/1999/02/22-rdf-syntax-ns#"
   xmlns:svg="http://www.w3.org/2000/svg"
   xmlns="http://www.w3.org/2000/svg"
   xmlns:sodipodi="http://sodipodi.sourceforge.net/DTD/sodipodi-0.dtd"
   xmlns:inkscape="http://www.inkscape.org/namespaces/inkscape"
   width="256"
   height="256"
   viewBox="0 0 256 256"
   id="svg2"
   version="1.1"
   inkscape:version="0.91 r13725"
   sodipodi:docname="inkscape.svg">
  <defs
     id="defs4" />
  <sodipodi:namedview
     id="base"
     pagecolor="#ffffff"
     bordercolor="#666666"
     borderopacity="1.0"
     inkscape:pageopacity="0.0"
     inkscape:pageshadow="2"
     inkscape:zoom="1.4"
     inkscape:cx="78.557872"
     inkscape:cy="141.13945"
     inkscape:document-units="px"
     inkscape:current-layer="layer1"
     showgrid="false"
     units="px"
     inkscape:window-width="1366"
     inkscape:window-height="719"
     inkscape:window-x="0"
     inkscape:window-y="23"
     inkscape:window-maximized="1" />
  <metadata
     id="metadata7">
    <rdf:RDF>
      <cc:Work
         rdf:about="">
        <dc:format>image/svg+xml</dc:format>
        <dc:type
           rdf:resource="http://purl.org/dc/dcmitype/StillImage" />
        <dc:title />
      </cc:Work>
    </rdf:RDF>
  </metadata>
  <g
     inkscape:label="Layer 1"
     inkscape:groupmode="layer"
     id="layer1"
     transform="translate(0,-796.36216)">
    <rect
       style="fill:#333333;fill-rule:evenodd;stroke:#000000;stroke-width:0;stroke-linecap:butt;stroke-linejoin:miter;stroke-opacity:1;stroke-miterlimit:4;stroke-dasharray:none;fill-opacity:1"
       id="rect3336"
       width="202.61562"
       height="202.61562"
       x="-664.62292"
       y="642.82465"
       ry="46.696564"
       transform="matrix(0.70710678,-0.70710678,0.70710678,0.70710678,0,0)" />
    <path
       style="fill:#ffffff;fill-opacity:1;stroke-width:0;stroke-miterlimit:4;stroke-dasharray:none"
       d="m 121.24043,982.39927 c -0.86258,-0.6042 -1.56833,-1.4294 -1.56833,-1.8339 0,-1.8593 -2.50192,-5.6983 -4.32956,-6.6434 -1.11225,-0.5752 -3.66712,-1.3577 -5.67749,-1.739 -3.35764,-0.6368 -6.22316,-2.2652 -6.22316,-3.5366 0,-0.2857 1.27018,-2.0566 2.82264,-3.9352 3.15874,-3.8225 3.51782,-5.9145 1.36022,-7.9247 -1.54081,-1.4354 -2.86119,-1.9784 -14.767771,-6.0731 -15.29281,-5.2591 -16.06145,-6.1998 -8.38423,-10.2609 5.75794,-3.0458 6.97291,-4.0429 6.97291,-5.7222 0,-1.498 -2.57845,-2.7594 -8.46793,-4.1429 -14.77717,-3.4711 -19.05284,-5.7611 -19.05284,-10.2043 0,-3.7188 3.72667,-8.4916 17.92817,-22.96067 7.43648,-7.5766 18.273461,-18.64751 24.082211,-24.60203 5.80875,-5.95452 11.82773,-11.47723 13.37553,-12.27267 3.24074,-1.66549 8.61264,-1.94307 12.45853,-0.64376 1.92572,0.65058 9.03547,7.3902 28.33337,26.85833 14.16939,14.29439 26.74646,27.3481 27.94902,29.0081 3.08778,4.2626 3.05099,8.136 -0.10693,11.2558 -3.12514,3.0873 -9.82067,6.3605 -19.98012,9.7675 -4.68222,1.5702 -10.34173,3.6636 -12.57668,4.652 -5.61087,2.4814 -5.32028,3.9005 1.68413,8.2251 5.71949,3.5311 6.60841,5.0841 4.63458,8.0965 -1.41213,2.1552 -3.97089,3.4683 -8.71543,4.4724 -4.52994,0.9588 -8.45796,2.8969 -11.7769,5.811 -3.15768,2.7725 -3.14859,4.3339 0.0361,6.2129 1.38907,0.8196 2.39642,1.883 2.23854,2.3631 -0.77595,2.3599 -12.42075,6.8711 -17.73617,6.8711 -1.61927,0 -3.64987,-0.4943 -4.51246,-1.0985 l 2e-5,0 z m 8.16979,-37.854 c 2.11801,-2.118 0.96062,-3.1157 -4.97491,-4.2887 -3.20194,-0.6327 -8.8384,-1.8196 -12.52548,-2.6374 -8.69929,-1.9295 -8.82078,-1.9391 -8.82078,-0.695 0,1.2428 4.92128,3.814 12.34908,6.4521 5.68573,2.0194 12.54759,2.5935 13.97209,1.169 z m -0.98608,-49.25509 c 2.97265,-1.94057 5.88188,-3.52831 6.46495,-3.52831 0.58307,0 2.62052,0.79071 4.52766,1.75713 1.90715,0.96643 3.61252,1.52214 3.78972,1.23491 0.17721,-0.28722 0.6691,-2.39982 1.09309,-4.69466 0.42399,-2.29484 0.88304,-4.28459 1.0201,-4.42166 0.13707,-0.13706 1.85087,1.02605 3.80847,2.58471 3.91797,3.11953 5.51623,3.51344 6.15026,1.51579 0.77663,-2.44693 -0.8606,-4.6465 -11.72247,-15.74881 -9.36709,-9.57443 -11.25404,-11.17927 -13.97669,-11.88701 -5.62509,-1.46222 -7.61764,-0.33928 -18.63589,10.50259 -11.080065,10.90271 -13.852391,14.31229 -13.852391,17.03654 0,3.45598 1.880356,4.32006 8.899991,4.08982 l 6.25547,-0.2052 2.80296,-4.87167 2.80295,-4.87166 1.16412,4.51884 c 2.24004,8.69533 2.83154,10.51695 3.41496,10.51695 0.32336,0 3.02009,-1.58774 5.99274,-3.5283 z"
       id="path4232"
       inkscape:connector-curvature="0" />
    <path
       style="fill:#ffffff;fill-opacity:1;stroke-width:0;stroke-miterlimit:4;stroke-dasharray:none"
       d="m 176.4778,956.92717 c -5.89181,-0.7755 -6.56412,-1.6265 -3.53405,-4.4731 1.45132,-1.3634 2.51834,-1.6519 6.1098,-1.6519 3.86119,0 4.53755,0.2164 6.00386,1.9211 1.97491,2.296 2.06378,3.0425 0.41757,3.5075 -2.20849,0.6238 -6.83046,0.9816 -8.99718,0.6964 z"
       id="path4234"
       inkscape:connector-curvature="0" />
    <path
       style="fill:#ffffff;fill-opacity:1;stroke-width:0;stroke-miterlimit:4;stroke-dasharray:none"
       d="m 167.35733,965.91497 c -0.97655,-1.0791 -1.065,-1.6499 -0.43737,-2.8226 1.04704,-1.9564 2.53402,-1.8543 4.71205,0.3238 1.45156,1.4515 1.63093,1.9901 0.94001,2.8226 -1.1955,1.4405 -3.76225,1.2811 -5.21469,-0.3238 z"
       id="path4238"
       inkscape:connector-curvature="0" />
    <path
       style="fill:#ffffff;fill-opacity:1;stroke-width:0;stroke-miterlimit:4;stroke-dasharray:none"
       d="m 90.897019,967.58037 c -0.86259,-0.6041 -1.56834,-1.7082 -1.56834,-2.4535 0,-2.8747 6.78922,-5.1133 10.808911,-3.5639 l 1.98818,0.7663 -1.44503,2.0293 c -1.417005,1.99 -5.324381,4.3203 -7.244141,4.3203 -0.53419,0 -1.677,-0.4943 -2.53958,-1.0985 z"
       id="path4240"
       inkscape:connector-curvature="0" />
    <path
       style="fill:#ffffff;fill-opacity:1;fill-rule:evenodd;stroke:#000000;stroke-width:0;stroke-linecap:butt;stroke-linejoin:miter;stroke-miterlimit:4;stroke-dasharray:none;stroke-opacity:1"
       d="m 127.94644,800.17673 c -11.95373,0 -23.90753,4.57894 -33.067101,13.73851 l -77.343678,77.34367 c -18.31912923,18.31912 -18.31912923,47.81505 0,66.13417 l 77.343678,77.34372 c 18.319131,18.3192 47.815061,18.3192 66.134181,0 l 77.34368,-77.34372 c 18.31912,-18.31912 18.31912,-47.81505 0,-66.13417 l -77.34368,-77.34367 c -9.15956,-9.15957 -21.11336,-13.73851 -33.06708,-13.73851 z m 0.0606,7.38757 c 11.26499,0 22.53018,4.3165 31.162,12.94832 l 72.88804,72.88608 c 17.26364,17.26363 17.26364,45.06038 0,62.32401 l -72.88804,72.88619 c -17.26362,17.2636 -45.06037,17.2636 -62.324014,0 L 23.95893,955.72272 c -17.263631,-17.26363 -17.263631,-45.06038 0,-62.32402 L 96.845016,820.51262 C 105.47684,811.8808 116.74204,807.5643 128.00703,807.5643 Z"
       id="rect3336-36"
       inkscape:connector-curvature="0" />
  </g>
</svg>
