<?xml version="1.0" encoding="UTF-8" standalone="no"?>
<!-- Created with Inkscape (http://www.inkscape.org/) -->

<svg
   xmlns:dc="http://purl.org/dc/elements/1.1/"
   xmlns:cc="http://creativecommons.org/ns#"
   xmlns:rdf="http://www.w3.org/1999/02/22-rdf-syntax-ns#"
   xmlns:svg="http://www.w3.org/2000/svg"
   xmlns="http://www.w3.org/2000/svg"
   xmlns:sodipodi="http://sodipodi.sourceforge.net/DTD/sodipodi-0.dtd"
   xmlns:inkscape="http://www.inkscape.org/namespaces/inkscape"
   width="256"
   height="256"
   viewBox="0 0 256 256"
   id="svg2"
   version="1.1"
   inkscape:version="0.91 r13725"
   sodipodi:docname="playonlinux.svg">
  <defs
     id="defs4" />
  <sodipodi:namedview
     id="base"
     pagecolor="#ffffff"
     bordercolor="#666666"
     borderopacity="1.0"
     inkscape:pageopacity="0.0"
     inkscape:pageshadow="2"
     inkscape:zoom="0.98994949"
     inkscape:cx="84.799071"
     inkscape:cy="95.789589"
     inkscape:document-units="px"
     inkscape:current-layer="layer1"
     showgrid="false"
     units="px"
     inkscape:window-width="1366"
     inkscape:window-height="711"
     inkscape:window-x="0"
     inkscape:window-y="31"
     inkscape:window-maximized="1" />
  <metadata
     id="metadata7">
    <rdf:RDF>
      <cc:Work
         rdf:about="">
        <dc:format>image/svg+xml</dc:format>
        <dc:type
           rdf:resource="http://purl.org/dc/dcmitype/StillImage" />
        <dc:title></dc:title>
      </cc:Work>
    </rdf:RDF>
  </metadata>
  <g
     inkscape:label="Layer 1"
     inkscape:groupmode="layer"
     id="layer1"
     transform="translate(0,-796.36216)">
    <rect
       style="fill:#ff8080;fill-rule:evenodd;stroke:#000000;stroke-width:0;stroke-linecap:butt;stroke-linejoin:miter;stroke-opacity:1;stroke-miterlimit:4;stroke-dasharray:none;fill-opacity:1"
       id="rect3336"
       width="202.61562"
       height="202.61562"
       x="-664.62292"
       y="642.82465"
       ry="46.696564"
       transform="matrix(0.70710678,-0.70710678,0.70710678,0.70710678,0,0)" />
    <path
       style="fill:#ffffff;fill-opacity:1;fill-rule:evenodd;stroke:#000000;stroke-width:0;stroke-linecap:butt;stroke-linejoin:miter;stroke-miterlimit:4;stroke-dasharray:none;stroke-opacity:1"
       d="m 127.83221,800.15617 c -11.95373,0 -23.90753,4.57894 -33.067107,13.73851 l -77.343678,77.34367 c -18.31912912,18.31912 -18.31912912,47.81505 0,66.13417 l 77.343678,77.34368 c 18.319137,18.3192 47.815067,18.3192 66.134187,0 l 77.34368,-77.34368 c 18.31912,-18.31912 18.31912,-47.81505 0,-66.13417 l -77.34368,-77.34367 c -9.15956,-9.15957 -21.11336,-13.73851 -33.06708,-13.73851 z m 0.0606,7.38757 c 11.26499,0 22.53018,4.3165 31.162,12.94832 l 72.88804,72.88608 c 17.26364,17.26363 17.26364,45.06038 0,62.32401 l -72.88804,72.88615 c -17.26362,17.2636 -45.06037,17.2636 -62.32402,0 L 23.844694,955.70216 c -17.2636309,-17.26363 -17.2636309,-45.06038 0,-62.32402 L 96.73078,820.49206 c 8.63183,-8.63182 19.89703,-12.94832 31.16202,-12.94832 z"
       id="rect3336-36"
       inkscape:connector-curvature="0" />
    <path
       style="opacity:1;fill:#ffffff;fill-opacity:1;stroke-width:0;stroke-miterlimit:4;stroke-dasharray:none"
       d="m 127.90001,835.83148 c -7.98664,0.0178 -13.63929,3.24255 -17.31387,9.87665 l -2.62703,4.74337 0.25791,19.31032 c 0.0254,1.89714 0.0544,3.38001 0.0823,4.92674 l -0.27418,12.60305 c -0.33916,2.0544 -0.97408,3.62798 -2.10609,5.41083 l -0.18763,0 -8.6e-4,8.3e-4 -0.15595,0 -0.004,0 -0.0591,0.0786 -0.036,0 -4.19588,5.63961 c -1.658793,2.22961 -2.882427,3.89283 -3.853139,5.24381 -0.755362,1.04293 -1.391166,1.95123 -1.920139,2.76329 -0.07004,0.10642 -0.135706,0.20844 -0.201362,0.31014 -0.07622,0.11942 -0.153278,0.24084 -0.226201,0.35816 -0.471411,0.74925 -0.846245,1.40141 -1.192697,2.06752 -0.0031,0.0105 -0.0108,0.0231 -0.01374,0.0294 -0.03471,0.065 -0.07664,0.13724 -0.109672,0.20131 -0.02705,0.0524 -0.09311,0.20498 -0.129383,0.2811 -0.02946,0.0598 -0.06501,0.12403 -0.09342,0.18338 -0.02328,0.0482 -0.08283,0.18631 -0.112252,0.25017 -0.06626,0.13567 -0.128901,0.2725 -0.192785,0.4087 -0.107701,0.22962 -0.212959,0.46039 -0.314452,0.69231 -0.105384,0.23445 -0.222573,0.50621 -0.332445,0.75827 -0.01059,0.0252 -0.02275,0.0535 -0.03345,0.0776 -0.369267,0.84927 -0.791735,1.85289 -1.25782,2.97917 -0.428905,1.01064 -0.872845,2.06836 -1.316094,3.13687 -3.146944,7.58623 -4.215626,10.10219 -6.282239,14.78453 -0.259081,0.58694 -0.505801,1.17703 -0.728301,1.72644 -0.03041,0.0744 -0.07025,0.1666 -0.09856,0.23738 -0.001,0 -0.0021,0.0105 -0.0031,0.0105 -0.02674,0.0671 -0.05473,0.13725 -0.07968,0.20131 -0.0021,0 -0.0042,0.0105 -0.0063,0.0136 -0.04875,0.11334 -0.09153,0.21442 -0.128524,0.30249 -0.05913,0.14113 -0.210442,0.48272 -0.22877,0.53462 -9.22e-4,0 -0.0021,0.0105 -0.0021,0.0105 -7.3e-5,2.1e-4 -7.86e-4,0.001 -8.59e-4,0 -0.04456,0.12624 -0.08514,0.28068 -0.125095,0.47643 l -0.140519,0.34873 -0.0031,0.11659 -0.01625,0.0398 -0.0084,0.42328 c -0.111119,0.53588 -0.168555,1.06338 -0.191066,1.59968 -0.04215,0.37599 -0.08839,0.73038 -0.123386,1.11045 -0.640092,6.94855 -1.405688,8.66576 -4.352674,9.7652 -0.95661,0.35691 -3.432804,1.00341 -6.374789,1.66479 -0.437943,0.0986 -0.822225,0.19901 -1.182412,0.30082 -0.690828,0.16262 -1.27601,0.36235 -1.748784,0.62888 -0.06836,0.0367 -0.134511,0.0755 -0.197074,0.11481 -0.0073,0 -0.01416,0.0105 -0.02139,0.0147 -0.08011,0.0514 -0.156257,0.10558 -0.22791,0.16188 -0.0031,0 -0.0073,0 -0.01111,0.0105 -0.05704,0.0409 -0.110511,0.0839 -0.162799,0.12771 -0.191423,0.1494 -0.360219,0.31045 -0.507238,0.4867 -0.0194,0.0199 -0.04498,0.043 -0.06343,0.0629 -0.03408,0.0367 -0.06406,0.0734 -0.0951,0.10967 -0.01059,0.0126 -0.02233,0.0252 -0.0325,0.0377 -0.04425,0.0545 -0.08451,0.1125 -0.122526,0.17216 -0.0031,0 -0.0073,0.0105 -0.01049,0.0147 -5.45e-4,9.4e-4 -0.001,0 -0.0021,0 -0.0042,0.0105 -0.0108,0.0136 -0.01541,0.021 0,0 0,9.4e-4 0,9.4e-4 -0.03911,0.065 -0.07518,0.13453 -0.107962,0.21075 0,0 0,8.4e-4 0,8.4e-4 0,0 -8.5e-4,8.4e-4 -8.5e-4,8.4e-4 -0.01353,0.0314 -0.02433,0.0702 -0.0368,0.10485 -0.01751,0.0472 -0.03575,0.0923 -0.05138,0.14574 -1.88e-4,6.3e-4 -6.6e-4,0 -8.59e-4,0 0,0 0,8.4e-4 0,8.4e-4 0,0 0,8.3e-4 0,8.3e-4 -0.001,0 -0.0021,0.0105 -0.0031,0.0126 0,0 0,8.4e-4 0,8.4e-4 -1.57e-4,5.2e-4 -7.02e-4,0.001 -8.6e-4,0 -0.03198,0.0765 -0.06029,0.16691 -0.08482,0.26568 l -0.180791,0.35387 0,0.15758 -0.0084,0.0168 0.0042,1.45226 c -0.03449,0.64503 -0.02936,1.38285 0.0042,2.21231 l 0,3.0315 c -0.0021,0.14574 -0.0031,0.19554 -0.0052,0.34705 l -0.07968,7.3044 -0.609203,2.55422 c -0.522839,2.19176 -0.81606,3.50101 -0.985359,4.4263 -0.167695,0.70668 -0.239863,1.28943 -0.199643,1.784 3.2e-5,0.0126 8.08e-4,0.0199 8.6e-4,0.0325 l -0.04802,0.67859 0.01111,0.0115 -0.0042,0.0577 0.117389,0.10621 0,9.4e-4 0.05568,0.0493 0.239055,0.21589 0.113101,0.1191 c 0.03995,0.0419 0.08273,0.0765 0.122526,0.11649 0.02988,0.0304 0.06291,0.0598 0.0951,0.0902 0.04634,0.043 0.08944,0.0902 0.139669,0.13117 0,0 8.49e-4,8.4e-4 8.49e-4,8.4e-4 0.02391,0.0199 0.05201,0.0377 0.07706,0.0577 0,0 8.6e-4,8.4e-4 8.6e-4,8.4e-4 0.225603,0.18653 0.505036,0.3568 1.002481,0.56388 0.03093,0.0126 0.05819,0.0252 0.0908,0.0388 0.03124,0.0126 0.07339,0.0273 0.106254,0.0398 0.491175,0.20341 1.069961,0.39822 1.759919,0.59806 0.755164,0.23906 1.749173,0.53536 2.961194,0.8843 1.935468,0.56157 4.49616,1.28869 8.067007,2.29975 6.564733,1.85866 11.376813,3.32497 17.549506,5.34656 l 3.553248,1.16361 0.10967,0 8.6e-4,0 1.51144,0 c 0.65344,0.0409 1.28716,0.0178 1.90815,-0.0661 0.37035,-0.0273 0.68543,-0.0598 0.84312,-0.0954 0.0969,-0.022 0.32933,-0.10652 0.64348,-0.22794 0.0244,-0.0105 0.0499,-0.0168 0.0745,-0.0252 0.5027,-0.15717 1.00292,-0.35733 1.50373,-0.60057 0.0637,-0.0283 0.1404,-0.064 0.2065,-0.0944 0.1432,-0.0629 0.27094,-0.11785 0.42842,-0.18768 0.54128,-0.24 0.83223,-0.36466 1.31179,-0.57667 0.21881,-0.0954 0.38751,-0.16367 0.61007,-0.26212 6.63137,-2.93556 7.90891,-3.3669 10.8157,-3.65262 1.79979,-0.17698 7.01843,-0.48 16.47932,-0.95716 2.44788,-0.12341 4.53275,-0.24199 5.63536,-0.31696 0.0738,0 0.14993,-0.0105 0.2142,-0.0136 0.002,-2.1e-4 0.007,-6.3e-4 0.0105,-8.4e-4 l 0.90395,-0.0199 -0.51495,-0.47643 c -0.0424,-0.0608 -0.0705,-0.11209 -0.12082,-0.17825 -0.23183,-0.30385 -0.38376,-0.55266 -0.33758,-0.55266 0.0461,0 0.44309,0.22144 0.88252,0.49185 0.0714,0.044 0.19327,0.10925 0.30333,0.16965 0.0486,0.0294 0.0955,0.0598 0.14565,0.0881 0.2438,0.14196 0.51903,0.28844 0.82085,0.43701 0.23884,0.12865 0.46395,0.23528 0.67946,0.32472 0.22557,0.10275 0.45194,0.19701 0.67774,0.28959 0.0529,0.0241 0.10443,0.0514 0.1568,0.0744 0.14865,0.0671 0.27998,0.12855 0.41985,0.19282 0.85126,0.41321 1.61195,0.79276 2.18233,1.10531 1.05943,0.6032 2.07171,1.29583 3.5344,2.38448 0.20249,0.15077 0.39716,0.28948 0.59208,0.42841 0.005,0 0.011,0.0105 0.0162,0.0115 0.0381,0.0273 0.0778,0.0577 0.11568,0.0839 0.0628,0.0461 0.12329,0.0944 0.18679,0.13966 0.12797,0.0944 0.25708,0.18757 0.39327,0.28026 0.007,0.0105 0.0343,0.0304 0.0411,0.0356 0.0822,0.0577 0.18579,0.12225 0.28961,0.18674 0.0513,0.0367 0.0915,0.0619 0.13967,0.0954 0.0355,0.0241 0.066,0.043 0.10023,0.0661 0.0151,0.0105 0.0299,0.0199 0.0446,0.0304 0.046,0.0304 0.10733,0.0755 0.14652,0.0986 0.006,0 0.0153,0.0105 0.0214,0.0126 0.002,0 0.005,0 0.007,0 0.0307,0.0189 0.0738,0.0398 0.1071,0.0587 0.0301,0.0178 0.0718,0.0472 0.0994,0.0629 0.0261,0.0147 0.0669,0.0335 0.0943,0.0482 0.15171,0.0912 0.30475,0.18234 0.41898,0.2399 0.004,0 0.0108,0 0.0154,0.0105 0.001,7.4e-4 0.004,0 0.005,0 0.1685,0.0849 0.36949,0.17416 0.55693,0.26223 0,0 8.6e-4,0 8.6e-4,0 7.1e-4,3.1e-4 0.001,0 0.002,0 0.74769,0.38144 1.50535,0.70259 2.32114,0.98789 0.0582,0.021 0.11666,0.0451 0.1748,0.0639 0.008,0 0.0139,0 0.0223,0.0105 0.002,7.3e-4 0.004,0 0.007,0 0,0 8.6e-4,8.4e-4 8.6e-4,8.4e-4 0.008,0 0.0186,0 0.0274,0.0105 0.36974,0.13473 0.70027,0.24713 0.92881,0.30501 0.0778,0.0199 0.19837,0.0367 0.34959,0.0514 0.019,0 0.0421,0 0.0616,0.0105 0.0406,0.0105 0.0851,0.0105 0.12595,0.0147 0.0127,0 0.0259,0 0.0386,0.0105 0.0277,0 0.0569,0.0105 0.0848,0.0105 0.0518,0.0105 0.1039,0.0136 0.1568,0.0178 0.0468,0.0105 0.0937,0.0147 0.14052,0.021 0.002,3.2e-4 0.005,6.3e-4 0.007,9.4e-4 0.28427,0.0587 0.53488,0.0996 0.71116,0.10171 0.36665,0 0.7535,-0.0304 1.15842,-0.0986 0.12428,-0.0115 0.24395,-0.0273 0.36415,-0.044 0.0353,0 0.0698,-0.0105 0.10453,-0.0157 0.0566,-0.0105 0.11395,-0.0157 0.17051,-0.0252 0.0473,-0.0105 0.0933,-0.0178 0.13967,-0.0273 0.0177,0 0.0354,-0.0105 0.0532,-0.0105 0.0347,-0.0105 0.0793,-0.0105 0.11053,-0.0178 0.008,0 0.02,-0.0105 0.0283,-0.0105 0.54623,-0.11806 1.11264,-0.31361 1.78649,-0.63843 0.0239,-0.0115 0.046,-0.0189 0.0702,-0.0304 0.15642,-0.0745 0.34039,-0.17646 0.51239,-0.26726 0.006,0 0.0125,-0.0105 0.0189,-0.0105 0.007,0 0.0134,-0.0105 0.0205,-0.0105 0.0474,-0.0241 0.0955,-0.0503 0.14309,-0.0755 0.0747,-0.0409 0.13743,-0.0692 0.21592,-0.11387 0.0216,-0.0126 0.0475,-0.0273 0.0694,-0.0409 0.0373,-0.021 0.0739,-0.0398 0.11139,-0.0608 0.50333,-0.28456 0.99824,-0.588 1.58598,-0.96818 0.0329,-0.021 0.0779,-0.044 0.10967,-0.064 0.002,0 0.0155,-0.0115 0.018,-0.0126 0.003,0 0.007,0 0.0105,-0.0105 0.0163,-0.0105 0.0836,-0.0587 0.1054,-0.0734 0.0131,-0.0105 0.0289,-0.0168 0.0419,-0.0252 0.0233,-0.0147 0.12227,-0.087 0.15079,-0.10621 1.31361,-0.87192 3.36077,-2.31056 8.18355,-5.73041 5.46259,-3.87375 8.85419,-6.19866 12.55077,-8.60945 6.95351,-3.99108 8.45055,-7.38629 4.19332,-9.72411 -0.19782,-0.14238 -0.39877,-0.28581 -0.62806,-0.44298 -2.56744,-1.75999 -4.68891,-3.70746 -5.77843,-5.30546 -0.39363,-0.5773 -0.69064,-1.29614 -1.87645,-4.61219 -0.055,-0.15686 -0.1082,-0.3004 -0.16366,-0.45673 -0.1588,-0.44539 -0.27146,-0.7568 -0.46353,-1.29813 -0.0634,-0.17856 -0.13048,-0.34726 -0.19622,-0.52865 -0.0734,-0.199 -0.13963,-0.3763 -0.21077,-0.56629 -0.0455,-0.12277 -0.0883,-0.23895 -0.13368,-0.35994 -0.16606,-0.71717 -0.42296,-1.38757 -0.75828,-1.96634 -0.1319,-0.32042 -0.24633,-0.5882 -0.32646,-0.75407 l -0.24163,-0.4995 -0.27161,-0.59124 -0.0471,-4.30552 -0.0137,-3.22085 c -0.001,-0.3331 -0.003,-0.5795 -0.005,-0.89362 0.0921,-1.97127 0.0666,-4.19731 -0.078,-6.34305 -1.2e-4,0 1.4e-4,-0.0105 0,-0.0115 -8.9e-4,-0.0231 -0.002,-0.0461 -0.003,-0.0692 -0.0193,-0.73793 -0.0415,-1.35548 -0.0703,-1.69824 -0.011,-0.13179 -0.0293,-0.27208 -0.0429,-0.40702 -0.0172,-0.27795 -0.036,-0.5622 -0.06,-0.8088 -0.005,-0.0577 -0.0133,-0.10737 -0.0189,-0.16367 -0.009,-0.0881 -0.0169,-0.22134 -0.0265,-0.28446 -0.004,-0.0304 -0.0114,-0.0639 -0.0163,-0.0944 -0.0197,-0.16598 -0.0355,-0.34632 -0.0591,-0.50474 -0.0375,-0.26611 -0.0861,-0.52886 -0.13537,-0.78658 -0.0296,-0.15696 -0.0584,-0.32241 -0.0926,-0.48147 -0.2119,-1.08183 -0.49918,-2.16429 -0.89538,-3.56779 -0.60488,-2.1428 -1.39522,-4.4479 -2.27145,-6.68244 -0.15288,-0.39108 -0.3136,-0.7742 -0.4721,-1.16015 -0.0817,-0.20047 -0.16062,-0.40409 -0.24335,-0.60236 -1.33731,-3.20879 -2.804,-6.10472 -4.17788,-8.14497 -0.10181,-0.15109 -0.40131,-0.57059 -0.61005,-0.8671 -0.001,0 -0.004,-0.0105 -0.005,-0.0105 -0.23007,-0.3267 -0.40437,-0.57887 -0.73773,-1.04534 -1.74837,-2.48492 -4.39805,-6.15882 -6.94714,-9.61443 l -2.25345,-3.05456 -0.0248,0 -0.0583,-0.0786 -0.007,0 -0.005,0 -0.008,0 -0.005,0 -8.6e-4,-8.4e-4 -0.17308,0 -0.009,0 -0.042,0 c -1.24203,-2.1236 -2.51979,-4.51552 -3.94655,-7.35839 -2.82174,-5.62263 -3.13369,-7.05832 -3.88142,-17.84423 -0.44723,-6.45145 -1.17609,-12.95009 -1.61939,-14.44104 -3.21662,-10.81778 -12.54196,-17.25466 -24.95762,-17.22729 z"
       id="path4558"
       inkscape:connector-curvature="0" />
  </g>
</svg>
