<?xml version="1.0" encoding="UTF-8" standalone="no"?>
<!-- Created with Inkscape (http://www.inkscape.org/) -->

<svg
   xmlns:dc="http://purl.org/dc/elements/1.1/"
   xmlns:cc="http://creativecommons.org/ns#"
   xmlns:rdf="http://www.w3.org/1999/02/22-rdf-syntax-ns#"
   xmlns:svg="http://www.w3.org/2000/svg"
   xmlns="http://www.w3.org/2000/svg"
   xmlns:sodipodi="http://sodipodi.sourceforge.net/DTD/sodipodi-0.dtd"
   xmlns:inkscape="http://www.inkscape.org/namespaces/inkscape"
   width="256"
   height="256"
   viewBox="0 0 256 256"
   id="svg2"
   version="1.1"
   inkscape:version="0.91 r13725"
   sodipodi:docname="pycharm.svg">
  <defs
     id="defs4" />
  <sodipodi:namedview
     id="base"
     pagecolor="#ffffff"
     bordercolor="#666666"
     borderopacity="1.0"
     inkscape:pageopacity="0.0"
     inkscape:pageshadow="2"
     inkscape:zoom="22.4"
     inkscape:cx="232.7"
     inkscape:cy="143.50335"
     inkscape:document-units="px"
     inkscape:current-layer="layer1"
     showgrid="false"
     units="px"
     inkscape:window-width="1366"
     inkscape:window-height="719"
     inkscape:window-x="0"
     inkscape:window-y="23"
     inkscape:window-maximized="1" />
  <metadata
     id="metadata7">
    <rdf:RDF>
      <cc:Work
         rdf:about="">
        <dc:format>image/svg+xml</dc:format>
        <dc:type
           rdf:resource="http://purl.org/dc/dcmitype/StillImage" />
        <dc:title />
      </cc:Work>
    </rdf:RDF>
  </metadata>
  <g
     inkscape:label="Layer 1"
     inkscape:groupmode="layer"
     id="layer1"
     transform="translate(0,-796.36216)">
    <rect
       style="fill:#217844;fill-rule:evenodd;stroke:#000000;stroke-width:0;stroke-linecap:butt;stroke-linejoin:miter;stroke-opacity:1;stroke-miterlimit:4;stroke-dasharray:none;fill-opacity:1"
       id="rect3336"
       width="202.61562"
       height="202.61562"
       x="-664.62292"
       y="642.82465"
       ry="46.696564"
       transform="matrix(0.70710678,-0.70710678,0.70710678,0.70710678,0,0)" />
    <path
       style="fill:#ffffff;fill-opacity:1;stroke-width:0;stroke-miterlimit:4;stroke-dasharray:none"
       d="m 75.626705,942.21634 c 0,-20.84996 0.233768,-32.98403 0.676431,-35.11084 3.503606,-16.83335 14.11912,-29.22497 29.115914,-33.98736 7.39248,-2.34756 12.9866,-2.97773 18.53517,-2.08805 2.59713,0.41647 4.94661,0.89321 5.22106,1.05944 0.27444,0.16619 -0.84514,1.172 -2.48798,2.23508 -5.95955,3.85643 -11.56212,8.98402 -15.19193,13.90396 -0.73506,0.99633 -1.561,1.60822 -1.83542,1.35974 -0.27442,-0.24844 -0.32047,-0.13919 -0.10233,0.24281 0.21813,0.382 -0.16115,1.40361 -0.84285,2.27024 -1.92302,2.44471 -5.96361,11.99983 -7.06542,16.70817 -2.275458,9.72367 1.26689,17.76203 9.54817,21.66683 4.45103,2.09878 11.09247,2.17288 15.5241,0.17315 1.62341,-0.73253 3.27929,-1.67939 3.67974,-2.10411 3.2929,-3.49259 4.81955,-5.96636 6.7596,-10.95319 3.96295,-10.18663 9.46431,-14.60265 18.86989,-15.14714 3.81831,-0.22101 4.85972,-0.10144 4.92143,0.56505 0.0431,0.46498 0.22181,1.53536 0.39725,2.37864 0.71072,3.41613 0.63483,15.35209 -0.11758,18.49312 -2.37223,9.90321 -8.01054,18.30999 -17.07586,25.46029 -2.29199,1.8078 -7.93845,4.56384 -12.40758,6.05605 -4.27505,1.42747 -5.91888,1.64027 -12.87909,1.66754 -7.10816,0.0279 -8.48536,-0.14653 -12.62432,-1.59795 -2.55519,-0.896 -4.83203,-1.62912 -5.05964,-1.62912 -0.22763,0 -0.41386,4.55366 -0.41386,10.11926 l 0,10.11928 -12.572453,0 -12.572442,0 0,-31.86089 z"
       id="path4359"
       inkscape:connector-curvature="0" />
    <path
       style="fill:#ffffff;fill-opacity:1;stroke-width:0;stroke-miterlimit:4;stroke-dasharray:none"
       d="m 112.25982,925.29859 c -1.25888,-0.85543 -2.28887,-1.97566 -2.28887,-2.48936 0,-0.5137 -0.25428,-0.77687 -0.56506,-0.5848 -0.31079,0.19208 -1.31128,-1.17599 -2.22333,-3.04015 -1.91397,-3.91202 -1.82312,-5.58587 0.71413,-13.15642 5.68888,-16.97434 18.65929,-28.73874 37.33843,-33.86663 5.53474,-1.51944 21.53697,-2.24359 25.80882,-1.16793 6.38494,1.60775 10.6901,6.85717 10.67254,13.0133 -0.005,1.80955 -0.21777,3.61782 -0.47245,4.01836 -1.42179,2.23602 -9.07312,2.8431 -13.62383,1.08098 -1.5179,-0.58776 -3.78967,-2.04528 -5.04839,-3.23896 -1.25871,-1.19368 -2.459,-1.99987 -2.6673,-1.79161 -0.20828,0.2083 0.36083,1.73752 1.2647,3.39823 1.74992,3.21514 6.27169,7.11304 9.06481,7.81405 4.04173,1.0144 1.81389,1.51505 -6.74181,1.51505 -10.05751,0 -14.33492,0.77996 -19.07918,3.47886 -5.90055,3.35667 -10.15061,8.80328 -12.54258,16.0737 -1.54621,4.69971 -2.91566,6.65587 -6.23783,8.91035 -1.97669,1.34145 -3.01995,1.58829 -6.7122,1.58829 -3.66919,0 -4.73954,-0.24993 -6.6606,-1.55531 z m 59.75844,-43.00324 c 0.71386,-0.64606 1.12155,-1.86704 1.12155,-3.35895 0,-2.93918 -1.89571,-4.40297 -5.33453,-4.11912 -1.9041,0.15717 -2.47414,0.52122 -3.10903,1.98574 -1.4254,3.2879 0.57529,6.50733 4.04396,6.50733 1.18608,0 2.66119,-0.45678 3.27805,-1.015 z"
       id="path4361"
       inkscape:connector-curvature="0" />
    <path
       style="fill:#ffffff;fill-opacity:1;stroke-width:0;stroke-miterlimit:4;stroke-dasharray:none"
       d="m 147.07498,973.63045 c -7.53099,-1.86944 -15.73708,-5.60515 -21.08226,-9.59741 -2.04153,-1.52475 -2.05005,-1.55077 -0.6133,-1.87107 10.54656,-2.35129 14.83497,-3.97964 20.83602,-7.91171 0.86391,-0.56603 1.77869,-0.82121 2.03287,-0.56707 0.25416,0.2542 0.37012,0.15009 0.25768,-0.2313 -0.11243,-0.3814 1.07984,-1.83029 2.64949,-3.21978 l 2.85391,-2.52631 7.30738,0 c 11.1536,0 16.19061,2.10813 19.21865,8.04359 2.29815,4.50471 0.98125,11.72675 -2.70595,14.83971 -4.13659,3.49234 -4.1172,3.48848 -17.26211,3.41472 -6.74619,-0.0378 -12.81776,-0.2059 -13.49238,-0.37337 z"
       id="path4363"
       inkscape:connector-curvature="0" />
    <path
       style="fill:#ffffff;fill-opacity:1;fill-rule:evenodd;stroke:#000000;stroke-width:0;stroke-linecap:butt;stroke-linejoin:miter;stroke-miterlimit:4;stroke-dasharray:none;stroke-opacity:1"
       d="m 127.63637,800.33886 c -11.95373,0 -23.90752,4.57894 -33.067096,13.73851 l -77.343678,77.34367 c -18.319129,18.31912 -18.319129,47.81505 0,66.13417 l 77.343678,77.34369 c 18.319136,18.3192 47.815056,18.3192 66.134176,0 l 77.34368,-77.34369 c 18.31912,-18.31912 18.31912,-47.81505 0,-66.13417 l -77.34368,-77.34367 c -9.15956,-9.15957 -21.11336,-13.73851 -33.06708,-13.73851 z m 0.0606,7.38757 c 11.26499,0 22.53018,4.3165 31.162,12.94832 l 72.88804,72.88608 c 17.26364,17.26363 17.26364,45.06038 0,62.32401 l -72.88804,72.88616 c -17.26362,17.2636 -45.06037,17.2636 -62.324009,0 L 23.648865,955.88485 c -17.2636311,-17.26363 -17.2636311,-45.06038 0,-62.32402 l 72.886086,-72.88608 c 8.631829,-8.63182 19.897019,-12.94832 31.162009,-12.94832 z"
       id="rect3336-36"
       inkscape:connector-curvature="0" />
  </g>
</svg>
