<?xml version="1.0" encoding="UTF-8" standalone="no"?>
<!-- Created with Inkscape (http://www.inkscape.org/) -->

<svg
   xmlns:dc="http://purl.org/dc/elements/1.1/"
   xmlns:cc="http://creativecommons.org/ns#"
   xmlns:rdf="http://www.w3.org/1999/02/22-rdf-syntax-ns#"
   xmlns:svg="http://www.w3.org/2000/svg"
   xmlns="http://www.w3.org/2000/svg"
   xmlns:sodipodi="http://sodipodi.sourceforge.net/DTD/sodipodi-0.dtd"
   xmlns:inkscape="http://www.inkscape.org/namespaces/inkscape"
   width="256"
   height="256"
   viewBox="0 0 256 256"
   id="svg2"
   version="1.1"
   inkscape:version="0.91 r13725"
   sodipodi:docname="qtdesinger.svg">
  <defs
     id="defs4" />
  <sodipodi:namedview
     id="base"
     pagecolor="#ffffff"
     bordercolor="#666666"
     borderopacity="1.0"
     inkscape:pageopacity="0.0"
     inkscape:pageshadow="2"
     inkscape:zoom="0.98994949"
     inkscape:cx="0.88248942"
     inkscape:cy="55.420225"
     inkscape:document-units="px"
     inkscape:current-layer="layer1"
     showgrid="false"
     units="px"
     inkscape:window-width="1366"
     inkscape:window-height="711"
     inkscape:window-x="0"
     inkscape:window-y="31"
     inkscape:window-maximized="1" />
  <metadata
     id="metadata7">
    <rdf:RDF>
      <cc:Work
         rdf:about="">
        <dc:format>image/svg+xml</dc:format>
        <dc:type
           rdf:resource="http://purl.org/dc/dcmitype/StillImage" />
        <dc:title></dc:title>
      </cc:Work>
    </rdf:RDF>
  </metadata>
  <g
     inkscape:label="Layer 1"
     inkscape:groupmode="layer"
     id="layer1"
     transform="translate(0,-796.36216)">
    <rect
       style="fill:#5fd35f;fill-rule:evenodd;stroke:#000000;stroke-width:0;stroke-linecap:butt;stroke-linejoin:miter;stroke-opacity:1;stroke-miterlimit:4;stroke-dasharray:none;fill-opacity:1"
       id="rect3336"
       width="202.61562"
       height="202.61562"
       x="-664.62292"
       y="642.82465"
       ry="46.696564"
       transform="matrix(0.70710678,-0.70710678,0.70710678,0.70710678,0,0)" />
    <path
       style="fill:#ffffff;fill-opacity:1;fill-rule:evenodd;stroke:#000000;stroke-width:0;stroke-linecap:butt;stroke-linejoin:miter;stroke-miterlimit:4;stroke-dasharray:none;stroke-opacity:1"
       d="m 127.83221,800.15617 c -11.95373,0 -23.90753,4.57894 -33.067107,13.73851 l -77.343678,77.34367 c -18.31912912,18.31912 -18.31912912,47.81505 0,66.13417 l 77.343678,77.34368 c 18.319137,18.3192 47.815067,18.3192 66.134187,0 l 77.34368,-77.34368 c 18.31912,-18.31912 18.31912,-47.81505 0,-66.13417 l -77.34368,-77.34367 c -9.15956,-9.15957 -21.11336,-13.73851 -33.06708,-13.73851 z m 0.0606,7.38757 c 11.26499,0 22.53018,4.3165 31.162,12.94832 l 72.88804,72.88608 c 17.26364,17.26363 17.26364,45.06038 0,62.32401 l -72.88804,72.88615 c -17.26362,17.2636 -45.06037,17.2636 -62.32402,0 L 23.844694,955.70216 c -17.2636309,-17.26363 -17.2636309,-45.06038 0,-62.32402 L 96.73078,820.49206 c 8.63183,-8.63182 19.89703,-12.94832 31.16202,-12.94832 z"
       id="rect3336-36"
       inkscape:connector-curvature="0" />
    <path
       style="opacity:1;fill:#ffffff;fill-opacity:1;stroke-width:0;stroke-miterlimit:4;stroke-dasharray:none"
       d="m 113.15095,975.68874 -5.4696,-8.96768 -9.191615,-0.15252 c -9.663074,-0.16027 -13.690055,-0.99023 -19.788712,-4.07837 -11.133569,-5.63768 -16.417262,-21.2457 -15.4425,-45.61712 1.033523,-25.84033 8.561177,-37.64864 26.145283,-41.013 6.335579,-1.21224 12.630134,-1.21635 19.376324,-0.013 16.90369,3.01562 24.56189,14.60599 26.18073,39.62345 0.53701,8.29883 -0.39939,20.88166 -2.02894,27.26379 -1.63436,6.40102 -4.72921,12.07202 -8.5264,15.62386 l -3.43284,3.21102 5.39631,8.65095 5.39633,8.65086 -5.89045,2.8495 c -3.23976,1.56722 -6.19733,2.86879 -6.57237,2.89258 -0.37506,0.0239 -3.14326,-3.99239 -6.15155,-8.9245 z m -5.89618,-22.07777 c 4.17791,-1.24069 7.83909,-4.2415 9.75365,-7.99438 4.40086,-8.62637 5.08184,-32.71194 1.27172,-44.98011 -1.8385,-5.91982 -4.17037,-9.05192 -8.37961,-11.25527 -3.20702,-1.67872 -4.2544,-1.8619 -10.714605,-1.8738 -6.69108,-0.012 -7.40258,0.12083 -10.861144,2.03256 -4.121921,2.27845 -6.974132,6.08166 -8.557141,11.41036 -1.682953,5.66519 -2.616824,16.73196 -2.144482,25.41321 0.924167,16.98533 4.282269,24.05296 12.831517,27.00582 4.49212,1.55154 12.024315,1.65988 16.800095,0.24161 z"
       id="path4216"
       inkscape:connector-curvature="0" />
    <path
       style="opacity:1;fill:#ffffff;fill-opacity:1;stroke-width:0;stroke-miterlimit:4;stroke-dasharray:none"
       d="m 164.48912,964.25647 c -3.64202,-1.18168 -6.57473,-3.53484 -7.95249,-6.38092 -2.16353,-4.46924 -2.76918,-10.99126 -2.78379,-29.97769 l -0.0135,-17.55939 -4.77343,0 -4.77341,0 0,-5.7963 0,-5.79631 4.77341,0 4.77343,0 0,-9.20589 0,-9.20585 6.81918,0 6.81917,0 0,9.20585 0,9.20589 9.2059,0 9.20588,0 0,5.79631 0,5.7963 -9.20588,0 -9.2059,0 0,17.0144 c 0,9.82809 0.3177,18.49571 0.75219,20.52169 1.01563,4.73572 3.20866,5.72845 11.18679,5.06388 5.4756,-0.4561 5.60301,-0.43199 6.02405,1.1408 0.23657,0.88371 0.43432,3.33842 0.43944,5.45481 0.007,3.02653 -0.24548,3.95422 -1.18405,4.34528 -1.82409,0.75993 -17.99243,1.06323 -20.10699,0.37714 z"
       id="path4218"
       inkscape:connector-curvature="0" />
  </g>
</svg>
