<?xml version="1.0" encoding="UTF-8" standalone="no"?>
<!-- Created with Inkscape (http://www.inkscape.org/) -->

<svg
   xmlns:dc="http://purl.org/dc/elements/1.1/"
   xmlns:cc="http://creativecommons.org/ns#"
   xmlns:rdf="http://www.w3.org/1999/02/22-rdf-syntax-ns#"
   xmlns:svg="http://www.w3.org/2000/svg"
   xmlns="http://www.w3.org/2000/svg"
   xmlns:sodipodi="http://sodipodi.sourceforge.net/DTD/sodipodi-0.dtd"
   xmlns:inkscape="http://www.inkscape.org/namespaces/inkscape"
   width="256"
   height="256"
   viewBox="0 0 256 256"
   id="svg2"
   version="1.1"
   inkscape:version="0.91 r13725"
   sodipodi:docname="slack.svg">
  <defs
     id="defs4" />
  <sodipodi:namedview
     id="base"
     pagecolor="#ffffff"
     bordercolor="#666666"
     borderopacity="1.0"
     inkscape:pageopacity="0.0"
     inkscape:pageshadow="2"
     inkscape:zoom="1.4"
     inkscape:cx="126.52512"
     inkscape:cy="156.28114"
     inkscape:document-units="px"
     inkscape:current-layer="layer1"
     showgrid="false"
     units="px"
     inkscape:window-width="1366"
     inkscape:window-height="714"
     inkscape:window-x="0"
     inkscape:window-y="32"
     inkscape:window-maximized="1"
     showguides="false" />
  <metadata
     id="metadata7">
    <rdf:RDF>
      <cc:Work
         rdf:about="">
        <dc:format>image/svg+xml</dc:format>
        <dc:type
           rdf:resource="http://purl.org/dc/dcmitype/StillImage" />
        <dc:title />
      </cc:Work>
    </rdf:RDF>
  </metadata>
  <g
     inkscape:label="Layer 1"
     inkscape:groupmode="layer"
     id="layer1"
     transform="translate(0,-796.36216)">
    <rect
       style="fill:#ac9393;fill-rule:evenodd;stroke:#000000;stroke-width:0;stroke-linecap:butt;stroke-linejoin:miter;stroke-opacity:1;stroke-miterlimit:4;stroke-dasharray:none;fill-opacity:1"
       id="rect3336"
       width="202.61562"
       height="202.61562"
       x="-664.62292"
       y="642.82465"
       ry="46.696564"
       transform="matrix(0.70710678,-0.70710678,0.70710678,0.70710678,0,0)" />
    <path
       style="fill:#ffffff;fill-opacity:1;fill-rule:evenodd;stroke:#000000;stroke-width:0;stroke-linecap:butt;stroke-linejoin:miter;stroke-miterlimit:4;stroke-dasharray:none;stroke-opacity:1"
       d="m 127.83221,800.15617 c -11.95373,0 -23.90753,4.57894 -33.067107,13.73851 l -77.343678,77.34367 c -18.31912912,18.31912 -18.31912912,47.81505 0,66.13417 l 77.343678,77.34368 c 18.319137,18.3192 47.815067,18.3192 66.134187,0 l 77.34368,-77.34368 c 18.31912,-18.31912 18.31912,-47.81505 0,-66.13417 l -77.34368,-77.34367 c -9.15956,-9.15957 -21.11336,-13.73851 -33.06708,-13.73851 z m 0.0606,7.38757 c 11.26499,0 22.53018,4.3165 31.162,12.94832 l 72.88804,72.88608 c 17.26364,17.26363 17.26364,45.06038 0,62.32401 l -72.88804,72.88615 c -17.26362,17.2636 -45.06037,17.2636 -62.32402,0 L 23.844694,955.70216 c -17.2636309,-17.26363 -17.2636309,-45.06038 0,-62.32402 L 96.73078,820.49206 c 8.63183,-8.63182 19.89703,-12.94832 31.16202,-12.94832 z"
       id="rect3336-36"
       inkscape:connector-curvature="0" />
    <path
       style="opacity:1;fill:#808000;fill-opacity:1;stroke-width:0;stroke-miterlimit:4;stroke-dasharray:none"
       d=""
       id="path4916"
       inkscape:connector-curvature="0"
       transform="translate(0,796.36216)" />
    <path
       style="opacity:1;fill:#808000;fill-opacity:1;stroke-width:0;stroke-miterlimit:4;stroke-dasharray:none"
       d=""
       id="path4918"
       inkscape:connector-curvature="0"
       transform="translate(0,796.36216)" />
    <path
       style="opacity:1;fill:#808000;fill-opacity:1;stroke-width:0;stroke-miterlimit:4;stroke-dasharray:none"
       d=""
       id="path4920"
       inkscape:connector-curvature="0"
       transform="translate(0,796.36216)" />
    <path
       style="opacity:1;fill:#808000;fill-opacity:1;stroke-width:0;stroke-miterlimit:4;stroke-dasharray:none"
       d=""
       id="path4974"
       inkscape:connector-curvature="0"
       transform="translate(0,796.36216)" />
    <path
       style="opacity:1;fill:#808000;fill-opacity:1;stroke-width:0;stroke-miterlimit:4;stroke-dasharray:none"
       d=""
       id="path4976"
       inkscape:connector-curvature="0"
       transform="translate(0,796.36216)" />
    <path
       style="opacity:1;fill:#808000;fill-opacity:1;stroke-width:0;stroke-miterlimit:4;stroke-dasharray:none"
       d=""
       id="path4978"
       inkscape:connector-curvature="0"
       transform="translate(0,796.36216)" />
    <path
       style="opacity:1;fill:#808000;fill-opacity:1;stroke-width:0;stroke-miterlimit:4;stroke-dasharray:none"
       d=""
       id="path4980"
       inkscape:connector-curvature="0"
       transform="translate(0,796.36216)" />
    <path
       style="opacity:1;fill:#808000;fill-opacity:1;stroke-width:0;stroke-miterlimit:4;stroke-dasharray:none"
       d=""
       id="path4982"
       inkscape:connector-curvature="0"
       transform="translate(0,796.36216)" />
    <path
       style="opacity:1;fill:#808000;fill-opacity:1;stroke-width:0;stroke-miterlimit:4;stroke-dasharray:none"
       d=""
       id="path5006"
       inkscape:connector-curvature="0"
       transform="translate(0,796.36216)" />
    <path
       style="opacity:1;fill:#ffffff;fill-opacity:1;stroke-width:0;stroke-miterlimit:4;stroke-dasharray:none"
       d="m 1009.6419,220.81862 c 0.6076,-0.12558 1.8217,-0.3954 2.3214,-0.51592 1.647,-0.39722 1.9836,-0.48563 2.1193,-0.55672 0.085,-0.0447 0.2738,-0.0812 0.4189,-0.0812 0.1451,0 0.2886,-0.0402 0.319,-0.0893 0.03,-0.0491 0.191,-0.0893 0.3571,-0.0893 0.1661,0 0.3268,-0.0402 0.3571,-0.0893 0.03,-0.0491 0.1911,-0.0893 0.3572,-0.0893 0.1661,0 0.3268,-0.0402 0.3571,-0.0893 0.03,-0.0491 0.1911,-0.0893 0.3572,-0.0893 0.166,0 0.3268,-0.0402 0.3571,-0.0893 0.03,-0.0491 0.171,-0.0893 0.3125,-0.0893 0.1415,0 0.2822,-0.0402 0.3125,-0.0893 0.03,-0.0491 0.171,-0.0893 0.3125,-0.0893 0.1415,0 0.2822,-0.0402 0.3125,-0.0893 0.03,-0.0491 0.1404,-0.0893 0.2445,-0.0893 0.1041,0 0.3126,-0.0397 0.4635,-0.0883 2.1618,-0.69626 2.5509,-0.8746 2.5509,-1.16897 0,-0.0942 -0.06,-0.17129 -0.1339,-0.17129 -0.074,0 -0.1339,-0.0417 -0.1339,-0.0927 0,-0.0627 -0.6134,-0.0768 -1.8973,-0.0435 -4.6793,0.12135 -7.3321,0.13906 -7.4216,0.0496 -0.05,-0.0505 -0.2627,-0.0918 -0.4716,-0.0918 -0.2088,0 -0.472,-0.0352 -0.5848,-0.0783 -0.1128,-0.043 -0.406,-0.12506 -0.6515,-0.18225 -0.6102,-0.14213 -1.9296,-0.54075 -2.1193,-0.64029 -0.085,-0.0447 -0.2336,-0.0813 -0.3296,-0.0813 -0.096,0 -0.1993,-0.0402 -0.2297,-0.0893 -0.03,-0.0491 -0.1509,-0.0893 -0.2678,-0.0893 -0.117,0 -0.2375,-0.0402 -0.2679,-0.0893 -0.03,-0.0491 -0.1509,-0.0893 -0.2678,-0.0893 -0.117,0 -0.2376,-0.0402 -0.2679,-0.0893 -0.03,-0.0491 -0.1509,-0.0893 -0.2679,-0.0893 -0.1169,0 -0.2375,-0.0402 -0.2678,-0.0893 -0.03,-0.0491 -0.1332,-0.0893 -0.2285,-0.0893 -0.095,0 -0.1733,-0.0402 -0.1733,-0.0893 0,-0.0491 -0.055,-0.0893 -0.1216,-0.0893 -0.1983,0 -1.4232,-0.66078 -2.0376,-1.09917 -0.3137,-0.22387 -0.7899,-0.64628 -1.0583,-0.93868 -0.6532,-0.71175 -0.7111,-0.78909 -0.7111,-0.94946 0,-0.0757 -0.04,-0.13769 -0.089,-0.13769 -0.049,0 -0.089,-0.12054 -0.089,-0.26786 0,-0.14732 -0.04,-0.26786 -0.089,-0.26786 -0.1173,0 -0.1173,-1.22219 0,-1.29464 0.049,-0.0303 0.089,-0.12516 0.089,-0.21068 0,-0.19534 0.2007,-0.63591 0.2901,-0.63684 0.037,-3.6e-4 0.067,-0.0609 0.067,-0.13458 0,-0.16816 1.2988,-1.48164 1.6295,-1.64786 0.135,-0.0679 0.2455,-0.15194 0.2455,-0.1868 0,-0.0349 0.1205,-0.11329 0.2679,-0.17431 0.1473,-0.061 0.2678,-0.14626 0.2678,-0.18941 0,-0.0431 0.037,-0.0785 0.082,-0.0785 0.045,0 0.3765,-0.17134 0.7366,-0.38076 0.6374,-0.37071 0.8852,-0.49558 1.3913,-0.70109 0.1351,-0.0548 0.3153,-0.13519 0.4006,-0.17857 0.085,-0.0434 0.2336,-0.0789 0.3296,-0.0789 0.096,0 0.1993,-0.0402 0.2297,-0.0893 0.03,-0.0491 0.1508,-0.0893 0.2678,-0.0893 0.117,0 0.2375,-0.0402 0.2679,-0.0893 0.03,-0.0491 0.1509,-0.0893 0.2678,-0.0893 0.117,0 0.2348,-0.0357 0.2618,-0.0794 0.027,-0.0437 0.18,-0.10172 0.3401,-0.12897 0.16,-0.0273 0.4919,-0.0938 0.7374,-0.1479 1.4379,-0.31674 3.3085,-0.52965 4.7768,-0.54369 1.1577,-0.0111 1.5302,-0.0638 1.5259,-0.21609 -0,-0.0491 -0.1142,-0.10242 -0.2508,-0.11848 -0.1366,-0.016 -0.2865,-0.0663 -0.3331,-0.1116 -0.047,-0.0453 -0.1749,-0.0824 -0.2849,-0.0824 -0.1101,0 -0.225,-0.0402 -0.2553,-0.0893 -0.03,-0.0491 -0.1337,-0.0893 -0.2297,-0.0893 -0.096,0 -0.2443,-0.0355 -0.3296,-0.0789 -0.085,-0.0434 -0.2555,-0.11894 -0.3782,-0.16792 -0.3276,-0.13069 -1.4964,-0.67952 -2.7679,-1.29966 -1.0832,-0.52832 -2.8591,-1.62085 -3.4154,-2.10114 -0.3995,-0.3449 -1.504,-1.44543 -1.7631,-1.75686 -0.8255,-0.99186 -0.8447,-2.06829 -0.049,-2.74122 0.3005,-0.25415 0.3498,-0.28657 0.6292,-0.41386 0.1473,-0.0671 0.3376,-0.15751 0.4229,-0.20089 0.085,-0.0434 0.2537,-0.0789 0.3742,-0.0789 0.1205,0 0.244,-0.0402 0.2743,-0.0893 0.03,-0.0491 0.2859,-0.0893 0.5678,-0.0893 0.2819,0 0.5508,-0.0371 0.5974,-0.0825 0.047,-0.0454 0.567,-0.10443 1.1563,-0.13126 3.571,-0.16259 8.4248,-0.68601 9.6299,-1.03845 0.4289,-0.12547 0.9533,-0.41592 1.1008,-0.6098 0.2987,-0.39258 -0.039,-0.96306 -0.6861,-1.15752 -0.8666,-0.26061 -1.1833,-0.2842 -3.8496,-0.28679 -1.5412,-0.001 -2.7419,-0.0361 -2.6682,-0.0769 0.074,-0.0408 0.4151,-0.14637 0.7589,-0.23461 0.3437,-0.0882 0.6632,-0.19428 0.7098,-0.23562 0.047,-0.0413 0.195,-0.0752 0.3296,-0.0752 0.1346,0 0.2695,-0.0402 0.2999,-0.0893 0.03,-0.0491 0.191,-0.0893 0.3571,-0.0893 0.1661,0 0.3268,-0.0402 0.3572,-0.0893 0.03,-0.0491 0.191,-0.0893 0.3571,-0.0893 0.1661,0 0.3268,-0.0402 0.3571,-0.0893 0.03,-0.0491 0.1911,-0.0893 0.3572,-0.0893 0.1661,0 0.3268,-0.0402 0.3571,-0.0893 0.03,-0.0491 0.1911,-0.0893 0.3572,-0.0893 0.166,0 0.3268,-0.0402 0.3571,-0.0893 0.03,-0.0491 0.2055,-0.0893 0.3892,-0.0893 0.1837,0 0.3722,-0.0363 0.4188,-0.0806 0.2862,-0.27203 3.0488,-0.2693 3.2172,0.003 0.026,0.0426 0.122,0.0774 0.2127,0.0774 0.1721,0 0.8071,0.30503 1.1152,0.53572 0.6154,0.46075 1.2987,1.40196 1.2987,1.78888 0,0.0907 0.04,0.1897 0.089,0.22005 0.1166,0.0721 0.1166,1.71365 0,1.78571 -0.049,0.0303 -0.089,0.13317 -0.089,0.22848 0,0.0953 -0.03,0.17331 -0.067,0.17331 -0.037,0 -0.1164,0.11049 -0.1763,0.24553 -0.06,0.13505 -0.2705,0.34542 -0.4682,0.46751 -0.1977,0.12208 -0.3594,0.25266 -0.3594,0.29018 0,0.0375 -0.061,0.0682 -0.1352,0.0682 -0.074,0 -0.2049,0.0363 -0.2902,0.0806 -0.4986,0.25919 -2.1364,0.45513 -3.8043,0.45513 -1.1672,0 -3.2459,0.258 -5.1007,0.63308 -0.2455,0.0497 -0.5973,0.11257 -0.7818,0.13982 -0.1845,0.0272 -0.3576,0.0855 -0.3847,0.12939 -0.027,0.0439 -0.1876,0.0798 -0.3566,0.0798 -0.169,0 -0.3072,0.0402 -0.3072,0.0893 0,0.0491 -0.083,0.0893 -0.1849,0.0893 -0.2413,0 -0.9138,0.46566 -1.1485,0.79524 -0.1835,0.25777 -0.2646,0.99048 -0.1096,0.99048 0.041,0 0.1195,0.0976 0.1738,0.21683 0.1007,0.22104 0.8299,0.79514 1.3138,1.03438 0.1473,0.0728 0.2879,0.1534 0.3125,0.17902 0.024,0.0256 0.3259,0.18058 0.6696,0.34434 0.3438,0.16377 0.6948,0.33372 0.7801,0.37767 0.085,0.0439 0.2158,0.0799 0.2902,0.0799 0.074,0 0.1351,0.0402 0.1351,0.0893 0,0.0491 0.08,0.0893 0.1786,0.0893 0.098,0 0.1785,0.0402 0.1785,0.0893 0,0.0491 0.048,0.0893 0.107,0.0893 0.093,0 1.2828,0.55969 3.0529,1.43605 0.2893,0.14321 0.5806,0.26038 0.6473,0.26038 0.067,0 0.1214,0.0402 0.1214,0.0893 0,0.0491 0.08,0.0893 0.1786,0.0893 0.098,0 0.1786,0.0402 0.1786,0.0893 0,0.0491 0.048,0.0893 0.1066,0.0893 0.059,0 0.6409,0.26117 1.2939,0.58036 0.6529,0.3192 1.2277,0.58036 1.2772,0.58036 0.499,0 -1.5614,0.62512 -2.567,0.77882 -0.16,0.0245 -0.3131,0.0802 -0.3401,0.1239 -0.027,0.0437 -0.1849,0.0794 -0.351,0.0794 -0.1661,0 -0.3268,0.0402 -0.3571,0.0893 -0.03,0.0491 -0.1911,0.0893 -0.3572,0.0893 -0.1661,0 -0.3268,0.0402 -0.3571,0.0893 -0.03,0.0491 -0.1911,0.0893 -0.3572,0.0893 -0.1661,0 -0.3268,0.0402 -0.3571,0.0893 -0.03,0.0491 -0.1911,0.0893 -0.3572,0.0893 -0.166,0 -0.3268,0.0402 -0.3571,0.0893 -0.03,0.0491 -0.171,0.0893 -0.3125,0.0893 -0.1415,0 -0.2822,0.0402 -0.3125,0.0893 -0.03,0.0491 -0.1538,0.0893 -0.2743,0.0893 -0.1206,0 -0.289,0.0357 -0.3742,0.0793 -0.085,0.0436 -0.5569,0.20845 -1.0479,0.36626 -0.4911,0.15782 -1.0977,0.38328 -1.3479,0.50103 -0.2503,0.11775 -0.5014,0.21409 -0.5581,0.21409 -0.057,0 -0.103,0.0402 -0.103,0.0893 0,0.0491 -0.08,0.0893 -0.1785,0.0893 -0.098,0 -0.1786,0.0327 -0.1786,0.0726 0,0.04 -0.1406,0.1278 -0.3125,0.19524 -0.1719,0.0674 -0.3125,0.1553 -0.3125,0.19524 0,0.0399 -0.05,0.0727 -0.1116,0.0727 -0.061,6e-5 -0.2284,0.1005 -0.371,0.22321 -0.1427,0.12271 -0.2903,0.22311 -0.328,0.22311 -0.129,0 -1.3085,1.21315 -1.3711,1.41025 -0.034,0.10829 -0.1,0.19689 -0.1458,0.19689 -0.046,0 -0.083,0.078 -0.083,0.1733 0,0.0953 -0.04,0.19814 -0.089,0.22849 -0.1468,0.0907 -0.1043,0.98608 0.06,1.27303 0.1275,0.22203 1.0107,0.8882 1.3157,0.99228 0.053,0.0182 0.2177,0.0852 0.3651,0.14889 0.5572,0.24073 1.3599,0.48758 1.5855,0.48758 0.1288,0 0.2591,0.0402 0.2895,0.0893 0.03,0.0491 0.2456,0.0893 0.4785,0.0893 0.2328,0 0.4614,0.037 0.5081,0.0823 0.1682,0.16327 3.2813,0.35711 7.2723,0.45282 3.8083,0.0913 4.9139,0.15163 5.0402,0.27491 0.047,0.0455 0.2179,0.0828 0.3806,0.0828 0.1628,0 0.3657,0.037 0.4509,0.0822 0.085,0.0452 0.3872,0.17084 0.6709,0.27923 0.5711,0.21818 0.8681,0.52068 0.8681,0.88421 0,0.27237 -0.6675,1.00063 -1.0875,1.18655 -0.1385,0.0613 -0.2518,0.14182 -0.2518,0.17894 0,0.0371 -0.08,0.0675 -0.1785,0.0675 -0.098,0 -0.1786,0.0402 -0.1786,0.0893 0,0.0491 -0.061,0.0893 -0.1352,0.0893 -0.074,0 -0.2049,0.0355 -0.2901,0.0789 -0.085,0.0434 -0.2656,0.12374 -0.4006,0.17857 -0.1351,0.0548 -0.3359,0.13725 -0.4464,0.18313 -0.2885,0.1198 -1.1845,0.40995 -1.8081,0.58551 -0.2946,0.083 -0.628,0.18736 -0.7408,0.23201 -0.1128,0.0447 -0.3013,0.0812 -0.4188,0.0812 -0.1176,0 -0.2386,0.0402 -0.2689,0.0893 -0.03,0.0491 -0.1911,0.0893 -0.3572,0.0893 -0.1661,0 -0.3268,0.0402 -0.3571,0.0893 -0.03,0.0491 -0.2112,0.0893 -0.4018,0.0893 -0.1907,0 -0.3715,0.0402 -0.4018,0.0893 -0.03,0.0491 -0.2336,0.0893 -0.4517,0.0893 -0.2181,0 -0.3965,0.0402 -0.3965,0.0893 0,0.0491 -0.1985,0.0893 -0.4412,0.0893 -0.2426,0 -0.466,0.0402 -0.4963,0.0893 -0.03,0.0491 -0.2658,0.0893 -0.5231,0.0893 -0.2574,0 -0.5062,0.036 -0.5528,0.0799 -0.047,0.044 -0.346,0.10455 -0.6652,0.13465 -0.3192,0.0301 -0.8817,0.0924 -1.25,0.13835 -2.1975,0.2744 -4.342,0.4438 -5.4911,0.43376 -0.5647,-0.005 -0.5905,-0.0126 -0.2678,-0.0793 z"
       id="path5201"
       inkscape:connector-curvature="0"
       transform="translate(0,796.36216)" />
    <path
       style="opacity:1;fill:#ffffff;fill-opacity:1;stroke-width:0;stroke-miterlimit:4;stroke-dasharray:none"
       d="m 1009.7758,220.78945 c 0.2701,-0.0702 1.2947,-0.31407 2.2768,-0.54189 0.9821,-0.22783 1.878,-0.45215 1.9908,-0.4985 0.1128,-0.0463 0.3013,-0.0843 0.4188,-0.0843 0.1176,0 0.2386,-0.0402 0.269,-0.0893 0.03,-0.0491 0.1604,-0.0893 0.2891,-0.0893 0.1286,0 0.3573,-0.0375 0.5081,-0.0832 0.1508,-0.0458 0.445,-0.12614 0.6537,-0.17857 0.6204,-0.15588 1.124,-0.29021 1.3616,-0.36319 0.1227,-0.0377 0.3839,-0.11211 0.5803,-0.16531 1.7343,-0.4697 3.1399,-0.9844 3.2769,-1.19992 0.1135,-0.17866 0.084,-0.23067 -0.2181,-0.38698 -0.2581,-0.13351 -0.4771,-0.14111 -2.0312,-0.0705 -3.5865,0.16304 -7.5927,0.0782 -8.5722,-0.18148 -0.1228,-0.0325 -0.3639,-0.0949 -0.5357,-0.13863 -0.3972,-0.10096 -2.9322,-0.88604 -3.1697,-0.98162 -0.098,-0.0395 -0.3192,-0.12016 -0.491,-0.17918 -0.527,-0.18093 -0.6428,-0.23021 -1.4733,-0.62654 -0.4419,-0.21093 -1.0848,-0.57652 -1.4285,-0.81241 -1.0744,-0.73729 -2.0982,-1.9073 -2.0982,-2.39778 0,-0.0938 -0.04,-0.19542 -0.089,-0.22577 -0.1509,-0.0932 -0.1011,-1.13093 0.078,-1.62015 0.2211,-0.60481 0.593,-1.12898 1.2298,-1.73294 0.8672,-0.82263 2.644,-1.91017 3.9157,-2.39681 0.2946,-0.11275 0.6161,-0.23699 0.7143,-0.27608 1.6049,-0.63878 4.0653,-1.058 7.2114,-1.22873 0.6899,-0.0374 1.2384,-0.1059 1.25,-0.156 0.011,-0.0491 -0.08,-0.10273 -0.2025,-0.11917 -0.1228,-0.0164 -0.2614,-0.0667 -0.308,-0.1116 -0.047,-0.045 -0.1749,-0.0817 -0.2849,-0.0817 -0.1101,0 -0.225,-0.0402 -0.2553,-0.0893 -0.03,-0.0491 -0.1263,-0.0893 -0.2131,-0.0893 -0.493,0 -4.266,-1.8513 -5.743,-2.81797 -1.3561,-0.88744 -2.9329,-2.38123 -3.3199,-3.14506 -0.7407,-1.4617 0.2643,-2.74918 2.3563,-3.01852 0.1719,-0.0221 0.5134,-0.0779 0.759,-0.12394 0.2455,-0.046 1.1294,-0.12657 1.9643,-0.17896 1.8505,-0.11612 3.3951,-0.24141 4.4642,-0.3621 3.7307,-0.42113 4.5789,-0.58609 5.2303,-1.01713 0.4166,-0.27575 0.5144,-0.56745 0.2998,-0.89498 -0.3949,-0.60264 -1.3927,-0.76277 -4.7531,-0.76277 -1.4013,0 -2.5239,-0.0239 -2.4946,-0.0532 0.068,-0.0676 1.6213,-0.53784 2.4989,-0.75631 0.1841,-0.0458 0.4855,-0.12169 0.6696,-0.16855 0.1842,-0.0469 0.5056,-0.12722 0.7143,-0.17857 0.2087,-0.0513 0.5502,-0.13575 0.7589,-0.18754 0.4614,-0.11448 0.8724,-0.20561 1.8081,-0.40083 1.8623,-0.38856 3.8706,0.29401 4.7879,1.62729 0.4417,0.64197 0.6139,1.21953 0.6139,2.05939 0,1.0181 -0.2892,1.61275 -1.0401,2.13897 -0.6425,0.45026 -2.2127,0.74078 -4.0036,0.74078 -1.5283,0 -4.4995,0.37993 -6.251,0.79934 -0.1964,0.047 -0.4777,0.11044 -0.625,0.14089 -0.778,0.1608 -1.6527,0.68348 -1.8802,1.12352 -0.2611,0.50484 -0.1775,0.76704 0.4341,1.362 0.6288,0.61163 1.4133,1.02835 5.8658,3.11556 0.4174,0.19567 1.462,0.69551 2.3214,1.11075 0.8594,0.41524 1.7533,0.83709 1.9866,0.93745 0.4681,0.20139 0.5264,0.29597 0.2232,0.36199 -0.1844,0.0402 -2.0088,0.49561 -2.7455,0.6854 -0.7843,0.20204 -1.5136,0.3858 -2.1206,0.5343 -2.7716,0.67812 -5.0901,1.58537 -6.5436,2.56052 -1.1882,0.7972 -2.1394,2.01771 -2.1394,2.74505 0,0.72302 0.3683,1.14303 1.4898,1.699 1.9238,0.95374 3.9424,1.20913 11.0549,1.39863 3.8413,0.10235 4.6187,0.18391 5.7537,0.60359 1.0867,0.40183 1.3498,0.91869 0.7844,1.54071 -0.3166,0.34821 -0.9187,0.77648 -1.4042,0.99881 -1.0679,0.489 -2.7376,1.06196 -4.1072,1.40934 -1.1099,0.28155 -1.8144,0.43927 -2.2321,0.49971 -0.1719,0.0249 -0.3929,0.0806 -0.4911,0.12391 -0.098,0.0433 -0.3393,0.0999 -0.5357,0.12579 -0.3528,0.0465 -0.6601,0.0944 -2.2321,0.34749 -0.442,0.0711 -1.2456,0.1777 -1.7857,0.23676 -0.5402,0.0591 -1.2697,0.14341 -1.6211,0.18744 -0.3514,0.044 -1.376,0.1016 -2.2768,0.12793 -1.5395,0.045 -1.6084,0.0402 -1.1468,-0.0798 z"
       id="path5203"
       inkscape:connector-curvature="0"
       transform="translate(0,796.36216)" />
    <rect
       style="opacity:1;fill:#ffffff;fill-opacity:1;stroke-width:0;stroke-miterlimit:4;stroke-dasharray:none"
       id="rect5580"
       width="12.121831"
       height="102.02541"
       x="340.57678"
       y="807.0014"
       ry="6.0609155"
       transform="matrix(0.96592583,0.25881905,-0.25881905,0.96592583,0,0)" />
    <rect
       style="opacity:1;fill:#ffffff;fill-opacity:1;stroke-width:0;stroke-miterlimit:4;stroke-dasharray:none"
       id="rect5580-4"
       width="12.121831"
       height="102.02541"
       x="377.44736"
       y="809.02167"
       ry="6.0609155"
       transform="matrix(0.96592583,0.25881905,-0.25881905,0.96592583,0,0)" />
    <rect
       style="opacity:1;fill:#ffffff;fill-opacity:1;stroke-width:0;stroke-miterlimit:4;stroke-dasharray:none"
       id="rect5580-8"
       width="12.121831"
       height="102.02541"
       x="834.78058"
       y="-417.85345"
       ry="6.0609155"
       transform="matrix(-0.25881905,0.96592583,-0.96592583,-0.25881905,0,0)" />
    <rect
       style="opacity:1;fill:#ffffff;fill-opacity:1;stroke-width:0;stroke-miterlimit:4;stroke-dasharray:none"
       id="rect5580-8-9"
       width="12.121831"
       height="102.02541"
       x="874.17651"
       y="-415.32809"
       ry="6.0609155"
       transform="matrix(-0.25881905,0.96592583,-0.96592583,-0.25881905,0,0)" />
  </g>
</svg>
