<?xml version="1.0" encoding="UTF-8" standalone="no"?>
<!-- Created with Inkscape (http://www.inkscape.org/) -->

<svg
   xmlns:dc="http://purl.org/dc/elements/1.1/"
   xmlns:cc="http://creativecommons.org/ns#"
   xmlns:rdf="http://www.w3.org/1999/02/22-rdf-syntax-ns#"
   xmlns:svg="http://www.w3.org/2000/svg"
   xmlns="http://www.w3.org/2000/svg"
   xmlns:sodipodi="http://sodipodi.sourceforge.net/DTD/sodipodi-0.dtd"
   xmlns:inkscape="http://www.inkscape.org/namespaces/inkscape"
   width="256"
   height="256"
   viewBox="0 0 256 256"
   id="svg2"
   version="1.1"
   inkscape:version="0.91 r13725"
   sodipodi:docname="steam.svg">
  <defs
     id="defs4" />
  <sodipodi:namedview
     id="base"
     pagecolor="#ffffff"
     bordercolor="#666666"
     borderopacity="1.0"
     inkscape:pageopacity="0.0"
     inkscape:pageshadow="2"
     inkscape:zoom="0.7"
     inkscape:cx="51.021518"
     inkscape:cy="238.78899"
     inkscape:document-units="px"
     inkscape:current-layer="layer1"
     showgrid="false"
     units="px"
     inkscape:window-width="1366"
     inkscape:window-height="711"
     inkscape:window-x="0"
     inkscape:window-y="31"
     inkscape:window-maximized="1" />
  <metadata
     id="metadata7">
    <rdf:RDF>
      <cc:Work
         rdf:about="">
        <dc:format>image/svg+xml</dc:format>
        <dc:type
           rdf:resource="http://purl.org/dc/dcmitype/StillImage" />
        <dc:title></dc:title>
      </cc:Work>
    </rdf:RDF>
  </metadata>
  <g
     inkscape:label="Layer 1"
     inkscape:groupmode="layer"
     id="layer1"
     transform="translate(0,-796.36216)">
    <rect
       style="fill:#ffffff;fill-rule:evenodd;stroke:#000000;stroke-width:0;stroke-linecap:butt;stroke-linejoin:miter;stroke-opacity:1;stroke-miterlimit:4;stroke-dasharray:none;fill-opacity:1"
       id="rect3336"
       width="202.61562"
       height="202.61562"
       x="-664.62292"
       y="642.82465"
       ry="46.696564"
       transform="matrix(0.70710678,-0.70710678,0.70710678,0.70710678,0,0)" />
    <path
       style="fill:#1a1a1a;fill-opacity:1;fill-rule:evenodd;stroke:#000000;stroke-width:0;stroke-linecap:butt;stroke-linejoin:miter;stroke-miterlimit:4;stroke-dasharray:none;stroke-opacity:1"
       d="m 127.83221,800.15617 c -11.95373,0 -23.90753,4.57894 -33.067107,13.73851 l -77.343678,77.34367 c -18.31912912,18.31912 -18.31912912,47.81505 0,66.13417 l 77.343678,77.34368 c 18.319137,18.3192 47.815067,18.3192 66.134187,0 l 77.34368,-77.34368 c 18.31912,-18.31912 18.31912,-47.81505 0,-66.13417 l -77.34368,-77.34367 c -9.15956,-9.15957 -21.11336,-13.73851 -33.06708,-13.73851 z m 0.0606,7.38757 c 11.26499,0 22.53018,4.3165 31.162,12.94832 l 72.88804,72.88608 c 17.26364,17.26363 17.26364,45.06038 0,62.32401 l -72.88804,72.88615 c -17.26362,17.2636 -45.06037,17.2636 -62.32402,0 L 23.844694,955.70216 c -17.2636309,-17.26363 -17.2636309,-45.06038 0,-62.32402 L 96.73078,820.49206 c 8.63183,-8.63182 19.89703,-12.94832 31.16202,-12.94832 z"
       id="rect3336-36"
       inkscape:connector-curvature="0" />
    <path
       style="opacity:1;fill:#ffffff;fill-opacity:1;stroke-width:0;stroke-miterlimit:4;stroke-dasharray:none"
       d="m -505.78983,285.64507 c -25.65721,-4.64236 -49.06881,-26.78448 -55.48079,-52.47241 l -2.30493,-9.23411 -47.2933,-26.83727 c -26.01132,-14.76049 -48.65701,-27.42915 -50.32376,-28.15259 -1.66675,-0.72343 -7.34834,-3.95236 -12.62574,-7.17542 l -9.59529,-5.86009 -14.98953,3.53379 c -14.10439,3.32511 -15.80447,3.33446 -28.79051,0.15823 -35.27545,-8.62793 -57.54505,-39.13955 -54.55943,-74.751982 1.55205,-18.51286 8.58896,-32.637962 22.67182,-45.50891 15.09551,-13.796441 29.41834,-19.034134 49.40136,-18.065501 32.62993,1.581662 58.2561,22.980675 65.56728,54.751644 l 2.22658,9.6757 55.50157,33.404019 55.50157,33.40402 9.09137,-3.4502 c 5.00026,-1.89762 14.31792,-4.46941 20.70595,-5.71509 l 11.61455,-2.26487 30.19453,-42.415402 c 28.70106,-40.317471 30.30817,-43.084782 32.49212,-55.948782 6.39687,-37.6791099 32.18884,-66.686733 68.16386,-76.66231 52.83842,-14.651652 106.44855,20.634506 115.93489,76.30827 4.85936,28.518776 -5.18685,58.786004 -26.40254,79.545544 -14.35397,14.04537 -29.2941,21.47179 -52.94333,26.31701 -15.95059,3.26794 -19.05679,4.7044 -31.45257,14.54521 -7.56477,6.00554 -25.80019,20.25451 -40.52316,31.6644 -24.97168,19.35231 -26.76904,21.20363 -26.76904,27.5725 0,11.68514 -7.70298,28.46273 -18.48357,40.25842 -17.44738,19.09021 -42.18314,27.78144 -66.52996,23.37618 z m 37.86742,-21.96413 c 34.75661,-17.73149 41.34793,-63.35212 12.98614,-89.88125 -9.77925,-9.14734 -24.77567,-15.53505 -36.41232,-15.50979 -6.83164,0.0148 -20.34144,3.81343 -20.34144,5.71947 0,0.82511 6.59124,5.03402 14.64721,9.35311 23.43899,12.56652 29.69477,16.97221 33.90577,23.87859 5.6235,9.22293 5.35563,25.08146 -0.57074,33.78909 -7.73781,11.36919 -14.55642,15.13175 -27.42226,15.13175 -10.28602,0 -13.61207,-1.22445 -32.25565,-11.87457 -11.43287,-6.53102 -21.19054,-11.47105 -21.68371,-10.97787 -1.66799,1.66798 2.95774,14.39554 8.00251,22.0187 14.36249,21.70321 46.07681,30.12103 69.14449,18.35277 z m -230.66645,-120.2817 6.04031,-2.57533 -5.03016,-3.11746 c -2.76658,-1.7146 -12.91766,-7.34408 -22.55795,-12.50995 -19.51194,-10.45572 -25.84634,-17.93694 -27.2959,-32.237735 -1.06289,-10.486103 3.64834,-20.047813 13.9211,-28.253666 6.09174,-4.866068 9.48804,-6.00654 18.26515,-6.133412 9.47176,-0.136916 13.33033,1.247131 31.75341,11.389751 11.5343,6.350082 21.66155,11.545603 22.505,11.545603 1.91772,0 -0.70176,-9.376825 -4.87265,-17.442447 -4.13383,-7.993947 -18.12644,-20.519225 -27.37498,-24.504303 -12.12085,-5.222723 -31.92613,-4.295615 -45.01282,2.107106 -19.40759,9.49525 -29.84308,26.605379 -29.84308,48.931017 0,25.322696 13.46615,44.531296 37.19829,53.061006 8.31408,2.98821 25.00052,2.85382 32.30428,-0.26018 z m 393.27843,-28.71349 c 14.21452,-7.20304 23.07521,-15.87126 29.41002,-28.771205 4.90484,-9.987972 5.6355,-13.839771 5.62663,-29.661317 -0.008,-14.276755 -0.93562,-20.188865 -4.31806,-27.521415 -6.17898,-13.394974 -17.52657,-25.0417863 -30.70273,-31.5123406 -9.94405,-4.8833259 -13.8082,-5.6141168 -29.61877,-5.6015202 -15.22613,0.012122 -19.66104,0.7950022 -27.27412,4.8145346 -16.1828,8.5441712 -23.80367,16.0047782 -30.73914,30.0926722 -5.8305,11.843457 -6.6363,15.448728 -6.63488,29.685588 0.002,24.609805 9.05438,41.31932 29.90538,55.204123 17.31149,11.52782 45.24887,12.94796 64.34567,3.27088 z"
       id="path4318"
       inkscape:connector-curvature="0"
       transform="translate(0,796.36216)" />
    <path
       style="opacity:1;fill:#1a1a1a;fill-opacity:1;stroke-width:0;stroke-miterlimit:4;stroke-dasharray:none"
       d="m 125.56471,975.52881 c -3.91236,-1.10793 -7.90722,-3.58161 -10.60308,-6.56562 -2.50347,-2.77103 -5.21836,-8.0405 -5.22785,-10.14695 -0.007,-1.59266 0.5507,-1.23804 -20.437686,-12.99206 l -16.461704,-9.21895 -4.155747,1.01007 c -3.444415,0.83714 -4.750634,0.89056 -7.631198,0.31208 -7.332119,-1.47253 -12.949707,-5.75865 -15.957453,-12.17528 -1.388787,-2.96279 -1.63087,-4.29522 -1.63087,-8.9762 0,-4.7814 0.222151,-5.94934 1.706639,-8.97229 2.224169,-4.52922 7.275867,-9.15717 11.885064,-10.88811 7.647843,-2.87207 18.09796,-0.27614 23.007538,5.71535 2.548023,3.10954 5.224375,8.65354 5.232628,10.83925 0.0054,1.41623 1.781082,2.64591 17.094789,11.83808 l 17.08882,10.25765 3.10448,-1.33551 c 1.70746,-0.73454 4.4334,-1.4929 6.05763,-1.68526 2.5978,-0.30767 3.16655,-0.65276 4.7265,-2.8679 0.97533,-1.385 5.0275,-7.13732 9.00481,-12.78299 6.7211,-9.54038 7.31202,-10.61079 8.37279,-15.16637 1.5532,-6.67037 3.85491,-11.13368 7.85536,-15.23248 3.70521,-3.79631 7.89821,-6.20021 13.24299,-7.59234 19.96504,-5.20024 39.29046,14.12518 34.09022,34.09022 -2.92433,11.22727 -11.56355,19.11631 -23.21439,21.1986 -2.35147,0.42025 -4.79424,1.03238 -5.42836,1.36025 -1.38723,0.71727 -20.00929,15.1134 -22.81982,17.64128 -1.5808,1.42185 -1.985,2.25999 -1.985,4.11614 0,5.58169 -6.41544,13.88276 -13.09129,16.93906 -3.99569,1.82928 -9.94251,2.37995 -13.82581,1.28028 z m 10.46811,-5.68156 c 4.76169,-1.40937 9.23172,-5.96564 10.65341,-10.85893 1.64085,-5.64752 0.52871,-11.27971 -3.07011,-15.54793 -3.92207,-4.65165 -10.16269,-6.88892 -15.58646,-5.58778 -1.66637,0.39976 -2.88089,0.96772 -2.69893,1.26214 0.18196,0.29443 2.17398,1.5407 4.4267,2.76949 6.68455,3.64627 8.65867,5.06604 9.91974,7.13428 1.69834,2.78539 1.61651,7.58102 -0.17426,10.2122 -2.33926,3.43709 -4.40064,4.57459 -8.29019,4.57459 -3.08158,0 -4.14637,-0.38231 -9.57487,-3.4377 -3.35924,-1.89072 -6.29914,-3.32654 -6.53311,-3.19071 -0.65971,0.38304 1.19474,5.09905 2.86739,7.29202 1.78476,2.33993 4.93213,4.38277 8.44451,5.48106 3.45966,1.08175 5.69504,1.0579 9.61618,-0.10273 z M 67.810508,932.90899 c 1.336758,-0.37116 2.132797,-0.88643 1.832315,-1.18599 -0.292219,-0.29134 -3.142352,-1.93159 -6.333635,-3.64503 -3.191279,-1.71344 -6.410848,-3.79307 -7.154598,-4.62145 -1.842597,-2.05224 -2.867731,-5.76735 -2.351184,-8.52076 0.606948,-3.23533 4.236867,-6.92667 7.53877,-7.66632 3.490421,-0.78188 4.851215,-0.39367 12.197433,3.47985 6.010304,3.16909 6.260407,3.24427 6.260407,1.88219 0,-3.03568 -5.539068,-9.5334 -9.466956,-11.10541 -8.674549,-3.47168 -19.238004,1.28542 -22.198385,9.99672 -0.905898,2.66571 -0.904861,7.84526 0.0021,10.50622 2.837547,8.32504 11.5409,13.13819 19.673732,10.87998 l 2.4e-5,0 z M 186.99038,924.1465 c 3.76095,-1.69721 7.65879,-5.52765 9.52907,-9.36428 1.15097,-2.36106 1.41172,-3.90242 1.41922,-8.38943 0.011,-6.59138 -1.22244,-9.85177 -5.24981,-13.87687 -4.24179,-4.23938 -7.72204,-5.61184 -14.24927,-5.61934 -4.75232,-0.005 -5.91395,0.21096 -8.57532,1.59756 -3.752,1.95484 -7.88262,6.31418 -9.62379,10.15672 -1.80306,3.97905 -1.81005,11.48965 -0.0144,15.45133 2.51967,5.55902 8.39899,10.34157 14.24348,11.58642 3.29749,0.70234 9.1424,-0.0175 12.52081,-1.54211 l 3e-5,0 z"
       id="path4320"
       inkscape:connector-curvature="0" />
  </g>
</svg>
