<?xml version="1.0" encoding="UTF-8" standalone="no"?>
<!-- Created with Inkscape (http://www.inkscape.org/) -->

<svg
   xmlns:dc="http://purl.org/dc/elements/1.1/"
   xmlns:cc="http://creativecommons.org/ns#"
   xmlns:rdf="http://www.w3.org/1999/02/22-rdf-syntax-ns#"
   xmlns:svg="http://www.w3.org/2000/svg"
   xmlns="http://www.w3.org/2000/svg"
   xmlns:sodipodi="http://sodipodi.sourceforge.net/DTD/sodipodi-0.dtd"
   xmlns:inkscape="http://www.inkscape.org/namespaces/inkscape"
   width="256"
   height="256"
   viewBox="0 0 256 256"
   id="svg2"
   version="1.1"
   inkscape:version="0.91 r13725"
   sodipodi:docname="teamviewer.svg">
  <defs
     id="defs4" />
  <sodipodi:namedview
     id="base"
     pagecolor="#ffffff"
     bordercolor="#666666"
     borderopacity="1.0"
     inkscape:pageopacity="0.0"
     inkscape:pageshadow="2"
     inkscape:zoom="1.4"
     inkscape:cx="348.79747"
     inkscape:cy="185.12805"
     inkscape:document-units="px"
     inkscape:current-layer="layer1"
     showgrid="false"
     units="px"
     inkscape:window-width="1366"
     inkscape:window-height="719"
     inkscape:window-x="0"
     inkscape:window-y="23"
     inkscape:window-maximized="1" />
  <metadata
     id="metadata7">
    <rdf:RDF>
      <cc:Work
         rdf:about="">
        <dc:format>image/svg+xml</dc:format>
        <dc:type
           rdf:resource="http://purl.org/dc/dcmitype/StillImage" />
        <dc:title />
      </cc:Work>
    </rdf:RDF>
  </metadata>
  <g
     inkscape:label="Layer 1"
     inkscape:groupmode="layer"
     id="layer1"
     transform="translate(0,-796.36216)">
    <rect
       style="fill:#5599ff;fill-rule:evenodd;stroke:#000000;stroke-width:0;stroke-linecap:butt;stroke-linejoin:miter;stroke-opacity:1;stroke-miterlimit:4;stroke-dasharray:none;fill-opacity:1"
       id="rect3336"
       width="202.61562"
       height="202.61562"
       x="-664.62292"
       y="642.82465"
       ry="46.696564"
       transform="matrix(0.70710678,-0.70710678,0.70710678,0.70710678,0,0)" />
    <path
       style="fill:#ffffff;fill-opacity:1;fill-rule:evenodd;stroke:#000000;stroke-width:0;stroke-linecap:butt;stroke-linejoin:miter;stroke-miterlimit:4;stroke-dasharray:none;stroke-opacity:1"
       d="m 127.83221,800.15617 c -11.95373,0 -23.90753,4.57894 -33.067107,13.73851 l -77.343678,77.34367 c -18.31912912,18.31912 -18.31912912,47.81505 0,66.13417 l 77.343678,77.34368 c 18.319137,18.3192 47.815067,18.3192 66.134187,0 l 77.34368,-77.34368 c 18.31912,-18.31912 18.31912,-47.81505 0,-66.13417 l -77.34368,-77.34367 c -9.15956,-9.15957 -21.11336,-13.73851 -33.06708,-13.73851 z m 0.0606,7.38757 c 11.26499,0 22.53018,4.3165 31.162,12.94832 l 72.88804,72.88608 c 17.26364,17.26363 17.26364,45.06038 0,62.32401 l -72.88804,72.88615 c -17.26362,17.2636 -45.06037,17.2636 -62.32402,0 L 23.844694,955.70216 c -17.2636309,-17.26363 -17.2636309,-45.06038 0,-62.32402 L 96.73078,820.49206 c 8.63183,-8.63182 19.89703,-12.94832 31.16202,-12.94832 z"
       id="rect3336-36"
       inkscape:connector-curvature="0" />
    <path
       style="fill:#ffffff;fill-opacity:1;stroke-width:0;stroke-miterlimit:4;stroke-dasharray:none"
       d="m 42.975353,926.74587 c 17.604052,-7.6828 27.665559,-12.62708 43.60693,-22.18651 0.387289,0 0.07457,0.68653 -1.695493,3.72217 -0.537163,0.92118 -1.26306,2.28707 -1.613088,3.03522 -0.35002,0.74822 -1.317502,2.53497 -2.149955,3.97063 -0.832452,1.43565 -1.513539,2.95903 -1.513539,3.38534 l 0,0.77509 45.100022,-0.45791 c 24.41915,-0.24793 46.88875,0.62003 46.88875,0.22259 0,-0.44831 -1.98418,-4.32121 -5.85212,-11.42255 -0.83628,-1.5353 -1.52128,-2.82292 -1.5222,-2.86127 17.66643,8.87004 25.72821,12.95955 42.7755,21.94529 -16.23607,7.72555 -30.85419,17.24573 -41.63804,21.64951 -0.12112,-0.0917 0.10386,-0.7318 0.49994,-1.42242 0.3961,-0.69073 1.63299,-2.93072 2.74867,-4.97787 1.11567,-2.04717 2.69747,-6.02804 3.2257,-6.90359 -6.27586,-0.55767 -13.69131,-0.22467 -47.1262,-0.22467 -33.841454,0 -45.064143,-2.43514 -43.08644,0.84076 0.556146,0.92124 1.85736,3.26617 2.891581,5.21097 1.03423,1.9448 2.236905,4.16406 2.672632,4.93176 0.435711,0.76766 0.623281,1.39002 0.416804,1.383 C 74.63542,942.89932 57.563966,934.14325 42.975353,926.74587 Z"
       id="path4311"
       inkscape:connector-curvature="0"
       sodipodi:nodetypes="ccccsscsscccccscscsccc" />
  </g>
</svg>
