<?xml version="1.0" encoding="UTF-8" standalone="no"?>
<!-- Created with Inkscape (http://www.inkscape.org/) -->

<svg
   xmlns:dc="http://purl.org/dc/elements/1.1/"
   xmlns:cc="http://creativecommons.org/ns#"
   xmlns:rdf="http://www.w3.org/1999/02/22-rdf-syntax-ns#"
   xmlns:svg="http://www.w3.org/2000/svg"
   xmlns="http://www.w3.org/2000/svg"
   xmlns:sodipodi="http://sodipodi.sourceforge.net/DTD/sodipodi-0.dtd"
   xmlns:inkscape="http://www.inkscape.org/namespaces/inkscape"
   width="256"
   height="256"
   viewBox="0 0 256 256"
   id="svg2"
   version="1.1"
   inkscape:version="0.91 r13725"
   sodipodi:docname="virtualbox.svg">
  <defs
     id="defs4" />
  <sodipodi:namedview
     id="base"
     pagecolor="#ffffff"
     bordercolor="#666666"
     borderopacity="1.0"
     inkscape:pageopacity="0.0"
     inkscape:pageshadow="2"
     inkscape:zoom="1.4"
     inkscape:cx="105.70779"
     inkscape:cy="74.849156"
     inkscape:document-units="px"
     inkscape:current-layer="layer1"
     showgrid="false"
     units="px"
     inkscape:window-width="1366"
     inkscape:window-height="719"
     inkscape:window-x="0"
     inkscape:window-y="23"
     inkscape:window-maximized="1" />
  <metadata
     id="metadata7">
    <rdf:RDF>
      <cc:Work
         rdf:about="">
        <dc:format>image/svg+xml</dc:format>
        <dc:type
           rdf:resource="http://purl.org/dc/dcmitype/StillImage" />
        <dc:title />
      </cc:Work>
    </rdf:RDF>
  </metadata>
  <g
     inkscape:label="Layer 1"
     inkscape:groupmode="layer"
     id="layer1"
     transform="translate(0,-796.36216)">
    <rect
       style="fill:#5599ff;fill-rule:evenodd;stroke:#000000;stroke-width:0;stroke-linecap:butt;stroke-linejoin:miter;stroke-opacity:1;stroke-miterlimit:4;stroke-dasharray:none;fill-opacity:1"
       id="rect3336"
       width="202.61562"
       height="202.61562"
       x="-664.62292"
       y="642.82465"
       ry="46.696564"
       transform="matrix(0.70710678,-0.70710678,0.70710678,0.70710678,0,0)" />
    <path
       style="fill:#ffffff;fill-opacity:1;fill-rule:evenodd;stroke:#000000;stroke-width:0;stroke-linecap:butt;stroke-linejoin:miter;stroke-miterlimit:4;stroke-dasharray:none;stroke-opacity:1"
       d="m 127.83221,800.15617 c -11.95373,0 -23.90753,4.57894 -33.067107,13.73851 l -77.343678,77.34367 c -18.31912912,18.31912 -18.31912912,47.81505 0,66.13417 l 77.343678,77.34368 c 18.319137,18.3192 47.815067,18.3192 66.134187,0 l 77.34368,-77.34368 c 18.31912,-18.31912 18.31912,-47.81505 0,-66.13417 l -77.34368,-77.34367 c -9.15956,-9.15957 -21.11336,-13.73851 -33.06708,-13.73851 z m 0.0606,7.38757 c 11.26499,0 22.53018,4.3165 31.162,12.94832 l 72.88804,72.88608 c 17.26364,17.26363 17.26364,45.06038 0,62.32401 l -72.88804,72.88615 c -17.26362,17.2636 -45.06037,17.2636 -62.32402,0 L 23.844694,955.70216 c -17.2636309,-17.26363 -17.2636309,-45.06038 0,-62.32402 L 96.73078,820.49206 c 8.63183,-8.63182 19.89703,-12.94832 31.16202,-12.94832 z"
       id="rect3336-36"
       inkscape:connector-curvature="0" />
    <path
       style="fill:#ffffff;fill-opacity:1;stroke-width:0;stroke-miterlimit:4;stroke-dasharray:none"
       d="m 136.4538,988.96654 c -0.75,-0.1224 -5.94546,-1.34737 -11.54549,-2.72216 -5.60001,-1.37481 -12.00951,-2.90201 -14.24334,-3.3938 -2.23383,-0.4918 -5.07986,-1.2029 -6.32452,-1.58022 -1.24466,-0.37731 -3.82758,-1.0205 -5.739808,-1.42929 -1.912222,-0.40879 -6.16656,-1.4472 -9.454074,-2.30759 -3.287513,-0.86037 -8.308215,-2.08331 -11.157098,-2.71763 -6.231584,6.44504 -12.643887,13.49374 -18.953029,20.34505 5.940794,4.49738 -2.316007,-2.20857 -3.911519,-5.15207 -0.05024,-0.57789 -0.927564,-1.93413 -2.090255,-3.23129 l -2.003659,-2.23541 8.832566,-9.46578 c 4.857905,-5.20619 10.129815,-10.75425 11.715307,-12.32906 l 2.882717,-2.86332 1.668527,0.34926 c 2.876358,0.60207 26.149215,6.43104 31.656325,7.9287 2.89087,0.78618 5.47553,1.40902 5.74369,1.38407 0.64819,-0.0602 1.24501,-1.11887 1.2911,-2.29006 0.0481,-1.22243 -1.91822,-6.19401 -13.56787,-34.3048 -11.613916,-28.02451 -12.396242,-30.04625 -11.709662,-30.26047 0.243371,-0.0759 10.096071,1.8448 21.894912,4.26831 11.79884,2.4235 21.75657,4.30916 22.1283,4.19035 0.55711,-0.17805 0.71806,-0.47896 0.9161,-1.7126 0.13212,-0.82312 0.082,-1.64234 -0.11148,-1.82046 -0.19343,-0.17812 -0.46542,-1.04813 -0.60441,-1.93335 -0.13901,-0.8852 -1.22535,-5.07688 -2.41409,-9.31482 -2.59413,-9.24807 -7.84845,-29.20318 -7.88499,-29.9459 -0.0166,-0.3384 1.7415,-0.12369 4.87895,0.59588 8.21996,1.8852 53.53194,11.32055 56.90483,11.84933 6.79702,-7.93044 11.0513,-12.06416 17.16467,-18.5976 0,0 4.07298,2.83144 4.47647,4.09561 0.51188,1.6037 1.17756,2.70728 2.20221,3.65086 l 1.46858,1.35236 -1.82177,1.73052 c -1.00196,0.95177 -6.07119,6.34356 -11.26494,11.98174 l -9.44292,10.25146 -9.40291,-2.06844 c -20.28993,-4.46337 -33.97953,-7.26976 -34.77496,-7.12892 -1.88966,0.33459 -1.62275,1.97909 2.98183,18.37239 1.58152,5.63054 3.57833,12.92217 4.43736,16.20361 0.85902,3.28143 1.82442,6.96731 2.14532,8.19086 0.32091,1.22355 0.52019,2.2449 0.44287,2.26965 -0.55479,0.17765 -9.2724,-1.42305 -21.13157,-3.88013 -16.13422,-3.34281 -19.26792,-3.83154 -19.93341,-3.10886 -0.72864,0.79125 0.29693,3.72654 8.01461,22.93902 3.89714,9.7016 8.89239,22.2198 11.10052,27.81823 2.20814,5.59842 4.48315,11.35019 5.05553,12.78173 0.5724,1.43152 0.99745,2.79738 0.94453,3.03529 -0.0529,0.23787 -0.70982,0.33236 -1.45982,0.20996 z"
       id="path4279"
       inkscape:connector-curvature="0"
       sodipodi:nodetypes="cssssscccscsscsscsscsccccscscccscsccssssscsssscccc" />
  </g>
</svg>
