<?xml version="1.0" encoding="UTF-8" standalone="no"?>
<!-- Created with Inkscape (http://www.inkscape.org/) -->

<svg
   xmlns:dc="http://purl.org/dc/elements/1.1/"
   xmlns:cc="http://creativecommons.org/ns#"
   xmlns:rdf="http://www.w3.org/1999/02/22-rdf-syntax-ns#"
   xmlns:svg="http://www.w3.org/2000/svg"
   xmlns="http://www.w3.org/2000/svg"
   xmlns:sodipodi="http://sodipodi.sourceforge.net/DTD/sodipodi-0.dtd"
   xmlns:inkscape="http://www.inkscape.org/namespaces/inkscape"
   width="256"
   height="256"
   viewBox="0 0 256 256"
   id="svg2"
   version="1.1"
   inkscape:version="0.91 r13725"
   sodipodi:docname="wine.svg">
  <defs
     id="defs4" />
  <sodipodi:namedview
     id="base"
     pagecolor="#ffffff"
     bordercolor="#666666"
     borderopacity="1.0"
     inkscape:pageopacity="0.0"
     inkscape:pageshadow="2"
     inkscape:zoom="0.7"
     inkscape:cx="302.89393"
     inkscape:cy="118.42228"
     inkscape:document-units="px"
     inkscape:current-layer="layer1"
     showgrid="false"
     units="px"
     inkscape:window-width="1366"
     inkscape:window-height="719"
     inkscape:window-x="0"
     inkscape:window-y="23"
     inkscape:window-maximized="1" />
  <metadata
     id="metadata7">
    <rdf:RDF>
      <cc:Work
         rdf:about="">
        <dc:format>image/svg+xml</dc:format>
        <dc:type
           rdf:resource="http://purl.org/dc/dcmitype/StillImage" />
        <dc:title></dc:title>
      </cc:Work>
    </rdf:RDF>
  </metadata>
  <g
     inkscape:label="Layer 1"
     inkscape:groupmode="layer"
     id="layer1"
     transform="translate(0,-796.36216)">
    <rect
       style="fill:#c83737;fill-rule:evenodd;stroke:#000000;stroke-width:0;stroke-linecap:butt;stroke-linejoin:miter;stroke-opacity:1;stroke-miterlimit:4;stroke-dasharray:none;fill-opacity:1"
       id="rect3336"
       width="202.61562"
       height="202.61562"
       x="-664.62292"
       y="642.82465"
       ry="46.696564"
       transform="matrix(0.70710678,-0.70710678,0.70710678,0.70710678,0,0)" />
    <path
       style="fill:#ffffff;fill-opacity:1;stroke-width:0;stroke-miterlimit:4;stroke-dasharray:none"
       d="m 123.62483,1001.7186 c -16.43865,-2.51874 -37.237057,-11.02264 -44.70744,-18.27964 -2.190319,-2.1278 -2.71544,-3.1196 -2.37337,-4.4825 0.33431,-1.332 1.880327,-1.7555 6.429949,-1.7614 3.792086,-0.01 4.964434,0.1311 10.423298,1.21 1.339492,0.2647 2.770004,0.3622 3.573701,0.2437 4.460452,-0.658 8.505132,-4.8791 11.754022,-12.2668 3.539,-8.0473 5.07706,-15.0231 4.36461,-19.7955 -0.47535,-3.18413 -1.1869,-5.22196 -3.35331,-9.60351 -3.09654,-6.26274 -4.14724,-10.10271 -4.75233,-17.36813 -0.45409,-5.4524 0.0143,-11.64767 1.49135,-19.7283 0.30848,-1.68757 1.83278,-8.36098 3.1971,-13.997 3.65786,-15.11058 3.96313,-16.28505 7.00546,-26.95166 0.18687,-0.65518 0.79323,-2.56652 1.34748,-4.2474 2.19878,-6.66835 2.79074,-7.44432 6.32367,-8.2894 3.06814,-0.7339 11.67399,-0.39848 16.67006,0.64974 12.4463,2.61132 22.44012,7.30094 27.44925,12.88059 0.83284,0.92771 1.77911,2.19912 2.10281,2.82537 l 0.58854,1.13863 -0.77287,3.08665 c -0.75078,2.99849 -2.59817,8.80918 -4.73303,14.88707 -0.57533,1.63795 -1.73357,4.92128 -2.57387,7.29631 -0.8403,2.37502 -1.77252,5.05529 -2.0716,5.95617 -6.17331,18.59472 -10.68283,28.18014 -17.58456,37.37768 -3.52009,4.69104 -6.48775,7.1578 -13.81365,11.48219 -7.85742,4.638 -11.60457,10.4341 -14.4274,22.3164 -1.12373,4.7301 -1.30336,6.1787 -1.18738,9.5754 0.10848,3.1768 0.18104,3.513 1.21122,5.6128 1.44286,2.9409 3.96605,5.7296 6.20809,6.8613 5.45803,2.7553 11.05418,6.6946 12.50429,8.8023 0.69416,1.0089 0.88731,1.5842 0.81696,2.4332 -0.14311,1.72704 -1.52247,2.27674 -5.8994,2.35124 -1.88364,0.032 -4.22888,-0.065 -5.21165,-0.2155 z m 3.51613,-60.2853 c 9.29667,-2.42148 18.47684,-14.92782 27.3273,-37.22855 1.86955,-4.71076 6.22204,-17.41481 6.23032,-18.18506 0.004,-0.38698 -1.39571,-1.72154 -2.28504,-2.17844 -1.10635,-0.5684 -3.79797,-0.393 -5.82004,0.37927 -1.02745,0.39241 -3.73315,1.60464 -6.01266,2.69385 -8.17966,3.90847 -12.67342,4.77729 -17.85502,3.45206 -4.28808,-1.0967 -7.66813,-3.0889 -11.58858,-6.83027 -1.34279,-1.28147 -2.42382,-2.09765 -2.56911,-1.93971 -0.92576,1.0063 -4.35476,14.06115 -5.39076,20.52363 -1.5776,9.84096 -1.58733,19.22211 -0.0271,26.08876 0.52536,2.31209 2.31167,6.18565 3.65625,7.92846 1.28394,1.66421 3.44068,3.46683 5.22845,4.37 2.62083,1.32401 6.186,1.68656 9.10595,0.926 l 1e-5,0 z m 11.52415,-54.3186 c 2.65449,-0.77061 4.58148,-1.56043 8.9333,-3.66151 5.73558,-2.76919 6.42048,-3.00061 8.98731,-3.0368 2.12371,-0.0299 2.38426,0.0366 3.65687,0.9336 0.75363,0.53121 1.46806,0.96583 1.58762,0.96583 0.24675,0 2.63456,-6.11872 3.75385,-9.61918 0.40851,-1.27758 1.03841,-3.64708 1.39978,-5.26556 0.56501,-2.53059 0.6033,-3.07237 0.27342,-3.86878 -0.99687,-2.40664 -7.43462,-6.41749 -15.66551,-9.75993 -8.5578,-3.47519 -14.50907,-4.70094 -21.86185,-4.50275 -3.56725,0.0961 -4.18825,0.19228 -5.50946,0.85289 -1.44565,0.72282 -1.51202,0.81394 -2.27776,3.12698 -0.61907,1.87 -3.28142,11.17045 -4.56091,15.93276 -0.29914,1.11339 -0.6178,2.28376 -1.31614,4.83391 -0.3468,1.2664 -0.63054,2.62481 -0.63054,3.01869 0,0.5146 0.75795,1.43744 2.69309,3.27897 3.84443,3.65847 6.45479,5.3677 10.11268,6.62164 2.61445,0.89624 7.60493,0.96769 10.42425,0.14924 z"
       id="path4442"
       inkscape:connector-curvature="0" />
    <path
       style="fill:#ffffff;fill-opacity:1;stroke-width:0;stroke-miterlimit:4;stroke-dasharray:none"
       d="m 118.91628,942.53432 c -6.10092,-2.15265 -9.7074,-7.21279 -11.57134,-16.23556 -0.57004,-2.75931 -0.57229,-16.11635 -0.003,-20.1737 0.44217,-3.15363 1.80823,-10.73625 2.27153,-12.60857 1.19455,-4.82755 1.76612,-6.90258 2.7133,-9.85044 0.59883,-1.86371 1.20949,-3.38856 1.35704,-3.38856 0.14755,0 0.88514,0.6209 1.63909,1.37976 3.17961,3.20033 7.97297,6.2488 11.77289,7.48732 2.78612,0.90808 8.36468,0.9924 11.38434,0.17205 2.41834,-0.65698 7.16438,-2.6243 11.12144,-4.61005 6.01041,-3.01617 9.74512,-3.33727 11.81318,-1.01567 0.58071,0.65192 0.57155,0.7256 -0.52505,4.2201 -0.97095,3.09404 -2.16045,6.52404 -4.95008,14.27388 -1.40768,3.9106 -4.91129,11.82874 -7.27215,16.43499 -4.88122,9.52371 -9.43827,15.90934 -14.26017,19.98228 -5.24643,4.43156 -10.38115,5.73494 -15.49061,3.93217 z"
       id="path4444"
       inkscape:connector-curvature="0" />
    <path
       style="fill:#ffffff;fill-opacity:1;fill-rule:evenodd;stroke:#000000;stroke-width:0;stroke-linecap:butt;stroke-linejoin:miter;stroke-miterlimit:4;stroke-dasharray:none;stroke-opacity:1"
       d="m 127.84228,800.2914 c -11.95373,0 -23.90753,4.57894 -33.067093,13.73851 l -77.343681,77.34367 c -18.31912846,18.31912 -18.31912846,47.81505 0,66.13417 l 77.343681,77.34375 c 18.319123,18.3192 47.815053,18.3192 66.134173,0 l 77.34368,-77.34375 c 18.31912,-18.31912 18.31912,-47.81505 0,-66.13417 L 160.90936,814.02991 C 151.7498,804.87034 139.796,800.2914 127.84228,800.2914 Z m 0.0606,7.38757 c 11.26499,0 22.53018,4.3165 31.162,12.94832 l 72.88804,72.88608 c 17.26364,17.26363 17.26364,45.06038 0,62.32401 l -72.88804,72.88622 c -17.26362,17.2636 -45.06037,17.2636 -62.324013,0 L 23.854775,955.83739 c -17.2636303,-17.26363 -17.2636303,-45.06038 0,-62.32402 l 72.886082,-72.88608 c 8.631823,-8.63182 19.897023,-12.94832 31.162013,-12.94832 z"
       id="rect3336-36"
       inkscape:connector-curvature="0" />
  </g>
</svg>
